{
  "asset" : {
    "generator" : "UE Viewer (umodel) build 1590",
    "version" : "2.0"
  },
  "scene" : 0,
  "scenes" : [
    {
      "nodes" : [ 0 ]
    }
  ],
  "nodes" : [
    {
      "name" : "ObjMD_Barrel_B",
      "mesh" : 0
    }
  ],
  "materials" : [
    {
      "name" : "ObjMI_Barrel_A",
      "pbrMetallicRoughness" : {
        "baseColorFactor" : [ 0.3, 0.3, 0.3, 1.0 ],
        "metallicFactor" : 0.1,
        "roughnessFactor" : 0.5
      }
    }
  ],
  "meshes" : [
    {
      "primitives" : [
        {
          "attributes" : {
            "POSITION" : 1,
            "NORMAL" : 2,
            "TANGENT" : 3,
            "TEXCOORD_0" : 4,
            "TEXCOORD_1" : 5
          },
          "indices" : 0,
          "material" : 0
        }
      ],
      "name" : "ObjMD_Barrel_B"
    }
  ],
  "buffers" : [
    {
      "uri" : "ObjMD_Barrel_B.bin",
      "byteLength" : 29788
    }
  ],
  "bufferViews" : [
    {
      "buffer" : 0,
      "byteOffset" : 0,
      "byteLength" : 2964
    },
    {
      "buffer" : 0,
      "byteOffset" : 2964,
      "byteLength" : 5748
    },
    {
      "buffer" : 0,
      "byteOffset" : 8712,
      "byteLength" : 5748
    },
    {
      "buffer" : 0,
      "byteOffset" : 14460,
      "byteLength" : 7664
    },
    {
      "buffer" : 0,
      "byteOffset" : 22124,
      "byteLength" : 3832
    },
    {
      "buffer" : 0,
      "byteOffset" : 25956,
      "byteLength" : 3832
    }
  ],
  "accessors" : [
    {
      "bufferView" : 0,
      "componentType" : 5123,
      "count" : 1482,
      "type" : "SCALAR"
    },
    {
      "bufferView" : 1,
      "min" : [ -0.585563, -2.45136e-17, -0.465741 ],
      "max" : [ 0.34967, 1.23517, 0.461756 ],
      "componentType" : 5126,
      "count" : 479,
      "type" : "VEC3"
    },
    {
      "bufferView" : 2,
      "componentType" : 5126,
      "count" : 479,
      "type" : "VEC3"
    },
    {
      "bufferView" : 3,
      "componentType" : 5126,
      "count" : 479,
      "type" : "VEC4"
    },
    {
      "bufferView" : 4,
      "componentType" : 5126,
      "count" : 479,
      "type" : "VEC2"
    },
    {
      "bufferView" : 5,
      "componentType" : 5126,
      "count" : 479,
      "type" : "VEC2"
    }
  ]
}
