{
  "asset" : {
    "generator" : "UE Viewer (umodel) build 1590",
    "version" : "2.0"
  },
  "scene" : 0,
  "scenes" : [
    {
      "nodes" : [ 0 ]
    }
  ],
  "nodes" : [
    {
      "name" : "ObjMD_Barrel_A_orange",
      "mesh" : 0
    }
  ],
  "materials" : [
    {
      "name" : "ObjMI_Barrel_A",
      "pbrMetallicRoughness" : {
        "baseColorFactor" : [ 0.3, 0.3, 0.3, 1.0 ],
        "metallicFactor" : 0.1,
        "roughnessFactor" : 0.5
      }
    }
  ],
  "meshes" : [
    {
      "primitives" : [
        {
          "attributes" : {
            "POSITION" : 1,
            "NORMAL" : 2,
            "TANGENT" : 3,
            "TEXCOORD_0" : 4,
            "TEXCOORD_1" : 5
          },
          "indices" : 0,
          "material" : 0
        }
      ],
      "name" : "ObjMD_Barrel_A_orange"
    }
  ],
  "buffers" : [
    {
      "uri" : "ObjMD_Barrel_A_orange.bin",
      "byteLength" : 7704
    }
  ],
  "bufferViews" : [
    {
      "buffer" : 0,
      "byteOffset" : 0,
      "byteLength" : 1152
    },
    {
      "buffer" : 0,
      "byteOffset" : 1152,
      "byteLength" : 1404
    },
    {
      "buffer" : 0,
      "byteOffset" : 2556,
      "byteLength" : 1404
    },
    {
      "buffer" : 0,
      "byteOffset" : 3960,
      "byteLength" : 1872
    },
    {
      "buffer" : 0,
      "byteOffset" : 5832,
      "byteLength" : 936
    },
    {
      "buffer" : 0,
      "byteOffset" : 6768,
      "byteLength" : 936
    }
  ],
  "accessors" : [
    {
      "bufferView" : 0,
      "componentType" : 5123,
      "count" : 576,
      "type" : "SCALAR"
    },
    {
      "bufferView" : 1,
      "min" : [ -0.33344, -0.0304668, -0.3125 ],
      "max" : [ 0.288343, 0.285461, 0.3125 ],
      "componentType" : 5126,
      "count" : 117,
      "type" : "VEC3"
    },
    {
      "bufferView" : 2,
      "componentType" : 5126,
      "count" : 117,
      "type" : "VEC3"
    },
    {
      "bufferView" : 3,
      "componentType" : 5126,
      "count" : 117,
      "type" : "VEC4"
    },
    {
      "bufferView" : 4,
      "componentType" : 5126,
      "count" : 117,
      "type" : "VEC2"
    },
    {
      "bufferView" : 5,
      "componentType" : 5126,
      "count" : 117,
      "type" : "VEC2"
    }
  ]
}
