{
  "asset" : {
    "generator" : "UE Viewer (umodel) build 1590",
    "version" : "2.0"
  },
  "scene" : 0,
  "scenes" : [
    {
      "nodes" : [ 0 ]
    }
  ],
  "nodes" : [
    {
      "name" : "ObjMD_D_Ruins_Remain_Gate_B",
      "mesh" : 0
    }
  ],
  "materials" : [
    {
      "name" : "MmeMI_D_Ruins_mk_Moss",
      "pbrMetallicRoughness" : {
        "baseColorFactor" : [ 0.3, 0.3, 0.3, 1.0 ],
        "metallicFactor" : 0.1,
        "roughnessFactor" : 0.5
      }
    }
  ],
  "meshes" : [
    {
      "primitives" : [
        {
          "attributes" : {
            "POSITION" : 1,
            "NORMAL" : 2,
            "TANGENT" : 3,
            "TEXCOORD_0" : 4,
            "TEXCOORD_1" : 5
          },
          "indices" : 0,
          "material" : 0
        }
      ],
      "name" : "ObjMD_D_Ruins_Remain_Gate_B"
    }
  ],
  "buffers" : [
    {
      "uri" : "ObjMD_D_Ruins_Remain_Gate_B.bin",
      "byteLength" : 91244
    }
  ],
  "bufferViews" : [
    {
      "buffer" : 0,
      "byteOffset" : 0,
      "byteLength" : 6516
    },
    {
      "buffer" : 0,
      "byteOffset" : 6516,
      "byteLength" : 18156
    },
    {
      "buffer" : 0,
      "byteOffset" : 24672,
      "byteLength" : 18156
    },
    {
      "buffer" : 0,
      "byteOffset" : 42828,
      "byteLength" : 24208
    },
    {
      "buffer" : 0,
      "byteOffset" : 67036,
      "byteLength" : 12104
    },
    {
      "buffer" : 0,
      "byteOffset" : 79140,
      "byteLength" : 12104
    }
  ],
  "accessors" : [
    {
      "bufferView" : 0,
      "componentType" : 5123,
      "count" : 3258,
      "type" : "SCALAR"
    },
    {
      "bufferView" : 1,
      "min" : [ -0.1875, -6.57517e-17, -1.07381 ],
      "max" : [ 1.5625, 5, 5.07381 ],
      "componentType" : 5126,
      "count" : 1513,
      "type" : "VEC3"
    },
    {
      "bufferView" : 2,
      "componentType" : 5126,
      "count" : 1513,
      "type" : "VEC3"
    },
    {
      "bufferView" : 3,
      "componentType" : 5126,
      "count" : 1513,
      "type" : "VEC4"
    },
    {
      "bufferView" : 4,
      "componentType" : 5126,
      "count" : 1513,
      "type" : "VEC2"
    },
    {
      "bufferView" : 5,
      "componentType" : 5126,
      "count" : 1513,
      "type" : "VEC2"
    }
  ]
}
