{
  "asset" : {
    "generator" : "UE Viewer (umodel) build 1590",
    "version" : "2.0"
  },
  "scene" : 0,
  "scenes" : [
    {
      "nodes" : [ 0 ]
    }
  ],
  "nodes" : [
    {
      "name" : "ObjMD_D_Ruins_Remain_Wall_C",
      "mesh" : 0
    }
  ],
  "materials" : [
    {
      "name" : "MmeMI_D_Ruins_mk_Moss",
      "pbrMetallicRoughness" : {
        "baseColorFactor" : [ 0.3, 0.3, 0.3, 1.0 ],
        "metallicFactor" : 0.1,
        "roughnessFactor" : 0.5
      }
    }
  ],
  "meshes" : [
    {
      "primitives" : [
        {
          "attributes" : {
            "POSITION" : 1,
            "NORMAL" : 2,
            "TANGENT" : 3,
            "TEXCOORD_0" : 4,
            "TEXCOORD_1" : 5
          },
          "indices" : 0,
          "material" : 0
        }
      ],
      "name" : "ObjMD_D_Ruins_Remain_Wall_C"
    }
  ],
  "buffers" : [
    {
      "uri" : "ObjMD_D_Ruins_Remain_Wall_C.bin",
      "byteLength" : 14412
    }
  ],
  "bufferViews" : [
    {
      "buffer" : 0,
      "byteOffset" : 0,
      "byteLength" : 804
    },
    {
      "buffer" : 0,
      "byteOffset" : 804,
      "byteLength" : 2916
    },
    {
      "buffer" : 0,
      "byteOffset" : 3720,
      "byteLength" : 2916
    },
    {
      "buffer" : 0,
      "byteOffset" : 6636,
      "byteLength" : 3888
    },
    {
      "buffer" : 0,
      "byteOffset" : 10524,
      "byteLength" : 1944
    },
    {
      "buffer" : 0,
      "byteOffset" : 12468,
      "byteLength" : 1944
    }
  ],
  "accessors" : [
    {
      "bufferView" : 0,
      "componentType" : 5123,
      "count" : 402,
      "type" : "SCALAR"
    },
    {
      "bufferView" : 1,
      "min" : [ -0.75, -1.15625, -0.875 ],
      "max" : [ 0.75, 1.15625, 0.875 ],
      "componentType" : 5126,
      "count" : 243,
      "type" : "VEC3"
    },
    {
      "bufferView" : 2,
      "componentType" : 5126,
      "count" : 243,
      "type" : "VEC3"
    },
    {
      "bufferView" : 3,
      "componentType" : 5126,
      "count" : 243,
      "type" : "VEC4"
    },
    {
      "bufferView" : 4,
      "componentType" : 5126,
      "count" : 243,
      "type" : "VEC2"
    },
    {
      "bufferView" : 5,
      "componentType" : 5126,
      "count" : 243,
      "type" : "VEC2"
    }
  ]
}
