{
  "asset" : {
    "generator" : "UE Viewer (umodel) build 1590",
    "version" : "2.0"
  },
  "scene" : 0,
  "scenes" : [
    {
      "nodes" : [ 0 ]
    }
  ],
  "nodes" : [
    {
      "name" : "ObjMD_D_Ruins_Remain_Debris_B",
      "mesh" : 0
    }
  ],
  "materials" : [
    {
      "name" : "MmeMI_D_Ruins_Desert",
      "pbrMetallicRoughness" : {
        "baseColorFactor" : [ 0.3, 0.3, 0.3, 1.0 ],
        "metallicFactor" : 0.1,
        "roughnessFactor" : 0.5
      }
    }
  ],
  "meshes" : [
    {
      "primitives" : [
        {
          "attributes" : {
            "POSITION" : 1,
            "NORMAL" : 2,
            "TANGENT" : 3,
            "TEXCOORD_0" : 4,
            "TEXCOORD_1" : 5
          },
          "indices" : 0,
          "material" : 0
        }
      ],
      "name" : "ObjMD_D_Ruins_Remain_Debris_B"
    }
  ],
  "buffers" : [
    {
      "uri" : "ObjMD_D_Ruins_Remain_Debris_B.bin",
      "byteLength" : 12140
    }
  ],
  "bufferViews" : [
    {
      "buffer" : 0,
      "byteOffset" : 0,
      "byteLength" : 660
    },
    {
      "buffer" : 0,
      "byteOffset" : 660,
      "byteLength" : 2460
    },
    {
      "buffer" : 0,
      "byteOffset" : 3120,
      "byteLength" : 2460
    },
    {
      "buffer" : 0,
      "byteOffset" : 5580,
      "byteLength" : 3280
    },
    {
      "buffer" : 0,
      "byteOffset" : 8860,
      "byteLength" : 1640
    },
    {
      "buffer" : 0,
      "byteOffset" : 10500,
      "byteLength" : 1640
    }
  ],
  "accessors" : [
    {
      "bufferView" : 0,
      "componentType" : 5123,
      "count" : 330,
      "type" : "SCALAR"
    },
    {
      "bufferView" : 1,
      "min" : [ -1.04805, -3.14192e-17, -0.655129 ],
      "max" : [ 1.04805, 0.92949, 0.655129 ],
      "componentType" : 5126,
      "count" : 205,
      "type" : "VEC3"
    },
    {
      "bufferView" : 2,
      "componentType" : 5126,
      "count" : 205,
      "type" : "VEC3"
    },
    {
      "bufferView" : 3,
      "componentType" : 5126,
      "count" : 205,
      "type" : "VEC4"
    },
    {
      "bufferView" : 4,
      "componentType" : 5126,
      "count" : 205,
      "type" : "VEC2"
    },
    {
      "bufferView" : 5,
      "componentType" : 5126,
      "count" : 205,
      "type" : "VEC2"
    }
  ]
}
