{
  "asset" : {
    "generator" : "UE Viewer (umodel) build 1590",
    "version" : "2.0"
  },
  "scene" : 0,
  "scenes" : [
    {
      "nodes" : [ 0 ]
    }
  ],
  "nodes" : [
    {
      "name" : "ObjMD_D_Ruins_Remain_Wall_B",
      "mesh" : 0
    }
  ],
  "materials" : [
    {
      "name" : "MmeMI_D_Ruins_mk_Moss",
      "pbrMetallicRoughness" : {
        "baseColorFactor" : [ 0.3, 0.3, 0.3, 1.0 ],
        "metallicFactor" : 0.1,
        "roughnessFactor" : 0.5
      }
    }
  ],
  "meshes" : [
    {
      "primitives" : [
        {
          "attributes" : {
            "POSITION" : 1,
            "NORMAL" : 2,
            "TANGENT" : 3,
            "TEXCOORD_0" : 4,
            "TEXCOORD_1" : 5
          },
          "indices" : 0,
          "material" : 0
        }
      ],
      "name" : "ObjMD_D_Ruins_Remain_Wall_B"
    }
  ],
  "buffers" : [
    {
      "uri" : "ObjMD_D_Ruins_Remain_Wall_B.bin",
      "byteLength" : 12032
    }
  ],
  "bufferViews" : [
    {
      "buffer" : 0,
      "byteOffset" : 0,
      "byteLength" : 720
    },
    {
      "buffer" : 0,
      "byteOffset" : 720,
      "byteLength" : 2424
    },
    {
      "buffer" : 0,
      "byteOffset" : 3144,
      "byteLength" : 2424
    },
    {
      "buffer" : 0,
      "byteOffset" : 5568,
      "byteLength" : 3232
    },
    {
      "buffer" : 0,
      "byteOffset" : 8800,
      "byteLength" : 1616
    },
    {
      "buffer" : 0,
      "byteOffset" : 10416,
      "byteLength" : 1616
    }
  ],
  "accessors" : [
    {
      "bufferView" : 0,
      "componentType" : 5123,
      "count" : 360,
      "type" : "SCALAR"
    },
    {
      "bufferView" : 1,
      "min" : [ -1.25, -0.9375, -0.125004 ],
      "max" : [ 8.22544e-08, 2.125, 3.125 ],
      "componentType" : 5126,
      "count" : 202,
      "type" : "VEC3"
    },
    {
      "bufferView" : 2,
      "componentType" : 5126,
      "count" : 202,
      "type" : "VEC3"
    },
    {
      "bufferView" : 3,
      "componentType" : 5126,
      "count" : 202,
      "type" : "VEC4"
    },
    {
      "bufferView" : 4,
      "componentType" : 5126,
      "count" : 202,
      "type" : "VEC2"
    },
    {
      "bufferView" : 5,
      "componentType" : 5126,
      "count" : 202,
      "type" : "VEC2"
    }
  ]
}
