{
  "asset" : {
    "generator" : "UE Viewer (umodel) build 1590",
    "version" : "2.0"
  },
  "scene" : 0,
  "scenes" : [
    {
      "nodes" : [ 0 ]
    }
  ],
  "nodes" : [
    {
      "name" : "ObjMD_D_Ruins_Remain_Gate_A",
      "mesh" : 0
    }
  ],
  "materials" : [
    {
      "name" : "MmeMI_D_Ruins_mk_Moss",
      "pbrMetallicRoughness" : {
        "baseColorFactor" : [ 0.3, 0.3, 0.3, 1.0 ],
        "metallicFactor" : 0.1,
        "roughnessFactor" : 0.5
      }
    }
  ],
  "meshes" : [
    {
      "primitives" : [
        {
          "attributes" : {
            "POSITION" : 1,
            "NORMAL" : 2,
            "TANGENT" : 3,
            "TEXCOORD_0" : 4,
            "TEXCOORD_1" : 5
          },
          "indices" : 0,
          "material" : 0
        }
      ],
      "name" : "ObjMD_D_Ruins_Remain_Gate_A"
    }
  ],
  "buffers" : [
    {
      "uri" : "ObjMD_D_Ruins_Remain_Gate_A.bin",
      "byteLength" : 25872
    }
  ],
  "bufferViews" : [
    {
      "buffer" : 0,
      "byteOffset" : 0,
      "byteLength" : 1680
    },
    {
      "buffer" : 0,
      "byteOffset" : 1680,
      "byteLength" : 5184
    },
    {
      "buffer" : 0,
      "byteOffset" : 6864,
      "byteLength" : 5184
    },
    {
      "buffer" : 0,
      "byteOffset" : 12048,
      "byteLength" : 6912
    },
    {
      "buffer" : 0,
      "byteOffset" : 18960,
      "byteLength" : 3456
    },
    {
      "buffer" : 0,
      "byteOffset" : 22416,
      "byteLength" : 3456
    }
  ],
  "accessors" : [
    {
      "bufferView" : 0,
      "componentType" : 5123,
      "count" : 840,
      "type" : "SCALAR"
    },
    {
      "bufferView" : 1,
      "min" : [ -1.75, -1, -0.25 ],
      "max" : [ 4.76837e-07, 1.8125, 1.75 ],
      "componentType" : 5126,
      "count" : 432,
      "type" : "VEC3"
    },
    {
      "bufferView" : 2,
      "componentType" : 5126,
      "count" : 432,
      "type" : "VEC3"
    },
    {
      "bufferView" : 3,
      "componentType" : 5126,
      "count" : 432,
      "type" : "VEC4"
    },
    {
      "bufferView" : 4,
      "componentType" : 5126,
      "count" : 432,
      "type" : "VEC2"
    },
    {
      "bufferView" : 5,
      "componentType" : 5126,
      "count" : 432,
      "type" : "VEC2"
    }
  ]
}
