{
  "asset" : {
    "generator" : "UE Viewer (umodel) build 1590",
    "version" : "2.0"
  },
  "scene" : 0,
  "scenes" : [
    {
      "nodes" : [ 0 ]
    }
  ],
  "nodes" : [
    {
      "name" : "ObjMD_Rock_B_015",
      "mesh" : 0
    }
  ],
  "materials" : [
    {
      "name" : "ObjMI_Rock_A",
      "pbrMetallicRoughness" : {
        "baseColorFactor" : [ 0.3, 0.3, 0.3, 1.0 ],
        "metallicFactor" : 0.1,
        "roughnessFactor" : 0.5
      }
    }
  ],
  "meshes" : [
    {
      "primitives" : [
        {
          "attributes" : {
            "POSITION" : 1,
            "NORMAL" : 2,
            "TANGENT" : 3,
            "TEXCOORD_0" : 4,
            "TEXCOORD_1" : 5
          },
          "indices" : 0,
          "material" : 0
        }
      ],
      "name" : "ObjMD_Rock_B_015"
    }
  ],
  "buffers" : [
    {
      "uri" : "ObjMD_Rock_B_015.bin",
      "byteLength" : 13128
    }
  ],
  "bufferViews" : [
    {
      "buffer" : 0,
      "byteOffset" : 0,
      "byteLength" : 752
    },
    {
      "buffer" : 0,
      "byteOffset" : 752,
      "byteLength" : 2652
    },
    {
      "buffer" : 0,
      "byteOffset" : 3404,
      "byteLength" : 2652
    },
    {
      "buffer" : 0,
      "byteOffset" : 6056,
      "byteLength" : 3536
    },
    {
      "buffer" : 0,
      "byteOffset" : 9592,
      "byteLength" : 1768
    },
    {
      "buffer" : 0,
      "byteOffset" : 11360,
      "byteLength" : 1768
    }
  ],
  "accessors" : [
    {
      "bufferView" : 0,
      "componentType" : 5123,
      "count" : 375,
      "type" : "SCALAR"
    },
    {
      "bufferView" : 1,
      "min" : [ -0.18058, -0.00909017, -0.45673 ],
      "max" : [ 0.18058, 0.287348, 0.45673 ],
      "componentType" : 5126,
      "count" : 221,
      "type" : "VEC3"
    },
    {
      "bufferView" : 2,
      "componentType" : 5126,
      "count" : 221,
      "type" : "VEC3"
    },
    {
      "bufferView" : 3,
      "componentType" : 5126,
      "count" : 221,
      "type" : "VEC4"
    },
    {
      "bufferView" : 4,
      "componentType" : 5126,
      "count" : 221,
      "type" : "VEC2"
    },
    {
      "bufferView" : 5,
      "componentType" : 5126,
      "count" : 221,
      "type" : "VEC2"
    }
  ]
}
