{
  "asset" : {
    "generator" : "UE Viewer (umodel) build 1590",
    "version" : "2.0"
  },
  "scene" : 0,
  "scenes" : [
    {
      "nodes" : [ 0 ]
    }
  ],
  "nodes" : [
    {
      "name" : "ObjMD_Rock_A_07",
      "mesh" : 0
    }
  ],
  "materials" : [
    {
      "name" : "ObjMI_Rock_A",
      "pbrMetallicRoughness" : {
        "baseColorFactor" : [ 0.3, 0.3, 0.3, 1.0 ],
        "metallicFactor" : 0.1,
        "roughnessFactor" : 0.5
      }
    }
  ],
  "meshes" : [
    {
      "primitives" : [
        {
          "attributes" : {
            "POSITION" : 1,
            "NORMAL" : 2,
            "TANGENT" : 3,
            "TEXCOORD_0" : 4,
            "TEXCOORD_1" : 5
          },
          "indices" : 0,
          "material" : 0
        }
      ],
      "name" : "ObjMD_Rock_A_07"
    }
  ],
  "buffers" : [
    {
      "uri" : "ObjMD_Rock_A_07.bin",
      "byteLength" : 9500
    }
  ],
  "bufferViews" : [
    {
      "buffer" : 0,
      "byteOffset" : 0,
      "byteLength" : 540
    },
    {
      "buffer" : 0,
      "byteOffset" : 540,
      "byteLength" : 1920
    },
    {
      "buffer" : 0,
      "byteOffset" : 2460,
      "byteLength" : 1920
    },
    {
      "buffer" : 0,
      "byteOffset" : 4380,
      "byteLength" : 2560
    },
    {
      "buffer" : 0,
      "byteOffset" : 6940,
      "byteLength" : 1280
    },
    {
      "buffer" : 0,
      "byteOffset" : 8220,
      "byteLength" : 1280
    }
  ],
  "accessors" : [
    {
      "bufferView" : 0,
      "componentType" : 5123,
      "count" : 270,
      "type" : "SCALAR"
    },
    {
      "bufferView" : 1,
      "min" : [ -0.176644, -2.38469e-17, -0.445706 ],
      "max" : [ 0.176644, 0.29324, 0.445706 ],
      "componentType" : 5126,
      "count" : 160,
      "type" : "VEC3"
    },
    {
      "bufferView" : 2,
      "componentType" : 5126,
      "count" : 160,
      "type" : "VEC3"
    },
    {
      "bufferView" : 3,
      "componentType" : 5126,
      "count" : 160,
      "type" : "VEC4"
    },
    {
      "bufferView" : 4,
      "componentType" : 5126,
      "count" : 160,
      "type" : "VEC2"
    },
    {
      "bufferView" : 5,
      "componentType" : 5126,
      "count" : 160,
      "type" : "VEC2"
    }
  ]
}
