{
  "asset" : {
    "generator" : "UE Viewer (umodel) build 1590",
    "version" : "2.0"
  },
  "scene" : 0,
  "scenes" : [
    {
      "nodes" : [ 0 ]
    }
  ],
  "nodes" : [
    {
      "name" : "ObjMD_Rock_C_05",
      "mesh" : 0
    }
  ],
  "materials" : [
    {
      "name" : "ObjMI_Rock_C_01",
      "pbrMetallicRoughness" : {
        "baseColorFactor" : [ 0.3, 0.3, 0.3, 1.0 ],
        "metallicFactor" : 0.1,
        "roughnessFactor" : 0.5
      }
    }
  ],
  "meshes" : [
    {
      "primitives" : [
        {
          "attributes" : {
            "POSITION" : 1,
            "NORMAL" : 2,
            "TANGENT" : 3,
            "TEXCOORD_0" : 4,
            "TEXCOORD_1" : 5
          },
          "indices" : 0,
          "material" : 0
        }
      ],
      "name" : "ObjMD_Rock_C_05"
    }
  ],
  "buffers" : [
    {
      "uri" : "ObjMD_Rock_C_05.bin",
      "byteLength" : 1352
    }
  ],
  "bufferViews" : [
    {
      "buffer" : 0,
      "byteOffset" : 0,
      "byteLength" : 120
    },
    {
      "buffer" : 0,
      "byteOffset" : 120,
      "byteLength" : 264
    },
    {
      "buffer" : 0,
      "byteOffset" : 384,
      "byteLength" : 264
    },
    {
      "buffer" : 0,
      "byteOffset" : 648,
      "byteLength" : 352
    },
    {
      "buffer" : 0,
      "byteOffset" : 1000,
      "byteLength" : 176
    },
    {
      "buffer" : 0,
      "byteOffset" : 1176,
      "byteLength" : 176
    }
  ],
  "accessors" : [
    {
      "bufferView" : 0,
      "componentType" : 5123,
      "count" : 60,
      "type" : "SCALAR"
    },
    {
      "bufferView" : 1,
      "min" : [ -8.31354e-17, 1.49507e-17, -0.3125 ],
      "max" : [ 0.149634, 0.411115, 0.3125 ],
      "componentType" : 5126,
      "count" : 22,
      "type" : "VEC3"
    },
    {
      "bufferView" : 2,
      "componentType" : 5126,
      "count" : 22,
      "type" : "VEC3"
    },
    {
      "bufferView" : 3,
      "componentType" : 5126,
      "count" : 22,
      "type" : "VEC4"
    },
    {
      "bufferView" : 4,
      "componentType" : 5126,
      "count" : 22,
      "type" : "VEC2"
    },
    {
      "bufferView" : 5,
      "componentType" : 5126,
      "count" : 22,
      "type" : "VEC2"
    }
  ]
}
