{
  "asset" : {
    "generator" : "UE Viewer (umodel) build 1590",
    "version" : "2.0"
  },
  "scene" : 0,
  "scenes" : [
    {
      "nodes" : [ 0 ]
    }
  ],
  "nodes" : [
    {
      "name" : "ObjMD_Rock_A_02",
      "mesh" : 0
    }
  ],
  "materials" : [
    {
      "name" : "ObjMI_Rock_A",
      "pbrMetallicRoughness" : {
        "baseColorFactor" : [ 0.3, 0.3, 0.3, 1.0 ],
        "metallicFactor" : 0.1,
        "roughnessFactor" : 0.5
      }
    }
  ],
  "meshes" : [
    {
      "primitives" : [
        {
          "attributes" : {
            "POSITION" : 1,
            "NORMAL" : 2,
            "TANGENT" : 3,
            "TEXCOORD_0" : 4,
            "TEXCOORD_1" : 5
          },
          "indices" : 0,
          "material" : 0
        }
      ],
      "name" : "ObjMD_Rock_A_02"
    }
  ],
  "buffers" : [
    {
      "uri" : "ObjMD_Rock_A_02.bin",
      "byteLength" : 4856
    }
  ],
  "bufferViews" : [
    {
      "buffer" : 0,
      "byteOffset" : 0,
      "byteLength" : 432
    },
    {
      "buffer" : 0,
      "byteOffset" : 432,
      "byteLength" : 948
    },
    {
      "buffer" : 0,
      "byteOffset" : 1380,
      "byteLength" : 948
    },
    {
      "buffer" : 0,
      "byteOffset" : 2328,
      "byteLength" : 1264
    },
    {
      "buffer" : 0,
      "byteOffset" : 3592,
      "byteLength" : 632
    },
    {
      "buffer" : 0,
      "byteOffset" : 4224,
      "byteLength" : 632
    }
  ],
  "accessors" : [
    {
      "bufferView" : 0,
      "componentType" : 5123,
      "count" : 216,
      "type" : "SCALAR"
    },
    {
      "bufferView" : 1,
      "min" : [ -0.597968, 3.90344e-17, -0.63748 ],
      "max" : [ 0.597968, 0.677928, 0.63748 ],
      "componentType" : 5126,
      "count" : 79,
      "type" : "VEC3"
    },
    {
      "bufferView" : 2,
      "componentType" : 5126,
      "count" : 79,
      "type" : "VEC3"
    },
    {
      "bufferView" : 3,
      "componentType" : 5126,
      "count" : 79,
      "type" : "VEC4"
    },
    {
      "bufferView" : 4,
      "componentType" : 5126,
      "count" : 79,
      "type" : "VEC2"
    },
    {
      "bufferView" : 5,
      "componentType" : 5126,
      "count" : 79,
      "type" : "VEC2"
    }
  ]
}
