{
  "asset" : {
    "generator" : "UE Viewer (umodel) build 1590",
    "version" : "2.0"
  },
  "scene" : 0,
  "scenes" : [
    {
      "nodes" : [ 0 ]
    }
  ],
  "nodes" : [
    {
      "name" : "ObjMD_Rock_B_011",
      "mesh" : 0
    }
  ],
  "materials" : [
    {
      "name" : "ObjMI_Rock_A",
      "pbrMetallicRoughness" : {
        "baseColorFactor" : [ 0.3, 0.3, 0.3, 1.0 ],
        "metallicFactor" : 0.1,
        "roughnessFactor" : 0.5
      }
    }
  ],
  "meshes" : [
    {
      "primitives" : [
        {
          "attributes" : {
            "POSITION" : 1,
            "NORMAL" : 2,
            "TANGENT" : 3,
            "TEXCOORD_0" : 4,
            "TEXCOORD_1" : 5
          },
          "indices" : 0,
          "material" : 0
        }
      ],
      "name" : "ObjMD_Rock_B_011"
    }
  ],
  "buffers" : [
    {
      "uri" : "ObjMD_Rock_B_011.bin",
      "byteLength" : 6848
    }
  ],
  "bufferViews" : [
    {
      "buffer" : 0,
      "byteOffset" : 0,
      "byteLength" : 408
    },
    {
      "buffer" : 0,
      "byteOffset" : 408,
      "byteLength" : 1380
    },
    {
      "buffer" : 0,
      "byteOffset" : 1788,
      "byteLength" : 1380
    },
    {
      "buffer" : 0,
      "byteOffset" : 3168,
      "byteLength" : 1840
    },
    {
      "buffer" : 0,
      "byteOffset" : 5008,
      "byteLength" : 920
    },
    {
      "buffer" : 0,
      "byteOffset" : 5928,
      "byteLength" : 920
    }
  ],
  "accessors" : [
    {
      "bufferView" : 0,
      "componentType" : 5123,
      "count" : 204,
      "type" : "SCALAR"
    },
    {
      "bufferView" : 1,
      "min" : [ -0.929789, -5.96046e-08, -0.610281 ],
      "max" : [ 0.929789, 0.766563, 0.610281 ],
      "componentType" : 5126,
      "count" : 115,
      "type" : "VEC3"
    },
    {
      "bufferView" : 2,
      "componentType" : 5126,
      "count" : 115,
      "type" : "VEC3"
    },
    {
      "bufferView" : 3,
      "componentType" : 5126,
      "count" : 115,
      "type" : "VEC4"
    },
    {
      "bufferView" : 4,
      "componentType" : 5126,
      "count" : 115,
      "type" : "VEC2"
    },
    {
      "bufferView" : 5,
      "componentType" : 5126,
      "count" : 115,
      "type" : "VEC2"
    }
  ]
}
