{
  "asset" : {
    "generator" : "UE Viewer (umodel) build 1590",
    "version" : "2.0"
  },
  "scene" : 0,
  "scenes" : [
    {
      "nodes" : [ 0 ]
    }
  ],
  "nodes" : [
    {
      "name" : "ObjMD_Tree_D",
      "mesh" : 0
    }
  ],
  "materials" : [
    {
      "name" : "ObjMI_Tree_D",
      "pbrMetallicRoughness" : {
        "baseColorFactor" : [ 0.3, 0.3, 0.3, 1.0 ],
        "metallicFactor" : 0.1,
        "roughnessFactor" : 0.5
      }
    }
  ],
  "meshes" : [
    {
      "primitives" : [
        {
          "attributes" : {
            "POSITION" : 1,
            "NORMAL" : 2,
            "TANGENT" : 3,
            "COLOR_0" : 4,
            "TEXCOORD_0" : 5,
            "TEXCOORD_1" : 6
          },
          "indices" : 0,
          "material" : 0
        }
      ],
      "name" : "ObjMD_Tree_D"
    }
  ],
  "buffers" : [
    {
      "uri" : "ObjMD_Tree_D.bin",
      "byteLength" : 21464
    }
  ],
  "bufferViews" : [
    {
      "buffer" : 0,
      "byteOffset" : 0,
      "byteLength" : 1904
    },
    {
      "buffer" : 0,
      "byteOffset" : 1904,
      "byteLength" : 3912
    },
    {
      "buffer" : 0,
      "byteOffset" : 5816,
      "byteLength" : 3912
    },
    {
      "buffer" : 0,
      "byteOffset" : 9728,
      "byteLength" : 5216
    },
    {
      "buffer" : 0,
      "byteOffset" : 14944,
      "byteLength" : 1304
    },
    {
      "buffer" : 0,
      "byteOffset" : 16248,
      "byteLength" : 2608
    },
    {
      "buffer" : 0,
      "byteOffset" : 18856,
      "byteLength" : 2608
    }
  ],
  "accessors" : [
    {
      "bufferView" : 0,
      "componentType" : 5123,
      "count" : 951,
      "type" : "SCALAR"
    },
    {
      "bufferView" : 1,
      "min" : [ -0.287012, -1.14811e-17, -0.983033 ],
      "max" : [ 0.380587, 4.41238, 1.35796 ],
      "componentType" : 5126,
      "count" : 326,
      "type" : "VEC3"
    },
    {
      "bufferView" : 2,
      "componentType" : 5126,
      "count" : 326,
      "type" : "VEC3"
    },
    {
      "bufferView" : 3,
      "componentType" : 5126,
      "count" : 326,
      "type" : "VEC4"
    },
    {
      "bufferView" : 4,
      "normalized" : true,
      "componentType" : 5121,
      "count" : 326,
      "type" : "VEC4"
    },
    {
      "bufferView" : 5,
      "componentType" : 5126,
      "count" : 326,
      "type" : "VEC2"
    },
    {
      "bufferView" : 6,
      "componentType" : 5126,
      "count" : 326,
      "type" : "VEC2"
    }
  ]
}
