{
  "asset" : {
    "generator" : "UE Viewer (umodel) build 1590",
    "version" : "2.0"
  },
  "scene" : 0,
  "scenes" : [
    {
      "nodes" : [ 0 ]
    }
  ],
  "nodes" : [
    {
      "name" : "ObjMD_Tree_Plain_A",
      "mesh" : 0
    }
  ],
  "materials" : [
    {
      "name" : "ObjMI_Tree_Plain_A",
      "pbrMetallicRoughness" : {
        "baseColorFactor" : [ 0.3, 0.3, 0.3, 1.0 ],
        "metallicFactor" : 0.1,
        "roughnessFactor" : 0.5
      }
    }
  ],
  "meshes" : [
    {
      "primitives" : [
        {
          "attributes" : {
            "POSITION" : 1,
            "NORMAL" : 2,
            "TANGENT" : 3,
            "COLOR_0" : 4,
            "TEXCOORD_0" : 5,
            "TEXCOORD_1" : 6
          },
          "indices" : 0,
          "material" : 0
        }
      ],
      "name" : "ObjMD_Tree_Plain_A"
    }
  ],
  "buffers" : [
    {
      "uri" : "ObjMD_Tree_Plain_A.bin",
      "byteLength" : 410292
    }
  ],
  "bufferViews" : [
    {
      "buffer" : 0,
      "byteOffset" : 0,
      "byteLength" : 34572
    },
    {
      "buffer" : 0,
      "byteOffset" : 34572,
      "byteLength" : 75144
    },
    {
      "buffer" : 0,
      "byteOffset" : 109716,
      "byteLength" : 75144
    },
    {
      "buffer" : 0,
      "byteOffset" : 184860,
      "byteLength" : 100192
    },
    {
      "buffer" : 0,
      "byteOffset" : 285052,
      "byteLength" : 25048
    },
    {
      "buffer" : 0,
      "byteOffset" : 310100,
      "byteLength" : 50096
    },
    {
      "buffer" : 0,
      "byteOffset" : 360196,
      "byteLength" : 50096
    }
  ],
  "accessors" : [
    {
      "bufferView" : 0,
      "componentType" : 5123,
      "count" : 17286,
      "type" : "SCALAR"
    },
    {
      "bufferView" : 1,
      "min" : [ -0.295992, -1.50031e-17, -2.25328 ],
      "max" : [ 0.811929, 6, 2.18255 ],
      "componentType" : 5126,
      "count" : 6262,
      "type" : "VEC3"
    },
    {
      "bufferView" : 2,
      "componentType" : 5126,
      "count" : 6262,
      "type" : "VEC3"
    },
    {
      "bufferView" : 3,
      "componentType" : 5126,
      "count" : 6262,
      "type" : "VEC4"
    },
    {
      "bufferView" : 4,
      "normalized" : true,
      "componentType" : 5121,
      "count" : 6262,
      "type" : "VEC4"
    },
    {
      "bufferView" : 5,
      "componentType" : 5126,
      "count" : 6262,
      "type" : "VEC2"
    },
    {
      "bufferView" : 6,
      "componentType" : 5126,
      "count" : 6262,
      "type" : "VEC2"
    }
  ]
}
