{
  "asset" : {
    "generator" : "UE Viewer (umodel) build 1590",
    "version" : "2.0"
  },
  "scene" : 0,
  "scenes" : [
    {
      "nodes" : [ 0 ]
    }
  ],
  "nodes" : [
    {
      "name" : "ObjMD_Tree_Snow_B",
      "mesh" : 0
    }
  ],
  "materials" : [
    {
      "name" : "ObjMI_Tree_Snow_B",
      "pbrMetallicRoughness" : {
        "baseColorFactor" : [ 0.3, 0.3, 0.3, 1.0 ],
        "metallicFactor" : 0.1,
        "roughnessFactor" : 0.5
      }
    }
  ],
  "meshes" : [
    {
      "primitives" : [
        {
          "attributes" : {
            "POSITION" : 1,
            "NORMAL" : 2,
            "TANGENT" : 3,
            "COLOR_0" : 4,
            "TEXCOORD_0" : 5,
            "TEXCOORD_1" : 6
          },
          "indices" : 0,
          "material" : 0
        }
      ],
      "name" : "ObjMD_Tree_Snow_B"
    }
  ],
  "buffers" : [
    {
      "uri" : "ObjMD_Tree_Snow_B.bin",
      "byteLength" : 204896
    }
  ],
  "bufferViews" : [
    {
      "buffer" : 0,
      "byteOffset" : 0,
      "byteLength" : 13016
    },
    {
      "buffer" : 0,
      "byteOffset" : 13016,
      "byteLength" : 38376
    },
    {
      "buffer" : 0,
      "byteOffset" : 51392,
      "byteLength" : 38376
    },
    {
      "buffer" : 0,
      "byteOffset" : 89768,
      "byteLength" : 51168
    },
    {
      "buffer" : 0,
      "byteOffset" : 140936,
      "byteLength" : 12792
    },
    {
      "buffer" : 0,
      "byteOffset" : 153728,
      "byteLength" : 25584
    },
    {
      "buffer" : 0,
      "byteOffset" : 179312,
      "byteLength" : 25584
    }
  ],
  "accessors" : [
    {
      "bufferView" : 0,
      "componentType" : 5123,
      "count" : 6507,
      "type" : "SCALAR"
    },
    {
      "bufferView" : 1,
      "min" : [ -0.1875, -3.82702e-18, -1.77299 ],
      "max" : [ 0.853383, 5.9375, 1.77299 ],
      "componentType" : 5126,
      "count" : 3198,
      "type" : "VEC3"
    },
    {
      "bufferView" : 2,
      "componentType" : 5126,
      "count" : 3198,
      "type" : "VEC3"
    },
    {
      "bufferView" : 3,
      "componentType" : 5126,
      "count" : 3198,
      "type" : "VEC4"
    },
    {
      "bufferView" : 4,
      "normalized" : true,
      "componentType" : 5121,
      "count" : 3198,
      "type" : "VEC4"
    },
    {
      "bufferView" : 5,
      "componentType" : 5126,
      "count" : 3198,
      "type" : "VEC2"
    },
    {
      "bufferView" : 6,
      "componentType" : 5126,
      "count" : 3198,
      "type" : "VEC2"
    }
  ]
}
