{
  "asset" : {
    "generator" : "UE Viewer (umodel) build 1590",
    "version" : "2.0"
  },
  "scene" : 0,
  "scenes" : [
    {
      "nodes" : [ 0 ]
    }
  ],
  "nodes" : [
    {
      "name" : "ObjMD_Tree_Plain_A_HiWind",
      "mesh" : 0
    }
  ],
  "materials" : [
    {
      "name" : "ObjMI_Tree_Plain_A_HiWind",
      "pbrMetallicRoughness" : {
        "baseColorFactor" : [ 0.3, 0.3, 0.3, 1.0 ],
        "metallicFactor" : 0.1,
        "roughnessFactor" : 0.5
      }
    }
  ],
  "meshes" : [
    {
      "primitives" : [
        {
          "attributes" : {
            "POSITION" : 1,
            "NORMAL" : 2,
            "TANGENT" : 3,
            "COLOR_0" : 4,
            "TEXCOORD_0" : 5,
            "TEXCOORD_1" : 6
          },
          "indices" : 0,
          "material" : 0
        }
      ],
      "name" : "ObjMD_Tree_Plain_A_HiWind"
    }
  ],
  "buffers" : [
    {
      "uri" : "ObjMD_Tree_Plain_A_HiWind.bin",
      "byteLength" : 374624
    }
  ],
  "bufferViews" : [
    {
      "buffer" : 0,
      "byteOffset" : 0,
      "byteLength" : 31484
    },
    {
      "buffer" : 0,
      "byteOffset" : 31484,
      "byteLength" : 68628
    },
    {
      "buffer" : 0,
      "byteOffset" : 100112,
      "byteLength" : 68628
    },
    {
      "buffer" : 0,
      "byteOffset" : 168740,
      "byteLength" : 91504
    },
    {
      "buffer" : 0,
      "byteOffset" : 260244,
      "byteLength" : 22876
    },
    {
      "buffer" : 0,
      "byteOffset" : 283120,
      "byteLength" : 45752
    },
    {
      "buffer" : 0,
      "byteOffset" : 328872,
      "byteLength" : 45752
    }
  ],
  "accessors" : [
    {
      "bufferView" : 0,
      "componentType" : 5123,
      "count" : 15741,
      "type" : "SCALAR"
    },
    {
      "bufferView" : 1,
      "min" : [ -0.295992, -1.50031e-17, -2.25328 ],
      "max" : [ 0.811929, 6, 2.18255 ],
      "componentType" : 5126,
      "count" : 5719,
      "type" : "VEC3"
    },
    {
      "bufferView" : 2,
      "componentType" : 5126,
      "count" : 5719,
      "type" : "VEC3"
    },
    {
      "bufferView" : 3,
      "componentType" : 5126,
      "count" : 5719,
      "type" : "VEC4"
    },
    {
      "bufferView" : 4,
      "normalized" : true,
      "componentType" : 5121,
      "count" : 5719,
      "type" : "VEC4"
    },
    {
      "bufferView" : 5,
      "componentType" : 5126,
      "count" : 5719,
      "type" : "VEC2"
    },
    {
      "bufferView" : 6,
      "componentType" : 5126,
      "count" : 5719,
      "type" : "VEC2"
    }
  ]
}
