{
  "asset" : {
    "generator" : "UE Viewer (umodel) build 1590",
    "version" : "2.0"
  },
  "scene" : 0,
  "scenes" : [
    {
      "nodes" : [ 0 ]
    }
  ],
  "nodes" : [
    {
      "name" : "ObjMD_Tree_G_HiWind",
      "mesh" : 0
    }
  ],
  "materials" : [
    {
      "name" : "ObjMI_Tree_G_HiWind",
      "pbrMetallicRoughness" : {
        "baseColorFactor" : [ 0.3, 0.3, 0.3, 1.0 ],
        "metallicFactor" : 0.1,
        "roughnessFactor" : 0.5
      }
    }
  ],
  "meshes" : [
    {
      "primitives" : [
        {
          "attributes" : {
            "POSITION" : 1,
            "NORMAL" : 2,
            "TANGENT" : 3,
            "COLOR_0" : 4,
            "TEXCOORD_0" : 5,
            "TEXCOORD_1" : 6
          },
          "indices" : 0,
          "material" : 0
        }
      ],
      "name" : "ObjMD_Tree_G_HiWind"
    }
  ],
  "buffers" : [
    {
      "uri" : "ObjMD_Tree_G_HiWind.bin",
      "byteLength" : 25260
    }
  ],
  "bufferViews" : [
    {
      "buffer" : 0,
      "byteOffset" : 0,
      "byteLength" : 2220
    },
    {
      "buffer" : 0,
      "byteOffset" : 2220,
      "byteLength" : 4608
    },
    {
      "buffer" : 0,
      "byteOffset" : 6828,
      "byteLength" : 4608
    },
    {
      "buffer" : 0,
      "byteOffset" : 11436,
      "byteLength" : 6144
    },
    {
      "buffer" : 0,
      "byteOffset" : 17580,
      "byteLength" : 1536
    },
    {
      "buffer" : 0,
      "byteOffset" : 19116,
      "byteLength" : 3072
    },
    {
      "buffer" : 0,
      "byteOffset" : 22188,
      "byteLength" : 3072
    }
  ],
  "accessors" : [
    {
      "bufferView" : 0,
      "componentType" : 5123,
      "count" : 1110,
      "type" : "SCALAR"
    },
    {
      "bufferView" : 1,
      "min" : [ -1.13451e-15, 1.11916e-16, -1.96875 ],
      "max" : [ 1.15533e-15, 3.875, 1.96875 ],
      "componentType" : 5126,
      "count" : 384,
      "type" : "VEC3"
    },
    {
      "bufferView" : 2,
      "componentType" : 5126,
      "count" : 384,
      "type" : "VEC3"
    },
    {
      "bufferView" : 3,
      "componentType" : 5126,
      "count" : 384,
      "type" : "VEC4"
    },
    {
      "bufferView" : 4,
      "normalized" : true,
      "componentType" : 5121,
      "count" : 384,
      "type" : "VEC4"
    },
    {
      "bufferView" : 5,
      "componentType" : 5126,
      "count" : 384,
      "type" : "VEC2"
    },
    {
      "bufferView" : 6,
      "componentType" : 5126,
      "count" : 384,
      "type" : "VEC2"
    }
  ]
}
