{
  "asset" : {
    "generator" : "UE Viewer (umodel) build 1590",
    "version" : "2.0"
  },
  "scene" : 0,
  "scenes" : [
    {
      "nodes" : [ 0 ]
    }
  ],
  "nodes" : [
    {
      "name" : "ObjMD_Tree_Plain_A_HiWind_Lod1",
      "mesh" : 0
    }
  ],
  "materials" : [
    {
      "name" : "ObjMI_Tree_Plain_A_HiWind",
      "pbrMetallicRoughness" : {
        "baseColorFactor" : [ 0.3, 0.3, 0.3, 1.0 ],
        "metallicFactor" : 0.1,
        "roughnessFactor" : 0.5
      }
    }
  ],
  "meshes" : [
    {
      "primitives" : [
        {
          "attributes" : {
            "POSITION" : 1,
            "NORMAL" : 2,
            "TANGENT" : 3,
            "COLOR_0" : 4,
            "TEXCOORD_0" : 5,
            "TEXCOORD_1" : 6
          },
          "indices" : 0,
          "material" : 0
        }
      ],
      "name" : "ObjMD_Tree_Plain_A_HiWind_Lod1"
    }
  ],
  "buffers" : [
    {
      "uri" : "ObjMD_Tree_Plain_A_HiWind_Lod1.bin",
      "byteLength" : 18824
    }
  ],
  "bufferViews" : [
    {
      "buffer" : 0,
      "byteOffset" : 0,
      "byteLength" : 1724
    },
    {
      "buffer" : 0,
      "byteOffset" : 1724,
      "byteLength" : 3420
    },
    {
      "buffer" : 0,
      "byteOffset" : 5144,
      "byteLength" : 3420
    },
    {
      "buffer" : 0,
      "byteOffset" : 8564,
      "byteLength" : 4560
    },
    {
      "buffer" : 0,
      "byteOffset" : 13124,
      "byteLength" : 1140
    },
    {
      "buffer" : 0,
      "byteOffset" : 14264,
      "byteLength" : 2280
    },
    {
      "buffer" : 0,
      "byteOffset" : 16544,
      "byteLength" : 2280
    }
  ],
  "accessors" : [
    {
      "bufferView" : 0,
      "componentType" : 5123,
      "count" : 861,
      "type" : "SCALAR"
    },
    {
      "bufferView" : 1,
      "min" : [ -0.0161264, -1.50031e-17, -2.20006 ],
      "max" : [ 0.0161263, 6, 2.12954 ],
      "componentType" : 5126,
      "count" : 285,
      "type" : "VEC3"
    },
    {
      "bufferView" : 2,
      "componentType" : 5126,
      "count" : 285,
      "type" : "VEC3"
    },
    {
      "bufferView" : 3,
      "componentType" : 5126,
      "count" : 285,
      "type" : "VEC4"
    },
    {
      "bufferView" : 4,
      "normalized" : true,
      "componentType" : 5121,
      "count" : 285,
      "type" : "VEC4"
    },
    {
      "bufferView" : 5,
      "componentType" : 5126,
      "count" : 285,
      "type" : "VEC2"
    },
    {
      "bufferView" : 6,
      "componentType" : 5126,
      "count" : 285,
      "type" : "VEC2"
    }
  ]
}
