{
  "asset" : {
    "generator" : "UE Viewer (umodel) build 1590",
    "version" : "2.0"
  },
  "scene" : 0,
  "scenes" : [
    {
      "nodes" : [ 0 ]
    }
  ],
  "nodes" : [
    {
      "name" : "ObjMD_Tree_Sea_B",
      "mesh" : 0
    }
  ],
  "materials" : [
    {
      "name" : "ObjMI_Tree_Sea_B",
      "pbrMetallicRoughness" : {
        "baseColorFactor" : [ 0.3, 0.3, 0.3, 1.0 ],
        "metallicFactor" : 0.1,
        "roughnessFactor" : 0.5
      }
    },
    {
      "name" : "ObjMI_Tree_Sea_B_wind",
      "pbrMetallicRoughness" : {
        "baseColorFactor" : [ 0.9, 0.3, 0.3, 1.0 ],
        "metallicFactor" : 0.1,
        "roughnessFactor" : 0.5
      }
    }
  ],
  "meshes" : [
    {
      "primitives" : [
        {
          "attributes" : {
            "POSITION" : 1,
            "NORMAL" : 2,
            "TANGENT" : 3,
            "TEXCOORD_0" : 4,
            "TEXCOORD_1" : 5
          },
          "indices" : 0,
          "material" : 0
        },
        {
          "attributes" : {
            "POSITION" : 7,
            "NORMAL" : 8,
            "TANGENT" : 9,
            "TEXCOORD_0" : 10,
            "TEXCOORD_1" : 11
          },
          "indices" : 6,
          "material" : 1
        }
      ],
      "name" : "ObjMD_Tree_Sea_B"
    }
  ],
  "buffers" : [
    {
      "uri" : "ObjMD_Tree_Sea_B.bin",
      "byteLength" : 51772
    }
  ],
  "bufferViews" : [
    {
      "buffer" : 0,
      "byteOffset" : 0,
      "byteLength" : 860
    },
    {
      "buffer" : 0,
      "byteOffset" : 860,
      "byteLength" : 1764
    },
    {
      "buffer" : 0,
      "byteOffset" : 2624,
      "byteLength" : 1764
    },
    {
      "buffer" : 0,
      "byteOffset" : 4388,
      "byteLength" : 2352
    },
    {
      "buffer" : 0,
      "byteOffset" : 6740,
      "byteLength" : 1176
    },
    {
      "buffer" : 0,
      "byteOffset" : 7916,
      "byteLength" : 1176
    },
    {
      "buffer" : 0,
      "byteOffset" : 9092,
      "byteLength" : 4208
    },
    {
      "buffer" : 0,
      "byteOffset" : 13300,
      "byteLength" : 8244
    },
    {
      "buffer" : 0,
      "byteOffset" : 21544,
      "byteLength" : 8244
    },
    {
      "buffer" : 0,
      "byteOffset" : 29788,
      "byteLength" : 10992
    },
    {
      "buffer" : 0,
      "byteOffset" : 40780,
      "byteLength" : 5496
    },
    {
      "buffer" : 0,
      "byteOffset" : 46276,
      "byteLength" : 5496
    }
  ],
  "accessors" : [
    {
      "bufferView" : 0,
      "componentType" : 5123,
      "count" : 429,
      "type" : "SCALAR"
    },
    {
      "bufferView" : 1,
      "min" : [ -0, -1.32477e-17, -0.5625 ],
      "max" : [ -0, 2.875, 0.5625 ],
      "componentType" : 5126,
      "count" : 147,
      "type" : "VEC3"
    },
    {
      "bufferView" : 2,
      "componentType" : 5126,
      "count" : 147,
      "type" : "VEC3"
    },
    {
      "bufferView" : 3,
      "componentType" : 5126,
      "count" : 147,
      "type" : "VEC4"
    },
    {
      "bufferView" : 4,
      "componentType" : 5126,
      "count" : 147,
      "type" : "VEC2"
    },
    {
      "bufferView" : 5,
      "componentType" : 5126,
      "count" : 147,
      "type" : "VEC2"
    },
    {
      "bufferView" : 6,
      "componentType" : 5123,
      "count" : 2103,
      "type" : "SCALAR"
    },
    {
      "bufferView" : 7,
      "min" : [ -0.375, 0.625, -0.6875 ],
      "max" : [ 0.5625, 3.3125, 0.6875 ],
      "componentType" : 5126,
      "count" : 687,
      "type" : "VEC3"
    },
    {
      "bufferView" : 8,
      "componentType" : 5126,
      "count" : 687,
      "type" : "VEC3"
    },
    {
      "bufferView" : 9,
      "componentType" : 5126,
      "count" : 687,
      "type" : "VEC4"
    },
    {
      "bufferView" : 10,
      "componentType" : 5126,
      "count" : 687,
      "type" : "VEC2"
    },
    {
      "bufferView" : 11,
      "componentType" : 5126,
      "count" : 687,
      "type" : "VEC2"
    }
  ]
}
