{
  "asset" : {
    "generator" : "UE Viewer (umodel) build 1590",
    "version" : "2.0"
  },
  "scene" : 0,
  "scenes" : [
    {
      "nodes" : [ 0 ]
    }
  ],
  "nodes" : [
    {
      "name" : "ObjMD_Tree_Snow_A_Lod2",
      "mesh" : 0
    }
  ],
  "materials" : [
    {
      "name" : "ObjMI_Tree_Snow_A",
      "pbrMetallicRoughness" : {
        "baseColorFactor" : [ 0.3, 0.3, 0.3, 1.0 ],
        "metallicFactor" : 0.1,
        "roughnessFactor" : 0.5
      }
    }
  ],
  "meshes" : [
    {
      "primitives" : [
        {
          "attributes" : {
            "POSITION" : 1,
            "NORMAL" : 2,
            "TANGENT" : 3,
            "COLOR_0" : 4,
            "TEXCOORD_0" : 5,
            "TEXCOORD_1" : 6
          },
          "indices" : 0,
          "material" : 0
        }
      ],
      "name" : "ObjMD_Tree_Snow_A_Lod2"
    }
  ],
  "buffers" : [
    {
      "uri" : "ObjMD_Tree_Snow_A_Lod2.bin",
      "byteLength" : 57312
    }
  ],
  "bufferViews" : [
    {
      "buffer" : 0,
      "byteOffset" : 0,
      "byteLength" : 3252
    },
    {
      "buffer" : 0,
      "byteOffset" : 3252,
      "byteLength" : 10812
    },
    {
      "buffer" : 0,
      "byteOffset" : 14064,
      "byteLength" : 10812
    },
    {
      "buffer" : 0,
      "byteOffset" : 24876,
      "byteLength" : 14416
    },
    {
      "buffer" : 0,
      "byteOffset" : 39292,
      "byteLength" : 3604
    },
    {
      "buffer" : 0,
      "byteOffset" : 42896,
      "byteLength" : 7208
    },
    {
      "buffer" : 0,
      "byteOffset" : 50104,
      "byteLength" : 7208
    }
  ],
  "accessors" : [
    {
      "bufferView" : 0,
      "componentType" : 5123,
      "count" : 1626,
      "type" : "SCALAR"
    },
    {
      "bufferView" : 1,
      "min" : [ -0.18885, -3.82702e-18, -1.7262 ],
      "max" : [ 0.853383, 5.9375, 1.72697 ],
      "componentType" : 5126,
      "count" : 901,
      "type" : "VEC3"
    },
    {
      "bufferView" : 2,
      "componentType" : 5126,
      "count" : 901,
      "type" : "VEC3"
    },
    {
      "bufferView" : 3,
      "componentType" : 5126,
      "count" : 901,
      "type" : "VEC4"
    },
    {
      "bufferView" : 4,
      "normalized" : true,
      "componentType" : 5121,
      "count" : 901,
      "type" : "VEC4"
    },
    {
      "bufferView" : 5,
      "componentType" : 5126,
      "count" : 901,
      "type" : "VEC2"
    },
    {
      "bufferView" : 6,
      "componentType" : 5126,
      "count" : 901,
      "type" : "VEC2"
    }
  ]
}
