{
  "asset" : {
    "generator" : "UE Viewer (umodel) build 1590",
    "version" : "2.0"
  },
  "scene" : 0,
  "scenes" : [
    {
      "nodes" : [ 0 ]
    }
  ],
  "nodes" : [
    {
      "name" : "ObjMD_Tree_Plain_Low_B",
      "mesh" : 0
    }
  ],
  "materials" : [
    {
      "name" : "ObjMI_Tree_Plain_Low_B",
      "pbrMetallicRoughness" : {
        "baseColorFactor" : [ 0.3, 0.3, 0.3, 1.0 ],
        "metallicFactor" : 0.1,
        "roughnessFactor" : 0.5
      }
    }
  ],
  "meshes" : [
    {
      "primitives" : [
        {
          "attributes" : {
            "POSITION" : 1,
            "NORMAL" : 2,
            "TANGENT" : 3,
            "TEXCOORD_0" : 4
          },
          "indices" : 0,
          "material" : 0
        }
      ],
      "name" : "ObjMD_Tree_Plain_Low_B"
    }
  ],
  "buffers" : [
    {
      "uri" : "ObjMD_Tree_Plain_Low_B.bin",
      "byteLength" : 5564
    }
  ],
  "bufferViews" : [
    {
      "buffer" : 0,
      "byteOffset" : 0,
      "byteLength" : 764
    },
    {
      "buffer" : 0,
      "byteOffset" : 764,
      "byteLength" : 1200
    },
    {
      "buffer" : 0,
      "byteOffset" : 1964,
      "byteLength" : 1200
    },
    {
      "buffer" : 0,
      "byteOffset" : 3164,
      "byteLength" : 1600
    },
    {
      "buffer" : 0,
      "byteOffset" : 4764,
      "byteLength" : 800
    }
  ],
  "accessors" : [
    {
      "bufferView" : 0,
      "componentType" : 5123,
      "count" : 381,
      "type" : "SCALAR"
    },
    {
      "bufferView" : 1,
      "min" : [ -0.118882, -1.53081e-17, -0.8125 ],
      "max" : [ 0.118882, 1.4375, 0.875 ],
      "componentType" : 5126,
      "count" : 100,
      "type" : "VEC3"
    },
    {
      "bufferView" : 2,
      "componentType" : 5126,
      "count" : 100,
      "type" : "VEC3"
    },
    {
      "bufferView" : 3,
      "componentType" : 5126,
      "count" : 100,
      "type" : "VEC4"
    },
    {
      "bufferView" : 4,
      "componentType" : 5126,
      "count" : 100,
      "type" : "VEC2"
    }
  ]
}
