{
  "asset" : {
    "generator" : "UE Viewer (umodel) build 1590",
    "version" : "2.0"
  },
  "scene" : 0,
  "scenes" : [
    {
      "nodes" : [ 0 ]
    }
  ],
  "nodes" : [
    {
      "name" : "ObjMD_Tree_Plain_Low_A",
      "mesh" : 0
    }
  ],
  "materials" : [
    {
      "name" : "ObjMI_Tree_Plain_Low_A",
      "pbrMetallicRoughness" : {
        "baseColorFactor" : [ 0.3, 0.3, 0.3, 1.0 ],
        "metallicFactor" : 0.1,
        "roughnessFactor" : 0.5
      }
    }
  ],
  "meshes" : [
    {
      "primitives" : [
        {
          "attributes" : {
            "POSITION" : 1,
            "NORMAL" : 2,
            "TANGENT" : 3,
            "TEXCOORD_0" : 4,
            "TEXCOORD_1" : 5
          },
          "indices" : 0,
          "material" : 0
        }
      ],
      "name" : "ObjMD_Tree_Plain_Low_A"
    }
  ],
  "buffers" : [
    {
      "uri" : "ObjMD_Tree_Plain_Low_A.bin",
      "byteLength" : 2436
    }
  ],
  "bufferViews" : [
    {
      "buffer" : 0,
      "byteOffset" : 0,
      "byteLength" : 252
    },
    {
      "buffer" : 0,
      "byteOffset" : 252,
      "byteLength" : 468
    },
    {
      "buffer" : 0,
      "byteOffset" : 720,
      "byteLength" : 468
    },
    {
      "buffer" : 0,
      "byteOffset" : 1188,
      "byteLength" : 624
    },
    {
      "buffer" : 0,
      "byteOffset" : 1812,
      "byteLength" : 312
    },
    {
      "buffer" : 0,
      "byteOffset" : 2124,
      "byteLength" : 312
    }
  ],
  "accessors" : [
    {
      "bufferView" : 0,
      "componentType" : 5123,
      "count" : 126,
      "type" : "SCALAR"
    },
    {
      "bufferView" : 1,
      "min" : [ -0.178122, -0.00117256, -0.500444 ],
      "max" : [ 0.00650727, 0.999896, 0.500708 ],
      "componentType" : 5126,
      "count" : 39,
      "type" : "VEC3"
    },
    {
      "bufferView" : 2,
      "componentType" : 5126,
      "count" : 39,
      "type" : "VEC3"
    },
    {
      "bufferView" : 3,
      "componentType" : 5126,
      "count" : 39,
      "type" : "VEC4"
    },
    {
      "bufferView" : 4,
      "componentType" : 5126,
      "count" : 39,
      "type" : "VEC2"
    },
    {
      "bufferView" : 5,
      "componentType" : 5126,
      "count" : 39,
      "type" : "VEC2"
    }
  ]
}
