{
  "asset" : {
    "generator" : "UE Viewer (umodel) build 1590",
    "version" : "2.0"
  },
  "scene" : 0,
  "scenes" : [
    {
      "nodes" : [ 0 ]
    }
  ],
  "nodes" : [
    {
      "name" : "ObjMD_Tree_Forest_A_Snow_HiWind_Lod1",
      "mesh" : 0
    }
  ],
  "materials" : [
    {
      "name" : "ObjMI_Tree_Forest_A_Snow_lod_HiWind",
      "pbrMetallicRoughness" : {
        "baseColorFactor" : [ 0.3, 0.3, 0.3, 1.0 ],
        "metallicFactor" : 0.1,
        "roughnessFactor" : 0.5
      }
    }
  ],
  "meshes" : [
    {
      "primitives" : [
        {
          "attributes" : {
            "POSITION" : 1,
            "NORMAL" : 2,
            "TANGENT" : 3,
            "COLOR_0" : 4,
            "TEXCOORD_0" : 5,
            "TEXCOORD_1" : 6
          },
          "indices" : 0,
          "material" : 0
        }
      ],
      "name" : "ObjMD_Tree_Forest_A_Snow_HiWind_Lod1"
    }
  ],
  "buffers" : [
    {
      "uri" : "ObjMD_Tree_Forest_A_Snow_HiWind_Lod1.bin",
      "byteLength" : 650844
    }
  ],
  "bufferViews" : [
    {
      "buffer" : 0,
      "byteOffset" : 0,
      "byteLength" : 58344
    },
    {
      "buffer" : 0,
      "byteOffset" : 58344,
      "byteLength" : 118500
    },
    {
      "buffer" : 0,
      "byteOffset" : 176844,
      "byteLength" : 118500
    },
    {
      "buffer" : 0,
      "byteOffset" : 295344,
      "byteLength" : 158000
    },
    {
      "buffer" : 0,
      "byteOffset" : 453344,
      "byteLength" : 39500
    },
    {
      "buffer" : 0,
      "byteOffset" : 492844,
      "byteLength" : 79000
    },
    {
      "buffer" : 0,
      "byteOffset" : 571844,
      "byteLength" : 79000
    }
  ],
  "accessors" : [
    {
      "bufferView" : 0,
      "componentType" : 5123,
      "count" : 29172,
      "type" : "SCALAR"
    },
    {
      "bufferView" : 1,
      "min" : [ -1.31382, -4.47991e-17, -3.39646 ],
      "max" : [ 0.698706, 15, 3.61951 ],
      "componentType" : 5126,
      "count" : 9875,
      "type" : "VEC3"
    },
    {
      "bufferView" : 2,
      "componentType" : 5126,
      "count" : 9875,
      "type" : "VEC3"
    },
    {
      "bufferView" : 3,
      "componentType" : 5126,
      "count" : 9875,
      "type" : "VEC4"
    },
    {
      "bufferView" : 4,
      "normalized" : true,
      "componentType" : 5121,
      "count" : 9875,
      "type" : "VEC4"
    },
    {
      "bufferView" : 5,
      "componentType" : 5126,
      "count" : 9875,
      "type" : "VEC2"
    },
    {
      "bufferView" : 6,
      "componentType" : 5126,
      "count" : 9875,
      "type" : "VEC2"
    }
  ]
}
