{
  "asset" : {
    "generator" : "UE Viewer (umodel) build 1590",
    "version" : "2.0"
  },
  "scene" : 0,
  "scenes" : [
    {
      "nodes" : [ 0 ]
    }
  ],
  "nodes" : [
    {
      "name" : "ObjMD_Tree_Forest_A_Town",
      "mesh" : 0
    }
  ],
  "materials" : [
    {
      "name" : "ObjMI_Tree_Forest_A_Town",
      "pbrMetallicRoughness" : {
        "baseColorFactor" : [ 0.3, 0.3, 0.3, 1.0 ],
        "metallicFactor" : 0.1,
        "roughnessFactor" : 0.5
      }
    }
  ],
  "meshes" : [
    {
      "primitives" : [
        {
          "attributes" : {
            "POSITION" : 1,
            "NORMAL" : 2,
            "TANGENT" : 3,
            "COLOR_0" : 4,
            "TEXCOORD_0" : 5
          },
          "indices" : 0,
          "material" : 0
        }
      ],
      "name" : "ObjMD_Tree_Forest_A_Town"
    }
  ],
  "buffers" : [
    {
      "uri" : "ObjMD_Tree_Forest_A_Town.bin",
      "byteLength" : 88944
    }
  ],
  "bufferViews" : [
    {
      "buffer" : 0,
      "byteOffset" : 0,
      "byteLength" : 9384
    },
    {
      "buffer" : 0,
      "byteOffset" : 9384,
      "byteLength" : 18360
    },
    {
      "buffer" : 0,
      "byteOffset" : 27744,
      "byteLength" : 18360
    },
    {
      "buffer" : 0,
      "byteOffset" : 46104,
      "byteLength" : 24480
    },
    {
      "buffer" : 0,
      "byteOffset" : 70584,
      "byteLength" : 6120
    },
    {
      "buffer" : 0,
      "byteOffset" : 76704,
      "byteLength" : 12240
    }
  ],
  "accessors" : [
    {
      "bufferView" : 0,
      "componentType" : 5123,
      "count" : 4692,
      "type" : "SCALAR"
    },
    {
      "bufferView" : 1,
      "min" : [ -5.90086e-08, -7.00408e-16, -3.23544 ],
      "max" : [ 1.01447e-06, 14.9001, 3.66116 ],
      "componentType" : 5126,
      "count" : 1530,
      "type" : "VEC3"
    },
    {
      "bufferView" : 2,
      "componentType" : 5126,
      "count" : 1530,
      "type" : "VEC3"
    },
    {
      "bufferView" : 3,
      "componentType" : 5126,
      "count" : 1530,
      "type" : "VEC4"
    },
    {
      "bufferView" : 4,
      "normalized" : true,
      "componentType" : 5121,
      "count" : 1530,
      "type" : "VEC4"
    },
    {
      "bufferView" : 5,
      "componentType" : 5126,
      "count" : 1530,
      "type" : "VEC2"
    }
  ]
}
