{
  "asset" : {
    "generator" : "UE Viewer (umodel) build 1590",
    "version" : "2.0"
  },
  "scene" : 0,
  "scenes" : [
    {
      "nodes" : [ 0 ]
    }
  ],
  "nodes" : [
    {
      "name" : "ObjMD_Tree_Low_A",
      "mesh" : 0
    }
  ],
  "materials" : [
    {
      "name" : "ObjMI_Tree_Low_A",
      "pbrMetallicRoughness" : {
        "baseColorFactor" : [ 0.3, 0.3, 0.3, 1.0 ],
        "metallicFactor" : 0.1,
        "roughnessFactor" : 0.5
      }
    }
  ],
  "meshes" : [
    {
      "primitives" : [
        {
          "attributes" : {
            "POSITION" : 1,
            "NORMAL" : 2,
            "TANGENT" : 3,
            "TEXCOORD_0" : 4,
            "TEXCOORD_1" : 5
          },
          "indices" : 0,
          "material" : 0
        }
      ],
      "name" : "ObjMD_Tree_Low_A"
    }
  ],
  "buffers" : [
    {
      "uri" : "ObjMD_Tree_Low_A.bin",
      "byteLength" : 14820
    }
  ],
  "bufferViews" : [
    {
      "buffer" : 0,
      "byteOffset" : 0,
      "byteLength" : 1604
    },
    {
      "buffer" : 0,
      "byteOffset" : 1604,
      "byteLength" : 2832
    },
    {
      "buffer" : 0,
      "byteOffset" : 4436,
      "byteLength" : 2832
    },
    {
      "buffer" : 0,
      "byteOffset" : 7268,
      "byteLength" : 3776
    },
    {
      "buffer" : 0,
      "byteOffset" : 11044,
      "byteLength" : 1888
    },
    {
      "buffer" : 0,
      "byteOffset" : 12932,
      "byteLength" : 1888
    }
  ],
  "accessors" : [
    {
      "bufferView" : 0,
      "componentType" : 5123,
      "count" : 801,
      "type" : "SCALAR"
    },
    {
      "bufferView" : 1,
      "min" : [ -1.49186e-16, 1.27294e-16, -0.9375 ],
      "max" : [ 7.11237e-16, 1.8125, 1 ],
      "componentType" : 5126,
      "count" : 236,
      "type" : "VEC3"
    },
    {
      "bufferView" : 2,
      "componentType" : 5126,
      "count" : 236,
      "type" : "VEC3"
    },
    {
      "bufferView" : 3,
      "componentType" : 5126,
      "count" : 236,
      "type" : "VEC4"
    },
    {
      "bufferView" : 4,
      "componentType" : 5126,
      "count" : 236,
      "type" : "VEC2"
    },
    {
      "bufferView" : 5,
      "componentType" : 5126,
      "count" : 236,
      "type" : "VEC2"
    }
  ]
}
