{
  "asset" : {
    "generator" : "UE Viewer (umodel) build 1590",
    "version" : "2.0"
  },
  "scene" : 0,
  "scenes" : [
    {
      "nodes" : [ 0 ]
    }
  ],
  "nodes" : [
    {
      "name" : "ObjMD_Stall_AC",
      "mesh" : 0
    }
  ],
  "materials" : [
    {
      "name" : "ObjMI_Stall_A",
      "pbrMetallicRoughness" : {
        "baseColorFactor" : [ 0.3, 0.3, 0.3, 1.0 ],
        "metallicFactor" : 0.1,
        "roughnessFactor" : 0.5
      }
    }
  ],
  "meshes" : [
    {
      "primitives" : [
        {
          "attributes" : {
            "POSITION" : 1,
            "NORMAL" : 2,
            "TANGENT" : 3,
            "TEXCOORD_0" : 4,
            "TEXCOORD_1" : 5
          },
          "indices" : 0,
          "material" : 0
        }
      ],
      "name" : "ObjMD_Stall_AC"
    }
  ],
  "buffers" : [
    {
      "uri" : "ObjMD_Stall_AC.bin",
      "byteLength" : 352936
    }
  ],
  "bufferViews" : [
    {
      "buffer" : 0,
      "byteOffset" : 0,
      "byteLength" : 47904
    },
    {
      "buffer" : 0,
      "byteOffset" : 47904,
      "byteLength" : 65364
    },
    {
      "buffer" : 0,
      "byteOffset" : 113268,
      "byteLength" : 65364
    },
    {
      "buffer" : 0,
      "byteOffset" : 178632,
      "byteLength" : 87152
    },
    {
      "buffer" : 0,
      "byteOffset" : 265784,
      "byteLength" : 43576
    },
    {
      "buffer" : 0,
      "byteOffset" : 309360,
      "byteLength" : 43576
    }
  ],
  "accessors" : [
    {
      "bufferView" : 0,
      "componentType" : 5123,
      "count" : 23952,
      "type" : "SCALAR"
    },
    {
      "bufferView" : 1,
      "min" : [ -1.375, -9.18576e-17, -1.625 ],
      "max" : [ 1.55741, 2.8125, 1.625 ],
      "componentType" : 5126,
      "count" : 5447,
      "type" : "VEC3"
    },
    {
      "bufferView" : 2,
      "componentType" : 5126,
      "count" : 5447,
      "type" : "VEC3"
    },
    {
      "bufferView" : 3,
      "componentType" : 5126,
      "count" : 5447,
      "type" : "VEC4"
    },
    {
      "bufferView" : 4,
      "componentType" : 5126,
      "count" : 5447,
      "type" : "VEC2"
    },
    {
      "bufferView" : 5,
      "componentType" : 5126,
      "count" : 5447,
      "type" : "VEC2"
    }
  ]
}
