{
  "asset" : {
    "generator" : "UE Viewer (umodel) build 1590",
    "version" : "2.0"
  },
  "scene" : 0,
  "scenes" : [
    {
      "nodes" : [ 0 ]
    }
  ],
  "nodes" : [
    {
      "name" : "ObjMD_Stall_B_01",
      "mesh" : 0
    }
  ],
  "materials" : [
    {
      "name" : "ObjMI_Stall_B",
      "pbrMetallicRoughness" : {
        "baseColorFactor" : [ 0.3, 0.3, 0.3, 1.0 ],
        "metallicFactor" : 0.1,
        "roughnessFactor" : 0.5
      }
    }
  ],
  "meshes" : [
    {
      "primitives" : [
        {
          "attributes" : {
            "POSITION" : 1,
            "NORMAL" : 2,
            "TANGENT" : 3,
            "TEXCOORD_0" : 4,
            "TEXCOORD_1" : 5
          },
          "indices" : 0,
          "material" : 0
        }
      ],
      "name" : "ObjMD_Stall_B_01"
    }
  ],
  "buffers" : [
    {
      "uri" : "ObjMD_Stall_B_01.bin",
      "byteLength" : 277512
    }
  ],
  "bufferViews" : [
    {
      "buffer" : 0,
      "byteOffset" : 0,
      "byteLength" : 36936
    },
    {
      "buffer" : 0,
      "byteOffset" : 36936,
      "byteLength" : 51552
    },
    {
      "buffer" : 0,
      "byteOffset" : 88488,
      "byteLength" : 51552
    },
    {
      "buffer" : 0,
      "byteOffset" : 140040,
      "byteLength" : 68736
    },
    {
      "buffer" : 0,
      "byteOffset" : 208776,
      "byteLength" : 34368
    },
    {
      "buffer" : 0,
      "byteOffset" : 243144,
      "byteLength" : 34368
    }
  ],
  "accessors" : [
    {
      "bufferView" : 0,
      "componentType" : 5123,
      "count" : 18468,
      "type" : "SCALAR"
    },
    {
      "bufferView" : 1,
      "min" : [ -0.784273, -1.12029e-16, -2 ],
      "max" : [ 0.888874, 2.87344, 2 ],
      "componentType" : 5126,
      "count" : 4296,
      "type" : "VEC3"
    },
    {
      "bufferView" : 2,
      "componentType" : 5126,
      "count" : 4296,
      "type" : "VEC3"
    },
    {
      "bufferView" : 3,
      "componentType" : 5126,
      "count" : 4296,
      "type" : "VEC4"
    },
    {
      "bufferView" : 4,
      "componentType" : 5126,
      "count" : 4296,
      "type" : "VEC2"
    },
    {
      "bufferView" : 5,
      "componentType" : 5126,
      "count" : 4296,
      "type" : "VEC2"
    }
  ]
}
