{
  "asset" : {
    "generator" : "UE Viewer (umodel) build 1590",
    "version" : "2.0"
  },
  "scene" : 0,
  "scenes" : [
    {
      "nodes" : [ 0 ]
    }
  ],
  "nodes" : [
    {
      "name" : "ObjMD_Timber_A_02",
      "mesh" : 0
    }
  ],
  "materials" : [
    {
      "name" : "ObjMI_Timber_A",
      "pbrMetallicRoughness" : {
        "baseColorFactor" : [ 0.3, 0.3, 0.3, 1.0 ],
        "metallicFactor" : 0.1,
        "roughnessFactor" : 0.5
      }
    }
  ],
  "meshes" : [
    {
      "primitives" : [
        {
          "attributes" : {
            "POSITION" : 1,
            "NORMAL" : 2,
            "TANGENT" : 3,
            "TEXCOORD_0" : 4,
            "TEXCOORD_1" : 5
          },
          "indices" : 0,
          "material" : 0
        }
      ],
      "name" : "ObjMD_Timber_A_02"
    }
  ],
  "buffers" : [
    {
      "uri" : "ObjMD_Timber_A_02.bin",
      "byteLength" : 10776
    }
  ],
  "bufferViews" : [
    {
      "buffer" : 0,
      "byteOffset" : 0,
      "byteLength" : 584
    },
    {
      "buffer" : 0,
      "byteOffset" : 584,
      "byteLength" : 2184
    },
    {
      "buffer" : 0,
      "byteOffset" : 2768,
      "byteLength" : 2184
    },
    {
      "buffer" : 0,
      "byteOffset" : 4952,
      "byteLength" : 2912
    },
    {
      "buffer" : 0,
      "byteOffset" : 7864,
      "byteLength" : 1456
    },
    {
      "buffer" : 0,
      "byteOffset" : 9320,
      "byteLength" : 1456
    }
  ],
  "accessors" : [
    {
      "bufferView" : 0,
      "componentType" : 5123,
      "count" : 291,
      "type" : "SCALAR"
    },
    {
      "bufferView" : 1,
      "min" : [ -1.62064, -0.00142479, -1.53218 ],
      "max" : [ 1.62063, 0.299082, 1.53218 ],
      "componentType" : 5126,
      "count" : 182,
      "type" : "VEC3"
    },
    {
      "bufferView" : 2,
      "componentType" : 5126,
      "count" : 182,
      "type" : "VEC3"
    },
    {
      "bufferView" : 3,
      "componentType" : 5126,
      "count" : 182,
      "type" : "VEC4"
    },
    {
      "bufferView" : 4,
      "componentType" : 5126,
      "count" : 182,
      "type" : "VEC2"
    },
    {
      "bufferView" : 5,
      "componentType" : 5126,
      "count" : 182,
      "type" : "VEC2"
    }
  ]
}
