{
  "asset" : {
    "generator" : "UE Viewer (umodel) build 1590",
    "version" : "2.0"
  },
  "scene" : 0,
  "scenes" : [
    {
      "nodes" : [ 0 ]
    }
  ],
  "nodes" : [
    {
      "name" : "ObjMD_Timber_A_03",
      "mesh" : 0
    }
  ],
  "materials" : [
    {
      "name" : "ObjMI_Timber_A",
      "pbrMetallicRoughness" : {
        "baseColorFactor" : [ 0.3, 0.3, 0.3, 1.0 ],
        "metallicFactor" : 0.1,
        "roughnessFactor" : 0.5
      }
    }
  ],
  "meshes" : [
    {
      "primitives" : [
        {
          "attributes" : {
            "POSITION" : 1,
            "NORMAL" : 2,
            "TANGENT" : 3,
            "TEXCOORD_0" : 4,
            "TEXCOORD_1" : 5
          },
          "indices" : 0,
          "material" : 0
        }
      ],
      "name" : "ObjMD_Timber_A_03"
    }
  ],
  "buffers" : [
    {
      "uri" : "ObjMD_Timber_A_03.bin",
      "byteLength" : 35400
    }
  ],
  "bufferViews" : [
    {
      "buffer" : 0,
      "byteOffset" : 0,
      "byteLength" : 1800
    },
    {
      "buffer" : 0,
      "byteOffset" : 1800,
      "byteLength" : 7200
    },
    {
      "buffer" : 0,
      "byteOffset" : 9000,
      "byteLength" : 7200
    },
    {
      "buffer" : 0,
      "byteOffset" : 16200,
      "byteLength" : 9600
    },
    {
      "buffer" : 0,
      "byteOffset" : 25800,
      "byteLength" : 4800
    },
    {
      "buffer" : 0,
      "byteOffset" : 30600,
      "byteLength" : 4800
    }
  ],
  "accessors" : [
    {
      "bufferView" : 0,
      "componentType" : 5123,
      "count" : 900,
      "type" : "SCALAR"
    },
    {
      "bufferView" : 1,
      "min" : [ -0.774854, -7.43895e-17, -1.23718 ],
      "max" : [ 0.750694, 0.874999, 1.26188 ],
      "componentType" : 5126,
      "count" : 600,
      "type" : "VEC3"
    },
    {
      "bufferView" : 2,
      "componentType" : 5126,
      "count" : 600,
      "type" : "VEC3"
    },
    {
      "bufferView" : 3,
      "componentType" : 5126,
      "count" : 600,
      "type" : "VEC4"
    },
    {
      "bufferView" : 4,
      "componentType" : 5126,
      "count" : 600,
      "type" : "VEC2"
    },
    {
      "bufferView" : 5,
      "componentType" : 5126,
      "count" : 600,
      "type" : "VEC2"
    }
  ]
}
