{
  "asset" : {
    "generator" : "UE Viewer (umodel) build 1590",
    "version" : "2.0"
  },
  "scene" : 0,
  "scenes" : [
    {
      "nodes" : [ 0 ]
    }
  ],
  "nodes" : [
    {
      "name" : "ObjMD_Bottle_A_thin_green_label",
      "mesh" : 0
    }
  ],
  "materials" : [
    {
      "name" : "ObjMI_Bottle_A_01",
      "pbrMetallicRoughness" : {
        "baseColorFactor" : [ 0.3, 0.3, 0.3, 1.0 ],
        "metallicFactor" : 0.1,
        "roughnessFactor" : 0.5
      }
    }
  ],
  "meshes" : [
    {
      "primitives" : [
        {
          "attributes" : {
            "POSITION" : 1,
            "NORMAL" : 2,
            "TANGENT" : 3,
            "TEXCOORD_0" : 4,
            "TEXCOORD_1" : 5
          },
          "indices" : 0,
          "material" : 0
        }
      ],
      "name" : "ObjMD_Bottle_A_thin_green_label"
    }
  ],
  "buffers" : [
    {
      "uri" : "ObjMD_Bottle_A_thin_green_label.bin",
      "byteLength" : 484
    }
  ],
  "bufferViews" : [
    {
      "buffer" : 0,
      "byteOffset" : 0,
      "byteLength" : 36
    },
    {
      "buffer" : 0,
      "byteOffset" : 36,
      "byteLength" : 96
    },
    {
      "buffer" : 0,
      "byteOffset" : 132,
      "byteLength" : 96
    },
    {
      "buffer" : 0,
      "byteOffset" : 228,
      "byteLength" : 128
    },
    {
      "buffer" : 0,
      "byteOffset" : 356,
      "byteLength" : 64
    },
    {
      "buffer" : 0,
      "byteOffset" : 420,
      "byteLength" : 64
    }
  ],
  "accessors" : [
    {
      "bufferView" : 0,
      "componentType" : 5123,
      "count" : 18,
      "type" : "SCALAR"
    },
    {
      "bufferView" : 1,
      "min" : [ -0.15625, 0, -4.97513e-17 ],
      "max" : [ 0.15625, 0.8125, -0 ],
      "componentType" : 5126,
      "count" : 8,
      "type" : "VEC3"
    },
    {
      "bufferView" : 2,
      "componentType" : 5126,
      "count" : 8,
      "type" : "VEC3"
    },
    {
      "bufferView" : 3,
      "componentType" : 5126,
      "count" : 8,
      "type" : "VEC4"
    },
    {
      "bufferView" : 4,
      "componentType" : 5126,
      "count" : 8,
      "type" : "VEC2"
    },
    {
      "bufferView" : 5,
      "componentType" : 5126,
      "count" : 8,
      "type" : "VEC2"
    }
  ]
}
