{
  "asset" : {
    "generator" : "UE Viewer (umodel) build 1590",
    "version" : "2.0"
  },
  "scene" : 0,
  "scenes" : [
    {
      "nodes" : [ 0 ]
    }
  ],
  "nodes" : [
    {
      "name" : "ObjMD_Bottle_B_green",
      "mesh" : 0
    }
  ],
  "materials" : [
    {
      "name" : "ObjMI_Bottle_B",
      "pbrMetallicRoughness" : {
        "baseColorFactor" : [ 0.3, 0.3, 0.3, 1.0 ],
        "metallicFactor" : 0.1,
        "roughnessFactor" : 0.5
      }
    }
  ],
  "meshes" : [
    {
      "primitives" : [
        {
          "attributes" : {
            "POSITION" : 1,
            "NORMAL" : 2,
            "TANGENT" : 3,
            "TEXCOORD_0" : 4,
            "TEXCOORD_1" : 5
          },
          "indices" : 0,
          "material" : 0
        }
      ],
      "name" : "ObjMD_Bottle_B_green"
    }
  ],
  "buffers" : [
    {
      "uri" : "ObjMD_Bottle_B_green.bin",
      "byteLength" : 2468
    }
  ],
  "bufferViews" : [
    {
      "buffer" : 0,
      "byteOffset" : 0,
      "byteLength" : 228
    },
    {
      "buffer" : 0,
      "byteOffset" : 228,
      "byteLength" : 480
    },
    {
      "buffer" : 0,
      "byteOffset" : 708,
      "byteLength" : 480
    },
    {
      "buffer" : 0,
      "byteOffset" : 1188,
      "byteLength" : 640
    },
    {
      "buffer" : 0,
      "byteOffset" : 1828,
      "byteLength" : 320
    },
    {
      "buffer" : 0,
      "byteOffset" : 2148,
      "byteLength" : 320
    }
  ],
  "accessors" : [
    {
      "bufferView" : 0,
      "componentType" : 5123,
      "count" : 114,
      "type" : "SCALAR"
    },
    {
      "bufferView" : 1,
      "min" : [ 0, -5.74053e-18, -0.21875 ],
      "max" : [ 0, 0.875, 0.21875 ],
      "componentType" : 5126,
      "count" : 40,
      "type" : "VEC3"
    },
    {
      "bufferView" : 2,
      "componentType" : 5126,
      "count" : 40,
      "type" : "VEC3"
    },
    {
      "bufferView" : 3,
      "componentType" : 5126,
      "count" : 40,
      "type" : "VEC4"
    },
    {
      "bufferView" : 4,
      "componentType" : 5126,
      "count" : 40,
      "type" : "VEC2"
    },
    {
      "bufferView" : 5,
      "componentType" : 5126,
      "count" : 40,
      "type" : "VEC2"
    }
  ]
}
