{
  "asset" : {
    "generator" : "UE Viewer (umodel) build 1590",
    "version" : "2.0"
  },
  "scene" : 0,
  "scenes" : [
    {
      "nodes" : [ 0 ]
    }
  ],
  "nodes" : [
    {
      "name" : "ObjMD_Woodstump_A",
      "mesh" : 0
    }
  ],
  "materials" : [
    {
      "name" : "ObjMI_Woodstump_A",
      "pbrMetallicRoughness" : {
        "baseColorFactor" : [ 0.3, 0.3, 0.3, 1.0 ],
        "metallicFactor" : 0.1,
        "roughnessFactor" : 0.5
      }
    }
  ],
  "meshes" : [
    {
      "primitives" : [
        {
          "attributes" : {
            "POSITION" : 1,
            "NORMAL" : 2,
            "TANGENT" : 3,
            "TEXCOORD_0" : 4,
            "TEXCOORD_1" : 5
          },
          "indices" : 0,
          "material" : 0
        }
      ],
      "name" : "ObjMD_Woodstump_A"
    }
  ],
  "buffers" : [
    {
      "uri" : "ObjMD_Woodstump_A.bin",
      "byteLength" : 11472
    }
  ],
  "bufferViews" : [
    {
      "buffer" : 0,
      "byteOffset" : 0,
      "byteLength" : 1280
    },
    {
      "buffer" : 0,
      "byteOffset" : 1280,
      "byteLength" : 2184
    },
    {
      "buffer" : 0,
      "byteOffset" : 3464,
      "byteLength" : 2184
    },
    {
      "buffer" : 0,
      "byteOffset" : 5648,
      "byteLength" : 2912
    },
    {
      "buffer" : 0,
      "byteOffset" : 8560,
      "byteLength" : 1456
    },
    {
      "buffer" : 0,
      "byteOffset" : 10016,
      "byteLength" : 1456
    }
  ],
  "accessors" : [
    {
      "bufferView" : 0,
      "componentType" : 5123,
      "count" : 639,
      "type" : "SCALAR"
    },
    {
      "bufferView" : 1,
      "min" : [ -0.623951, -3.86339e-17, -0.630939 ],
      "max" : [ 0.579201, 1.33764, 0.480909 ],
      "componentType" : 5126,
      "count" : 182,
      "type" : "VEC3"
    },
    {
      "bufferView" : 2,
      "componentType" : 5126,
      "count" : 182,
      "type" : "VEC3"
    },
    {
      "bufferView" : 3,
      "componentType" : 5126,
      "count" : 182,
      "type" : "VEC4"
    },
    {
      "bufferView" : 4,
      "componentType" : 5126,
      "count" : 182,
      "type" : "VEC2"
    },
    {
      "bufferView" : 5,
      "componentType" : 5126,
      "count" : 182,
      "type" : "VEC2"
    }
  ]
}
