{
  "asset" : {
    "generator" : "UE Viewer (umodel) build 1590",
    "version" : "2.0"
  },
  "scene" : 0,
  "scenes" : [
    {
      "nodes" : [ 0 ]
    }
  ],
  "nodes" : [
    {
      "name" : "ObjMD_Woodstump_A_noaxe",
      "mesh" : 0
    }
  ],
  "materials" : [
    {
      "name" : "ObjMI_Woodstump_A",
      "pbrMetallicRoughness" : {
        "baseColorFactor" : [ 0.3, 0.3, 0.3, 1.0 ],
        "metallicFactor" : 0.1,
        "roughnessFactor" : 0.5
      }
    }
  ],
  "meshes" : [
    {
      "primitives" : [
        {
          "attributes" : {
            "POSITION" : 1,
            "NORMAL" : 2,
            "TANGENT" : 3,
            "TEXCOORD_0" : 4,
            "TEXCOORD_1" : 5
          },
          "indices" : 0,
          "material" : 0
        }
      ],
      "name" : "ObjMD_Woodstump_A_noaxe"
    }
  ],
  "buffers" : [
    {
      "uri" : "ObjMD_Woodstump_A_noaxe.bin",
      "byteLength" : 9864
    }
  ],
  "bufferViews" : [
    {
      "buffer" : 0,
      "byteOffset" : 0,
      "byteLength" : 1128
    },
    {
      "buffer" : 0,
      "byteOffset" : 1128,
      "byteLength" : 1872
    },
    {
      "buffer" : 0,
      "byteOffset" : 3000,
      "byteLength" : 1872
    },
    {
      "buffer" : 0,
      "byteOffset" : 4872,
      "byteLength" : 2496
    },
    {
      "buffer" : 0,
      "byteOffset" : 7368,
      "byteLength" : 1248
    },
    {
      "buffer" : 0,
      "byteOffset" : 8616,
      "byteLength" : 1248
    }
  ],
  "accessors" : [
    {
      "bufferView" : 0,
      "componentType" : 5123,
      "count" : 564,
      "type" : "SCALAR"
    },
    {
      "bufferView" : 1,
      "min" : [ -0.623951, -3.86339e-17, -0.630939 ],
      "max" : [ 0.579201, 0.632645, 0.480909 ],
      "componentType" : 5126,
      "count" : 156,
      "type" : "VEC3"
    },
    {
      "bufferView" : 2,
      "componentType" : 5126,
      "count" : 156,
      "type" : "VEC3"
    },
    {
      "bufferView" : 3,
      "componentType" : 5126,
      "count" : 156,
      "type" : "VEC4"
    },
    {
      "bufferView" : 4,
      "componentType" : 5126,
      "count" : 156,
      "type" : "VEC2"
    },
    {
      "bufferView" : 5,
      "componentType" : 5126,
      "count" : 156,
      "type" : "VEC2"
    }
  ]
}
