{
  "asset" : {
    "generator" : "UE Viewer (umodel) build 1590",
    "version" : "2.0"
  },
  "scene" : 0,
  "scenes" : [
    {
      "nodes" : [ 0 ]
    }
  ],
  "nodes" : [
    {
      "name" : "BgMD_Mid_Mount_D_low",
      "mesh" : 0
    }
  ],
  "materials" : [
    {
      "name" : "BgMI_Mid_Mount_D_low",
      "pbrMetallicRoughness" : {
        "baseColorFactor" : [ 0.3, 0.3, 0.3, 1.0 ],
        "metallicFactor" : 0.1,
        "roughnessFactor" : 0.5
      }
    }
  ],
  "meshes" : [
    {
      "primitives" : [
        {
          "attributes" : {
            "POSITION" : 1,
            "NORMAL" : 2,
            "TANGENT" : 3,
            "TEXCOORD_0" : 4
          },
          "indices" : 0,
          "material" : 0
        }
      ],
      "name" : "BgMD_Mid_Mount_D_low"
    }
  ],
  "buffers" : [
    {
      "uri" : "BgMD_Mid_Mount_D_low.bin",
      "byteLength" : 2756
    }
  ],
  "bufferViews" : [
    {
      "buffer" : 0,
      "byteOffset" : 0,
      "byteLength" : 452
    },
    {
      "buffer" : 0,
      "byteOffset" : 452,
      "byteLength" : 576
    },
    {
      "buffer" : 0,
      "byteOffset" : 1028,
      "byteLength" : 576
    },
    {
      "buffer" : 0,
      "byteOffset" : 1604,
      "byteLength" : 768
    },
    {
      "buffer" : 0,
      "byteOffset" : 2372,
      "byteLength" : 384
    }
  ],
  "accessors" : [
    {
      "bufferView" : 0,
      "componentType" : 5123,
      "count" : 225,
      "type" : "SCALAR"
    },
    {
      "bufferView" : 1,
      "min" : [ -17.0168, -1.90735e-08, -28.3995 ],
      "max" : [ 17.0168, 15.5803, 27.7745 ],
      "componentType" : 5126,
      "count" : 48,
      "type" : "VEC3"
    },
    {
      "bufferView" : 2,
      "componentType" : 5126,
      "count" : 48,
      "type" : "VEC3"
    },
    {
      "bufferView" : 3,
      "componentType" : 5126,
      "count" : 48,
      "type" : "VEC4"
    },
    {
      "bufferView" : 4,
      "componentType" : 5126,
      "count" : 48,
      "type" : "VEC2"
    }
  ]
}
