{
  "asset" : {
    "generator" : "UE Viewer (umodel) build 1590",
    "version" : "2.0"
  },
  "scene" : 0,
  "scenes" : [
    {
      "nodes" : [ 0 ]
    }
  ],
  "nodes" : [
    {
      "name" : "BgMD_Dis_Snow_A",
      "mesh" : 0
    }
  ],
  "materials" : [
    {
      "name" : "BgMI_Dis_Mount_A_01",
      "pbrMetallicRoughness" : {
        "baseColorFactor" : [ 0.3, 0.3, 0.3, 1.0 ],
        "metallicFactor" : 0.1,
        "roughnessFactor" : 0.5
      }
    }
  ],
  "meshes" : [
    {
      "primitives" : [
        {
          "attributes" : {
            "POSITION" : 1,
            "NORMAL" : 2,
            "TANGENT" : 3,
            "TEXCOORD_0" : 4,
            "TEXCOORD_1" : 5
          },
          "indices" : 0,
          "material" : 0
        }
      ],
      "name" : "BgMD_Dis_Snow_A"
    }
  ],
  "buffers" : [
    {
      "uri" : "BgMD_Dis_Snow_A.bin",
      "byteLength" : 2160
    }
  ],
  "bufferViews" : [
    {
      "buffer" : 0,
      "byteOffset" : 0,
      "byteLength" : 144
    },
    {
      "buffer" : 0,
      "byteOffset" : 144,
      "byteLength" : 432
    },
    {
      "buffer" : 0,
      "byteOffset" : 576,
      "byteLength" : 432
    },
    {
      "buffer" : 0,
      "byteOffset" : 1008,
      "byteLength" : 576
    },
    {
      "buffer" : 0,
      "byteOffset" : 1584,
      "byteLength" : 288
    },
    {
      "buffer" : 0,
      "byteOffset" : 1872,
      "byteLength" : 288
    }
  ],
  "accessors" : [
    {
      "bufferView" : 0,
      "componentType" : 5123,
      "count" : 72,
      "type" : "SCALAR"
    },
    {
      "bufferView" : 1,
      "min" : [ 0, -3.06162e-15, -50 ],
      "max" : [ 9.31736e-21, 15.9584, 50 ],
      "componentType" : 5126,
      "count" : 36,
      "type" : "VEC3"
    },
    {
      "bufferView" : 2,
      "componentType" : 5126,
      "count" : 36,
      "type" : "VEC3"
    },
    {
      "bufferView" : 3,
      "componentType" : 5126,
      "count" : 36,
      "type" : "VEC4"
    },
    {
      "bufferView" : 4,
      "componentType" : 5126,
      "count" : 36,
      "type" : "VEC2"
    },
    {
      "bufferView" : 5,
      "componentType" : 5126,
      "count" : 36,
      "type" : "VEC2"
    }
  ]
}
