{
  "asset" : {
    "generator" : "UE Viewer (umodel) build 1590",
    "version" : "2.0"
  },
  "scene" : 0,
  "scenes" : [
    {
      "nodes" : [ 0 ]
    }
  ],
  "nodes" : [
    {
      "name" : "BgMD_Dis_River_A",
      "mesh" : 0
    }
  ],
  "materials" : [
    {
      "name" : "BgMI_Cls_River_A",
      "pbrMetallicRoughness" : {
        "baseColorFactor" : [ 0.3, 0.3, 0.3, 1.0 ],
        "metallicFactor" : 0.1,
        "roughnessFactor" : 0.5
      }
    }
  ],
  "meshes" : [
    {
      "primitives" : [
        {
          "attributes" : {
            "POSITION" : 1,
            "NORMAL" : 2,
            "TANGENT" : 3,
            "TEXCOORD_0" : 4,
            "TEXCOORD_1" : 5
          },
          "indices" : 0,
          "material" : 0
        }
      ],
      "name" : "BgMD_Dis_River_A"
    }
  ],
  "buffers" : [
    {
      "uri" : "BgMD_Dis_River_A.bin",
      "byteLength" : 908
    }
  ],
  "bufferViews" : [
    {
      "buffer" : 0,
      "byteOffset" : 0,
      "byteLength" : 68
    },
    {
      "buffer" : 0,
      "byteOffset" : 68,
      "byteLength" : 180
    },
    {
      "buffer" : 0,
      "byteOffset" : 248,
      "byteLength" : 180
    },
    {
      "buffer" : 0,
      "byteOffset" : 428,
      "byteLength" : 240
    },
    {
      "buffer" : 0,
      "byteOffset" : 668,
      "byteLength" : 120
    },
    {
      "buffer" : 0,
      "byteOffset" : 788,
      "byteLength" : 120
    }
  ],
  "accessors" : [
    {
      "bufferView" : 0,
      "componentType" : 5123,
      "count" : 33,
      "type" : "SCALAR"
    },
    {
      "bufferView" : 1,
      "min" : [ 0, 3.91887e-15, 4.57764e-07 ],
      "max" : [ 3.60774e-14, 15.8716, 64 ],
      "componentType" : 5126,
      "count" : 15,
      "type" : "VEC3"
    },
    {
      "bufferView" : 2,
      "componentType" : 5126,
      "count" : 15,
      "type" : "VEC3"
    },
    {
      "bufferView" : 3,
      "componentType" : 5126,
      "count" : 15,
      "type" : "VEC4"
    },
    {
      "bufferView" : 4,
      "componentType" : 5126,
      "count" : 15,
      "type" : "VEC2"
    },
    {
      "bufferView" : 5,
      "componentType" : 5126,
      "count" : 15,
      "type" : "VEC2"
    }
  ]
}
