{
  "asset" : {
    "generator" : "UE Viewer (umodel) build 1590",
    "version" : "2.0"
  },
  "scene" : 0,
  "scenes" : [
    {
      "nodes" : [ 0 ]
    }
  ],
  "nodes" : [
    {
      "name" : "BgMD_Dis_Forest_A",
      "mesh" : 0
    }
  ],
  "materials" : [
    {
      "name" : "BgMI_Cls_Forest_A",
      "pbrMetallicRoughness" : {
        "baseColorFactor" : [ 0.3, 0.3, 0.3, 1.0 ],
        "metallicFactor" : 0.1,
        "roughnessFactor" : 0.5
      }
    }
  ],
  "meshes" : [
    {
      "primitives" : [
        {
          "attributes" : {
            "POSITION" : 1,
            "NORMAL" : 2,
            "TANGENT" : 3,
            "TEXCOORD_0" : 4,
            "TEXCOORD_1" : 5
          },
          "indices" : 0,
          "material" : 0
        }
      ],
      "name" : "BgMD_Dis_Forest_A"
    }
  ],
  "buffers" : [
    {
      "uri" : "BgMD_Dis_Forest_A.bin",
      "byteLength" : 1820
    }
  ],
  "bufferViews" : [
    {
      "buffer" : 0,
      "byteOffset" : 0,
      "byteLength" : 140
    },
    {
      "buffer" : 0,
      "byteOffset" : 140,
      "byteLength" : 360
    },
    {
      "buffer" : 0,
      "byteOffset" : 500,
      "byteLength" : 360
    },
    {
      "buffer" : 0,
      "byteOffset" : 860,
      "byteLength" : 480
    },
    {
      "buffer" : 0,
      "byteOffset" : 1340,
      "byteLength" : 240
    },
    {
      "buffer" : 0,
      "byteOffset" : 1580,
      "byteLength" : 240
    }
  ],
  "accessors" : [
    {
      "bufferView" : 0,
      "componentType" : 5123,
      "count" : 69,
      "type" : "SCALAR"
    },
    {
      "bufferView" : 1,
      "min" : [ -1.60267e-06, -3.23694e-07, 1.05677e-10 ],
      "max" : [ 2.28158e-07, 7.8185, 96 ],
      "componentType" : 5126,
      "count" : 30,
      "type" : "VEC3"
    },
    {
      "bufferView" : 2,
      "componentType" : 5126,
      "count" : 30,
      "type" : "VEC3"
    },
    {
      "bufferView" : 3,
      "componentType" : 5126,
      "count" : 30,
      "type" : "VEC4"
    },
    {
      "bufferView" : 4,
      "componentType" : 5126,
      "count" : 30,
      "type" : "VEC2"
    },
    {
      "bufferView" : 5,
      "componentType" : 5126,
      "count" : 30,
      "type" : "VEC2"
    }
  ]
}
