{
  "asset" : {
    "generator" : "UE Viewer (umodel) build 1590",
    "version" : "2.0"
  },
  "scene" : 0,
  "scenes" : [
    {
      "nodes" : [ 0 ]
    }
  ],
  "nodes" : [
    {
      "name" : "BgMD_Mid_Mount_D_tall",
      "mesh" : 0
    }
  ],
  "materials" : [
    {
      "name" : "BgMI_Mid_Mount_D_tall",
      "pbrMetallicRoughness" : {
        "baseColorFactor" : [ 0.3, 0.3, 0.3, 1.0 ],
        "metallicFactor" : 0.1,
        "roughnessFactor" : 0.5
      }
    }
  ],
  "meshes" : [
    {
      "primitives" : [
        {
          "attributes" : {
            "POSITION" : 1,
            "NORMAL" : 2,
            "TANGENT" : 3,
            "TEXCOORD_0" : 4
          },
          "indices" : 0,
          "material" : 0
        }
      ],
      "name" : "BgMD_Mid_Mount_D_tall"
    }
  ],
  "buffers" : [
    {
      "uri" : "BgMD_Mid_Mount_D_tall.bin",
      "byteLength" : 2244
    }
  ],
  "bufferViews" : [
    {
      "buffer" : 0,
      "byteOffset" : 0,
      "byteLength" : 372
    },
    {
      "buffer" : 0,
      "byteOffset" : 372,
      "byteLength" : 468
    },
    {
      "buffer" : 0,
      "byteOffset" : 840,
      "byteLength" : 468
    },
    {
      "buffer" : 0,
      "byteOffset" : 1308,
      "byteLength" : 624
    },
    {
      "buffer" : 0,
      "byteOffset" : 1932,
      "byteLength" : 312
    }
  ],
  "accessors" : [
    {
      "bufferView" : 0,
      "componentType" : 5123,
      "count" : 186,
      "type" : "SCALAR"
    },
    {
      "bufferView" : 1,
      "min" : [ -16.3105, -1.49012e-09, -21.3608 ],
      "max" : [ 16.3105, 22.7538, 21.3608 ],
      "componentType" : 5126,
      "count" : 39,
      "type" : "VEC3"
    },
    {
      "bufferView" : 2,
      "componentType" : 5126,
      "count" : 39,
      "type" : "VEC3"
    },
    {
      "bufferView" : 3,
      "componentType" : 5126,
      "count" : 39,
      "type" : "VEC4"
    },
    {
      "bufferView" : 4,
      "componentType" : 5126,
      "count" : 39,
      "type" : "VEC2"
    }
  ]
}
