{
  "asset" : {
    "generator" : "UE Viewer (umodel) build 1590",
    "version" : "2.0"
  },
  "scene" : 0,
  "scenes" : [
    {
      "nodes" : [ 0 ]
    }
  ],
  "nodes" : [
    {
      "name" : "BgMD_Mid_Mount_C_01",
      "mesh" : 0
    }
  ],
  "materials" : [
    {
      "name" : "BgMI_Mid_Mount_C_01",
      "pbrMetallicRoughness" : {
        "baseColorFactor" : [ 0.3, 0.3, 0.3, 1.0 ],
        "metallicFactor" : 0.1,
        "roughnessFactor" : 0.5
      }
    }
  ],
  "meshes" : [
    {
      "primitives" : [
        {
          "attributes" : {
            "POSITION" : 1,
            "NORMAL" : 2,
            "TANGENT" : 3,
            "TEXCOORD_0" : 4
          },
          "indices" : 0,
          "material" : 0
        }
      ],
      "name" : "BgMD_Mid_Mount_C_01"
    }
  ],
  "buffers" : [
    {
      "uri" : "BgMD_Mid_Mount_C_01.bin",
      "byteLength" : 1644
    }
  ],
  "bufferViews" : [
    {
      "buffer" : 0,
      "byteOffset" : 0,
      "byteLength" : 204
    },
    {
      "buffer" : 0,
      "byteOffset" : 204,
      "byteLength" : 360
    },
    {
      "buffer" : 0,
      "byteOffset" : 564,
      "byteLength" : 360
    },
    {
      "buffer" : 0,
      "byteOffset" : 924,
      "byteLength" : 480
    },
    {
      "buffer" : 0,
      "byteOffset" : 1404,
      "byteLength" : 240
    }
  ],
  "accessors" : [
    {
      "bufferView" : 0,
      "componentType" : 5123,
      "count" : 102,
      "type" : "SCALAR"
    },
    {
      "bufferView" : 1,
      "min" : [ -3, 1.74517, -8 ],
      "max" : [ 0, 14.6084, 5 ],
      "componentType" : 5126,
      "count" : 30,
      "type" : "VEC3"
    },
    {
      "bufferView" : 2,
      "componentType" : 5126,
      "count" : 30,
      "type" : "VEC3"
    },
    {
      "bufferView" : 3,
      "componentType" : 5126,
      "count" : 30,
      "type" : "VEC4"
    },
    {
      "bufferView" : 4,
      "componentType" : 5126,
      "count" : 30,
      "type" : "VEC2"
    }
  ]
}
