{
  "asset" : {
    "generator" : "UE Viewer (umodel) build 1590",
    "version" : "2.0"
  },
  "scene" : 0,
  "scenes" : [
    {
      "nodes" : [ 0 ]
    }
  ],
  "nodes" : [
    {
      "name" : "BgMD_Mid_Snow_B_low",
      "mesh" : 0
    }
  ],
  "materials" : [
    {
      "name" : "BgMI_Mid_Snow_B_low",
      "pbrMetallicRoughness" : {
        "baseColorFactor" : [ 0.3, 0.3, 0.3, 1.0 ],
        "metallicFactor" : 0.1,
        "roughnessFactor" : 0.5
      }
    }
  ],
  "meshes" : [
    {
      "primitives" : [
        {
          "attributes" : {
            "POSITION" : 1,
            "NORMAL" : 2,
            "TANGENT" : 3,
            "TEXCOORD_0" : 4,
            "TEXCOORD_1" : 5
          },
          "indices" : 0,
          "material" : 0
        }
      ],
      "name" : "BgMD_Mid_Snow_B_low"
    }
  ],
  "buffers" : [
    {
      "uri" : "BgMD_Mid_Snow_B_low.bin",
      "byteLength" : 7220
    }
  ],
  "bufferViews" : [
    {
      "buffer" : 0,
      "byteOffset" : 0,
      "byteLength" : 1004
    },
    {
      "buffer" : 0,
      "byteOffset" : 1004,
      "byteLength" : 1332
    },
    {
      "buffer" : 0,
      "byteOffset" : 2336,
      "byteLength" : 1332
    },
    {
      "buffer" : 0,
      "byteOffset" : 3668,
      "byteLength" : 1776
    },
    {
      "buffer" : 0,
      "byteOffset" : 5444,
      "byteLength" : 888
    },
    {
      "buffer" : 0,
      "byteOffset" : 6332,
      "byteLength" : 888
    }
  ],
  "accessors" : [
    {
      "bufferView" : 0,
      "componentType" : 5123,
      "count" : 501,
      "type" : "SCALAR"
    },
    {
      "bufferView" : 1,
      "min" : [ -17.0168, -0.911572, -26.7745 ],
      "max" : [ 17.0168, 15.8765, 26.7745 ],
      "componentType" : 5126,
      "count" : 111,
      "type" : "VEC3"
    },
    {
      "bufferView" : 2,
      "componentType" : 5126,
      "count" : 111,
      "type" : "VEC3"
    },
    {
      "bufferView" : 3,
      "componentType" : 5126,
      "count" : 111,
      "type" : "VEC4"
    },
    {
      "bufferView" : 4,
      "componentType" : 5126,
      "count" : 111,
      "type" : "VEC2"
    },
    {
      "bufferView" : 5,
      "componentType" : 5126,
      "count" : 111,
      "type" : "VEC2"
    }
  ]
}
