{
  "asset" : {
    "generator" : "UE Viewer (umodel) build 1590",
    "version" : "2.0"
  },
  "scene" : 0,
  "scenes" : [
    {
      "nodes" : [ 0 ]
    }
  ],
  "nodes" : [
    {
      "name" : "BgMD_Mid_Plain_B_dune_low",
      "mesh" : 0
    }
  ],
  "materials" : [
    {
      "name" : "BgMI_Mid_Plain_B",
      "pbrMetallicRoughness" : {
        "baseColorFactor" : [ 0.3, 0.3, 0.3, 1.0 ],
        "metallicFactor" : 0.1,
        "roughnessFactor" : 0.5
      }
    }
  ],
  "meshes" : [
    {
      "primitives" : [
        {
          "attributes" : {
            "POSITION" : 1,
            "NORMAL" : 2,
            "TANGENT" : 3,
            "TEXCOORD_0" : 4,
            "TEXCOORD_1" : 5
          },
          "indices" : 0,
          "material" : 0
        }
      ],
      "name" : "BgMD_Mid_Plain_B_dune_low"
    }
  ],
  "buffers" : [
    {
      "uri" : "BgMD_Mid_Plain_B_dune_low.bin",
      "byteLength" : 5800
    }
  ],
  "bufferViews" : [
    {
      "buffer" : 0,
      "byteOffset" : 0,
      "byteLength" : 816
    },
    {
      "buffer" : 0,
      "byteOffset" : 816,
      "byteLength" : 1068
    },
    {
      "buffer" : 0,
      "byteOffset" : 1884,
      "byteLength" : 1068
    },
    {
      "buffer" : 0,
      "byteOffset" : 2952,
      "byteLength" : 1424
    },
    {
      "buffer" : 0,
      "byteOffset" : 4376,
      "byteLength" : 712
    },
    {
      "buffer" : 0,
      "byteOffset" : 5088,
      "byteLength" : 712
    }
  ],
  "accessors" : [
    {
      "bufferView" : 0,
      "componentType" : 5123,
      "count" : 408,
      "type" : "SCALAR"
    },
    {
      "bufferView" : 1,
      "min" : [ -8, 0.0298464, -11.5004 ],
      "max" : [ 8, 2.078, 11.5 ],
      "componentType" : 5126,
      "count" : 89,
      "type" : "VEC3"
    },
    {
      "bufferView" : 2,
      "componentType" : 5126,
      "count" : 89,
      "type" : "VEC3"
    },
    {
      "bufferView" : 3,
      "componentType" : 5126,
      "count" : 89,
      "type" : "VEC4"
    },
    {
      "bufferView" : 4,
      "componentType" : 5126,
      "count" : 89,
      "type" : "VEC2"
    },
    {
      "bufferView" : 5,
      "componentType" : 5126,
      "count" : 89,
      "type" : "VEC2"
    }
  ]
}
