{
  "asset" : {
    "generator" : "UE Viewer (umodel) build 1590",
    "version" : "2.0"
  },
  "scene" : 0,
  "scenes" : [
    {
      "nodes" : [ 0 ]
    }
  ],
  "nodes" : [
    {
      "name" : "BgMD_Dis_Plain_A",
      "mesh" : 0
    }
  ],
  "materials" : [
    {
      "name" : "BgMI_Dis_Plain_A",
      "pbrMetallicRoughness" : {
        "baseColorFactor" : [ 0.3, 0.3, 0.3, 1.0 ],
        "metallicFactor" : 0.1,
        "roughnessFactor" : 0.5
      }
    }
  ],
  "meshes" : [
    {
      "primitives" : [
        {
          "attributes" : {
            "POSITION" : 1,
            "NORMAL" : 2,
            "TANGENT" : 3,
            "TEXCOORD_0" : 4,
            "TEXCOORD_1" : 5
          },
          "indices" : 0,
          "material" : 0
        }
      ],
      "name" : "BgMD_Dis_Plain_A"
    }
  ],
  "buffers" : [
    {
      "uri" : "BgMD_Dis_Plain_A.bin",
      "byteLength" : 5460
    }
  ],
  "bufferViews" : [
    {
      "buffer" : 0,
      "byteOffset" : 0,
      "byteLength" : 420
    },
    {
      "buffer" : 0,
      "byteOffset" : 420,
      "byteLength" : 1080
    },
    {
      "buffer" : 0,
      "byteOffset" : 1500,
      "byteLength" : 1080
    },
    {
      "buffer" : 0,
      "byteOffset" : 2580,
      "byteLength" : 1440
    },
    {
      "buffer" : 0,
      "byteOffset" : 4020,
      "byteLength" : 720
    },
    {
      "buffer" : 0,
      "byteOffset" : 4740,
      "byteLength" : 720
    }
  ],
  "accessors" : [
    {
      "bufferView" : 0,
      "componentType" : 5123,
      "count" : 210,
      "type" : "SCALAR"
    },
    {
      "bufferView" : 1,
      "min" : [ 0, -2.60237e-15, -42.5 ],
      "max" : [ 0, 9.32105, 42.5 ],
      "componentType" : 5126,
      "count" : 90,
      "type" : "VEC3"
    },
    {
      "bufferView" : 2,
      "componentType" : 5126,
      "count" : 90,
      "type" : "VEC3"
    },
    {
      "bufferView" : 3,
      "componentType" : 5126,
      "count" : 90,
      "type" : "VEC4"
    },
    {
      "bufferView" : 4,
      "componentType" : 5126,
      "count" : 90,
      "type" : "VEC2"
    },
    {
      "bufferView" : 5,
      "componentType" : 5126,
      "count" : 90,
      "type" : "VEC2"
    }
  ]
}
