{
  "asset" : {
    "generator" : "UE Viewer (umodel) build 1590",
    "version" : "2.0"
  },
  "scene" : 0,
  "scenes" : [
    {
      "nodes" : [ 0 ]
    }
  ],
  "nodes" : [
    {
      "name" : "BgMD_Mid_Mount_C_02",
      "mesh" : 0
    }
  ],
  "materials" : [
    {
      "name" : "BgMI_Mid_Mount_C_02",
      "pbrMetallicRoughness" : {
        "baseColorFactor" : [ 0.3, 0.3, 0.3, 1.0 ],
        "metallicFactor" : 0.1,
        "roughnessFactor" : 0.5
      }
    }
  ],
  "meshes" : [
    {
      "primitives" : [
        {
          "attributes" : {
            "POSITION" : 1,
            "NORMAL" : 2,
            "TANGENT" : 3,
            "TEXCOORD_0" : 4
          },
          "indices" : 0,
          "material" : 0
        }
      ],
      "name" : "BgMD_Mid_Mount_C_02"
    }
  ],
  "buffers" : [
    {
      "uri" : "BgMD_Mid_Mount_C_02.bin",
      "byteLength" : 1544
    }
  ],
  "bufferViews" : [
    {
      "buffer" : 0,
      "byteOffset" : 0,
      "byteLength" : 200
    },
    {
      "buffer" : 0,
      "byteOffset" : 200,
      "byteLength" : 336
    },
    {
      "buffer" : 0,
      "byteOffset" : 536,
      "byteLength" : 336
    },
    {
      "buffer" : 0,
      "byteOffset" : 872,
      "byteLength" : 448
    },
    {
      "buffer" : 0,
      "byteOffset" : 1320,
      "byteLength" : 224
    }
  ],
  "accessors" : [
    {
      "bufferView" : 0,
      "componentType" : 5123,
      "count" : 99,
      "type" : "SCALAR"
    },
    {
      "bufferView" : 1,
      "min" : [ -2.92668, -1.83697e-16, -3 ],
      "max" : [ 0, 13, 8 ],
      "componentType" : 5126,
      "count" : 28,
      "type" : "VEC3"
    },
    {
      "bufferView" : 2,
      "componentType" : 5126,
      "count" : 28,
      "type" : "VEC3"
    },
    {
      "bufferView" : 3,
      "componentType" : 5126,
      "count" : 28,
      "type" : "VEC4"
    },
    {
      "bufferView" : 4,
      "componentType" : 5126,
      "count" : 28,
      "type" : "VEC2"
    }
  ]
}
