{
  "asset" : {
    "generator" : "UE Viewer (umodel) build 1590",
    "version" : "2.0"
  },
  "scene" : 0,
  "scenes" : [
    {
      "nodes" : [ 0 ]
    }
  ],
  "nodes" : [
    {
      "name" : "BgMD_Dis_Cliff_A",
      "mesh" : 0
    }
  ],
  "materials" : [
    {
      "name" : "BgMI_Cls_Cliff_A",
      "pbrMetallicRoughness" : {
        "baseColorFactor" : [ 0.3, 0.3, 0.3, 1.0 ],
        "metallicFactor" : 0.1,
        "roughnessFactor" : 0.5
      }
    }
  ],
  "meshes" : [
    {
      "primitives" : [
        {
          "attributes" : {
            "POSITION" : 1,
            "NORMAL" : 2,
            "TANGENT" : 3,
            "TEXCOORD_0" : 4,
            "TEXCOORD_1" : 5
          },
          "indices" : 0,
          "material" : 0
        }
      ],
      "name" : "BgMD_Dis_Cliff_A"
    }
  ],
  "buffers" : [
    {
      "uri" : "BgMD_Dis_Cliff_A.bin",
      "byteLength" : 4400
    }
  ],
  "bufferViews" : [
    {
      "buffer" : 0,
      "byteOffset" : 0,
      "byteLength" : 200
    },
    {
      "buffer" : 0,
      "byteOffset" : 200,
      "byteLength" : 900
    },
    {
      "buffer" : 0,
      "byteOffset" : 1100,
      "byteLength" : 900
    },
    {
      "buffer" : 0,
      "byteOffset" : 2000,
      "byteLength" : 1200
    },
    {
      "buffer" : 0,
      "byteOffset" : 3200,
      "byteLength" : 600
    },
    {
      "buffer" : 0,
      "byteOffset" : 3800,
      "byteLength" : 600
    }
  ],
  "accessors" : [
    {
      "bufferView" : 0,
      "componentType" : 5123,
      "count" : 99,
      "type" : "SCALAR"
    },
    {
      "bufferView" : 1,
      "min" : [ -3.10441e-10, -1.14152e-14, 0.71496 ],
      "max" : [ 1.08313e-12, 10.0597, 96 ],
      "componentType" : 5126,
      "count" : 75,
      "type" : "VEC3"
    },
    {
      "bufferView" : 2,
      "componentType" : 5126,
      "count" : 75,
      "type" : "VEC3"
    },
    {
      "bufferView" : 3,
      "componentType" : 5126,
      "count" : 75,
      "type" : "VEC4"
    },
    {
      "bufferView" : 4,
      "componentType" : 5126,
      "count" : 75,
      "type" : "VEC2"
    },
    {
      "bufferView" : 5,
      "componentType" : 5126,
      "count" : 75,
      "type" : "VEC2"
    }
  ]
}
