{
  "asset" : {
    "generator" : "UE Viewer (umodel) build 1590",
    "version" : "2.0"
  },
  "scene" : 0,
  "scenes" : [
    {
      "nodes" : [ 0 ]
    }
  ],
  "nodes" : [
    {
      "name" : "BgMD_Mid_Desert_B_dune_tall",
      "mesh" : 0
    }
  ],
  "materials" : [
    {
      "name" : "BgMI_Mid_Desert_B",
      "pbrMetallicRoughness" : {
        "baseColorFactor" : [ 0.3, 0.3, 0.3, 1.0 ],
        "metallicFactor" : 0.1,
        "roughnessFactor" : 0.5
      }
    }
  ],
  "meshes" : [
    {
      "primitives" : [
        {
          "attributes" : {
            "POSITION" : 1,
            "NORMAL" : 2,
            "TANGENT" : 3,
            "TEXCOORD_0" : 4,
            "TEXCOORD_1" : 5
          },
          "indices" : 0,
          "material" : 0
        }
      ],
      "name" : "BgMD_Mid_Desert_B_dune_tall"
    }
  ],
  "buffers" : [
    {
      "uri" : "BgMD_Mid_Desert_B_dune_tall.bin",
      "byteLength" : 1316
    }
  ],
  "bufferViews" : [
    {
      "buffer" : 0,
      "byteOffset" : 0,
      "byteLength" : 140
    },
    {
      "buffer" : 0,
      "byteOffset" : 140,
      "byteLength" : 252
    },
    {
      "buffer" : 0,
      "byteOffset" : 392,
      "byteLength" : 252
    },
    {
      "buffer" : 0,
      "byteOffset" : 644,
      "byteLength" : 336
    },
    {
      "buffer" : 0,
      "byteOffset" : 980,
      "byteLength" : 168
    },
    {
      "buffer" : 0,
      "byteOffset" : 1148,
      "byteLength" : 168
    }
  ],
  "accessors" : [
    {
      "bufferView" : 0,
      "componentType" : 5123,
      "count" : 69,
      "type" : "SCALAR"
    },
    {
      "bufferView" : 1,
      "min" : [ -8, 1.43051e-06, -11.25 ],
      "max" : [ 7.5625, 4.76867, 11.1875 ],
      "componentType" : 5126,
      "count" : 21,
      "type" : "VEC3"
    },
    {
      "bufferView" : 2,
      "componentType" : 5126,
      "count" : 21,
      "type" : "VEC3"
    },
    {
      "bufferView" : 3,
      "componentType" : 5126,
      "count" : 21,
      "type" : "VEC4"
    },
    {
      "bufferView" : 4,
      "componentType" : 5126,
      "count" : 21,
      "type" : "VEC2"
    },
    {
      "bufferView" : 5,
      "componentType" : 5126,
      "count" : 21,
      "type" : "VEC2"
    }
  ]
}
