{
  "asset" : {
    "generator" : "UE Viewer (umodel) build 1590",
    "version" : "2.0"
  },
  "scene" : 0,
  "scenes" : [
    {
      "nodes" : [ 0 ]
    }
  ],
  "nodes" : [
    {
      "name" : "BgMD_Mid_Snow_A",
      "mesh" : 0
    }
  ],
  "materials" : [
    {
      "name" : "BgMI_Mid_Snow_A",
      "pbrMetallicRoughness" : {
        "baseColorFactor" : [ 0.3, 0.3, 0.3, 1.0 ],
        "metallicFactor" : 0.1,
        "roughnessFactor" : 0.5
      }
    }
  ],
  "meshes" : [
    {
      "primitives" : [
        {
          "attributes" : {
            "POSITION" : 1,
            "NORMAL" : 2,
            "TANGENT" : 3,
            "TEXCOORD_0" : 4,
            "TEXCOORD_1" : 5
          },
          "indices" : 0,
          "material" : 0
        }
      ],
      "name" : "BgMD_Mid_Snow_A"
    }
  ],
  "buffers" : [
    {
      "uri" : "BgMD_Mid_Snow_A.bin",
      "byteLength" : 2360
    }
  ],
  "bufferViews" : [
    {
      "buffer" : 0,
      "byteOffset" : 0,
      "byteLength" : 288
    },
    {
      "buffer" : 0,
      "byteOffset" : 288,
      "byteLength" : 444
    },
    {
      "buffer" : 0,
      "byteOffset" : 732,
      "byteLength" : 444
    },
    {
      "buffer" : 0,
      "byteOffset" : 1176,
      "byteLength" : 592
    },
    {
      "buffer" : 0,
      "byteOffset" : 1768,
      "byteLength" : 296
    },
    {
      "buffer" : 0,
      "byteOffset" : 2064,
      "byteLength" : 296
    }
  ],
  "accessors" : [
    {
      "bufferView" : 0,
      "componentType" : 5123,
      "count" : 144,
      "type" : "SCALAR"
    },
    {
      "bufferView" : 1,
      "min" : [ -7.02258, -2.00516e-16, -3.96368 ],
      "max" : [ 7.02258, 12.875, -0.00362687 ],
      "componentType" : 5126,
      "count" : 37,
      "type" : "VEC3"
    },
    {
      "bufferView" : 2,
      "componentType" : 5126,
      "count" : 37,
      "type" : "VEC3"
    },
    {
      "bufferView" : 3,
      "componentType" : 5126,
      "count" : 37,
      "type" : "VEC4"
    },
    {
      "bufferView" : 4,
      "componentType" : 5126,
      "count" : 37,
      "type" : "VEC2"
    },
    {
      "bufferView" : 5,
      "componentType" : 5126,
      "count" : 37,
      "type" : "VEC2"
    }
  ]
}
