{
  "asset" : {
    "generator" : "UE Viewer (umodel) build 1590",
    "version" : "2.0"
  },
  "scene" : 0,
  "scenes" : [
    {
      "nodes" : [ 0 ]
    }
  ],
  "nodes" : [
    {
      "name" : "BgMD_Mid_Desert_B_dune_low",
      "mesh" : 0
    }
  ],
  "materials" : [
    {
      "name" : "BgMI_Mid_Desert_B",
      "pbrMetallicRoughness" : {
        "baseColorFactor" : [ 0.3, 0.3, 0.3, 1.0 ],
        "metallicFactor" : 0.1,
        "roughnessFactor" : 0.5
      }
    }
  ],
  "meshes" : [
    {
      "primitives" : [
        {
          "attributes" : {
            "POSITION" : 1,
            "NORMAL" : 2,
            "TANGENT" : 3,
            "TEXCOORD_0" : 4
          },
          "indices" : 0,
          "material" : 0
        }
      ],
      "name" : "BgMD_Mid_Desert_B_dune_low"
    }
  ],
  "buffers" : [
    {
      "uri" : "BgMD_Mid_Desert_B_dune_low.bin",
      "byteLength" : 1980
    }
  ],
  "bufferViews" : [
    {
      "buffer" : 0,
      "byteOffset" : 0,
      "byteLength" : 252
    },
    {
      "buffer" : 0,
      "byteOffset" : 252,
      "byteLength" : 432
    },
    {
      "buffer" : 0,
      "byteOffset" : 684,
      "byteLength" : 432
    },
    {
      "buffer" : 0,
      "byteOffset" : 1116,
      "byteLength" : 576
    },
    {
      "buffer" : 0,
      "byteOffset" : 1692,
      "byteLength" : 288
    }
  ],
  "accessors" : [
    {
      "bufferView" : 0,
      "componentType" : 5123,
      "count" : 126,
      "type" : "SCALAR"
    },
    {
      "bufferView" : 1,
      "min" : [ -8, 0.045435, -11.6559 ],
      "max" : [ 7.71006, 1.97197, 10.9326 ],
      "componentType" : 5126,
      "count" : 36,
      "type" : "VEC3"
    },
    {
      "bufferView" : 2,
      "componentType" : 5126,
      "count" : 36,
      "type" : "VEC3"
    },
    {
      "bufferView" : 3,
      "componentType" : 5126,
      "count" : 36,
      "type" : "VEC4"
    },
    {
      "bufferView" : 4,
      "componentType" : 5126,
      "count" : 36,
      "type" : "VEC2"
    }
  ]
}
