{
  "asset" : {
    "generator" : "UE Viewer (umodel) build 1590",
    "version" : "2.0"
  },
  "scene" : 0,
  "scenes" : [
    {
      "nodes" : [ 0 ]
    }
  ],
  "nodes" : [
    {
      "name" : "ObjMD_Church_Mount",
      "mesh" : 0
    }
  ],
  "materials" : [
    {
      "name" : "ObjMI_Church_Mount",
      "pbrMetallicRoughness" : {
        "baseColorFactor" : [ 0.3, 0.3, 0.3, 1.0 ],
        "metallicFactor" : 0.1,
        "roughnessFactor" : 0.5
      }
    }
  ],
  "meshes" : [
    {
      "primitives" : [
        {
          "attributes" : {
            "POSITION" : 1,
            "NORMAL" : 2,
            "TANGENT" : 3,
            "TEXCOORD_0" : 4,
            "TEXCOORD_1" : 5
          },
          "indices" : 0,
          "material" : 0
        }
      ],
      "name" : "ObjMD_Church_Mount"
    }
  ],
  "buffers" : [
    {
      "uri" : "ObjMD_Church_Mount.bin",
      "byteLength" : 196828
    }
  ],
  "bufferViews" : [
    {
      "buffer" : 0,
      "byteOffset" : 0,
      "byteLength" : 11412
    },
    {
      "buffer" : 0,
      "byteOffset" : 11412,
      "byteLength" : 39732
    },
    {
      "buffer" : 0,
      "byteOffset" : 51144,
      "byteLength" : 39732
    },
    {
      "buffer" : 0,
      "byteOffset" : 90876,
      "byteLength" : 52976
    },
    {
      "buffer" : 0,
      "byteOffset" : 143852,
      "byteLength" : 26488
    },
    {
      "buffer" : 0,
      "byteOffset" : 170340,
      "byteLength" : 26488
    }
  ],
  "accessors" : [
    {
      "bufferView" : 0,
      "componentType" : 5123,
      "count" : 5706,
      "type" : "SCALAR"
    },
    {
      "bufferView" : 1,
      "min" : [ -2.8371, -2.09204e-16, -3.41655 ],
      "max" : [ 2.8371, 13.0725, 3.41687 ],
      "componentType" : 5126,
      "count" : 3311,
      "type" : "VEC3"
    },
    {
      "bufferView" : 2,
      "componentType" : 5126,
      "count" : 3311,
      "type" : "VEC3"
    },
    {
      "bufferView" : 3,
      "componentType" : 5126,
      "count" : 3311,
      "type" : "VEC4"
    },
    {
      "bufferView" : 4,
      "componentType" : 5126,
      "count" : 3311,
      "type" : "VEC2"
    },
    {
      "bufferView" : 5,
      "componentType" : 5126,
      "count" : 3311,
      "type" : "VEC2"
    }
  ]
}
