{
  "asset" : {
    "generator" : "UE Viewer (umodel) build 1590",
    "version" : "2.0"
  },
  "scene" : 0,
  "scenes" : [
    {
      "nodes" : [ 0 ]
    }
  ],
  "nodes" : [
    {
      "name" : "ObjMD_Grass_B_weedB",
      "mesh" : 0
    }
  ],
  "materials" : [
    {
      "name" : "ObjMI_Grass_A_01",
      "pbrMetallicRoughness" : {
        "baseColorFactor" : [ 0.3, 0.3, 0.3, 1.0 ],
        "metallicFactor" : 0.1,
        "roughnessFactor" : 0.5
      }
    }
  ],
  "meshes" : [
    {
      "primitives" : [
        {
          "attributes" : {
            "POSITION" : 1,
            "NORMAL" : 2,
            "TANGENT" : 3,
            "COLOR_0" : 4,
            "TEXCOORD_0" : 5,
            "TEXCOORD_1" : 6
          },
          "indices" : 0,
          "material" : 0
        }
      ],
      "name" : "ObjMD_Grass_B_weedB"
    }
  ],
  "buffers" : [
    {
      "uri" : "ObjMD_Grass_B_weedB.bin",
      "byteLength" : 7764
    }
  ],
  "bufferViews" : [
    {
      "buffer" : 0,
      "byteOffset" : 0,
      "byteLength" : 684
    },
    {
      "buffer" : 0,
      "byteOffset" : 684,
      "byteLength" : 1416
    },
    {
      "buffer" : 0,
      "byteOffset" : 2100,
      "byteLength" : 1416
    },
    {
      "buffer" : 0,
      "byteOffset" : 3516,
      "byteLength" : 1888
    },
    {
      "buffer" : 0,
      "byteOffset" : 5404,
      "byteLength" : 472
    },
    {
      "buffer" : 0,
      "byteOffset" : 5876,
      "byteLength" : 944
    },
    {
      "buffer" : 0,
      "byteOffset" : 6820,
      "byteLength" : 944
    }
  ],
  "accessors" : [
    {
      "bufferView" : 0,
      "componentType" : 5123,
      "count" : 342,
      "type" : "SCALAR"
    },
    {
      "bufferView" : 1,
      "min" : [ -0.1875, -1.91351e-17, -0.375 ],
      "max" : [ 0, 1.1875, 0.375 ],
      "componentType" : 5126,
      "count" : 118,
      "type" : "VEC3"
    },
    {
      "bufferView" : 2,
      "componentType" : 5126,
      "count" : 118,
      "type" : "VEC3"
    },
    {
      "bufferView" : 3,
      "componentType" : 5126,
      "count" : 118,
      "type" : "VEC4"
    },
    {
      "bufferView" : 4,
      "normalized" : true,
      "componentType" : 5121,
      "count" : 118,
      "type" : "VEC4"
    },
    {
      "bufferView" : 5,
      "componentType" : 5126,
      "count" : 118,
      "type" : "VEC2"
    },
    {
      "bufferView" : 6,
      "componentType" : 5126,
      "count" : 118,
      "type" : "VEC2"
    }
  ]
}
