{
  "asset" : {
    "generator" : "UE Viewer (umodel) build 1590",
    "version" : "2.0"
  },
  "scene" : 0,
  "scenes" : [
    {
      "nodes" : [ 0 ]
    }
  ],
  "nodes" : [
    {
      "name" : "ObjMD_Grass_D_ivyA",
      "mesh" : 0
    }
  ],
  "materials" : [
    {
      "name" : "ObjMI_Grass_D_01",
      "pbrMetallicRoughness" : {
        "baseColorFactor" : [ 0.3, 0.3, 0.3, 1.0 ],
        "metallicFactor" : 0.1,
        "roughnessFactor" : 0.5
      }
    }
  ],
  "meshes" : [
    {
      "primitives" : [
        {
          "attributes" : {
            "POSITION" : 1,
            "NORMAL" : 2,
            "TANGENT" : 3,
            "TEXCOORD_0" : 4,
            "TEXCOORD_1" : 5
          },
          "indices" : 0,
          "material" : 0
        }
      ],
      "name" : "ObjMD_Grass_D_ivyA"
    }
  ],
  "buffers" : [
    {
      "uri" : "ObjMD_Grass_D_ivyA.bin",
      "byteLength" : 41280
    }
  ],
  "bufferViews" : [
    {
      "buffer" : 0,
      "byteOffset" : 0,
      "byteLength" : 3984
    },
    {
      "buffer" : 0,
      "byteOffset" : 3984,
      "byteLength" : 7992
    },
    {
      "buffer" : 0,
      "byteOffset" : 11976,
      "byteLength" : 7992
    },
    {
      "buffer" : 0,
      "byteOffset" : 19968,
      "byteLength" : 10656
    },
    {
      "buffer" : 0,
      "byteOffset" : 30624,
      "byteLength" : 5328
    },
    {
      "buffer" : 0,
      "byteOffset" : 35952,
      "byteLength" : 5328
    }
  ],
  "accessors" : [
    {
      "bufferView" : 0,
      "componentType" : 5123,
      "count" : 1992,
      "type" : "SCALAR"
    },
    {
      "bufferView" : 1,
      "min" : [ 0, -3.82702e-17, -1.25 ],
      "max" : [ 0, 4.5625, 1.25 ],
      "componentType" : 5126,
      "count" : 666,
      "type" : "VEC3"
    },
    {
      "bufferView" : 2,
      "componentType" : 5126,
      "count" : 666,
      "type" : "VEC3"
    },
    {
      "bufferView" : 3,
      "componentType" : 5126,
      "count" : 666,
      "type" : "VEC4"
    },
    {
      "bufferView" : 4,
      "componentType" : 5126,
      "count" : 666,
      "type" : "VEC2"
    },
    {
      "bufferView" : 5,
      "componentType" : 5126,
      "count" : 666,
      "type" : "VEC2"
    }
  ]
}
