{
  "asset" : {
    "generator" : "UE Viewer (umodel) build 1590",
    "version" : "2.0"
  },
  "scene" : 0,
  "scenes" : [
    {
      "nodes" : [ 0 ]
    }
  ],
  "nodes" : [
    {
      "name" : "ObjMD_Grass_J",
      "mesh" : 0
    }
  ],
  "materials" : [
    {
      "name" : "ObjMI_Grass_J",
      "pbrMetallicRoughness" : {
        "baseColorFactor" : [ 0.3, 0.3, 0.3, 1.0 ],
        "metallicFactor" : 0.1,
        "roughnessFactor" : 0.5
      }
    }
  ],
  "meshes" : [
    {
      "primitives" : [
        {
          "attributes" : {
            "POSITION" : 1,
            "NORMAL" : 2,
            "TANGENT" : 3,
            "COLOR_0" : 4,
            "TEXCOORD_0" : 5,
            "TEXCOORD_1" : 6
          },
          "indices" : 0,
          "material" : 0
        }
      ],
      "name" : "ObjMD_Grass_J"
    }
  ],
  "buffers" : [
    {
      "uri" : "ObjMD_Grass_J.bin",
      "byteLength" : 30672
    }
  ],
  "bufferViews" : [
    {
      "buffer" : 0,
      "byteOffset" : 0,
      "byteLength" : 2592
    },
    {
      "buffer" : 0,
      "byteOffset" : 2592,
      "byteLength" : 5616
    },
    {
      "buffer" : 0,
      "byteOffset" : 8208,
      "byteLength" : 5616
    },
    {
      "buffer" : 0,
      "byteOffset" : 13824,
      "byteLength" : 7488
    },
    {
      "buffer" : 0,
      "byteOffset" : 21312,
      "byteLength" : 1872
    },
    {
      "buffer" : 0,
      "byteOffset" : 23184,
      "byteLength" : 3744
    },
    {
      "buffer" : 0,
      "byteOffset" : 26928,
      "byteLength" : 3744
    }
  ],
  "accessors" : [
    {
      "bufferView" : 0,
      "componentType" : 5123,
      "count" : 1296,
      "type" : "SCALAR"
    },
    {
      "bufferView" : 1,
      "min" : [ -1.03368, -0.0734576, -1.35375 ],
      "max" : [ 1.07868, 0.990385, 1.14729 ],
      "componentType" : 5126,
      "count" : 468,
      "type" : "VEC3"
    },
    {
      "bufferView" : 2,
      "componentType" : 5126,
      "count" : 468,
      "type" : "VEC3"
    },
    {
      "bufferView" : 3,
      "componentType" : 5126,
      "count" : 468,
      "type" : "VEC4"
    },
    {
      "bufferView" : 4,
      "normalized" : true,
      "componentType" : 5121,
      "count" : 468,
      "type" : "VEC4"
    },
    {
      "bufferView" : 5,
      "componentType" : 5126,
      "count" : 468,
      "type" : "VEC2"
    },
    {
      "bufferView" : 6,
      "componentType" : 5126,
      "count" : 468,
      "type" : "VEC2"
    }
  ]
}
