{
  "asset" : {
    "generator" : "UE Viewer (umodel) build 1590",
    "version" : "2.0"
  },
  "scene" : 0,
  "scenes" : [
    {
      "nodes" : [ 0 ]
    }
  ],
  "nodes" : [
    {
      "name" : "ObjMD_Grass_Wall_Long_A",
      "mesh" : 0
    }
  ],
  "materials" : [
    {
      "name" : "ObjMI_Grass_Wall_long_A",
      "pbrMetallicRoughness" : {
        "baseColorFactor" : [ 0.3, 0.3, 0.3, 1.0 ],
        "metallicFactor" : 0.1,
        "roughnessFactor" : 0.5
      }
    }
  ],
  "meshes" : [
    {
      "primitives" : [
        {
          "attributes" : {
            "POSITION" : 1,
            "NORMAL" : 2,
            "TANGENT" : 3,
            "TEXCOORD_0" : 4,
            "TEXCOORD_1" : 5
          },
          "indices" : 0,
          "material" : 0
        }
      ],
      "name" : "ObjMD_Grass_Wall_Long_A"
    }
  ],
  "buffers" : [
    {
      "uri" : "ObjMD_Grass_Wall_Long_A.bin",
      "byteLength" : 28716
    }
  ],
  "bufferViews" : [
    {
      "buffer" : 0,
      "byteOffset" : 0,
      "byteLength" : 2732
    },
    {
      "buffer" : 0,
      "byteOffset" : 2732,
      "byteLength" : 5568
    },
    {
      "buffer" : 0,
      "byteOffset" : 8300,
      "byteLength" : 5568
    },
    {
      "buffer" : 0,
      "byteOffset" : 13868,
      "byteLength" : 7424
    },
    {
      "buffer" : 0,
      "byteOffset" : 21292,
      "byteLength" : 3712
    },
    {
      "buffer" : 0,
      "byteOffset" : 25004,
      "byteLength" : 3712
    }
  ],
  "accessors" : [
    {
      "bufferView" : 0,
      "componentType" : 5123,
      "count" : 1365,
      "type" : "SCALAR"
    },
    {
      "bufferView" : 1,
      "min" : [ -0.121591, -2.4375, -0.875 ],
      "max" : [ 0.0607144, 0, 1.3125 ],
      "componentType" : 5126,
      "count" : 464,
      "type" : "VEC3"
    },
    {
      "bufferView" : 2,
      "componentType" : 5126,
      "count" : 464,
      "type" : "VEC3"
    },
    {
      "bufferView" : 3,
      "componentType" : 5126,
      "count" : 464,
      "type" : "VEC4"
    },
    {
      "bufferView" : 4,
      "componentType" : 5126,
      "count" : 464,
      "type" : "VEC2"
    },
    {
      "bufferView" : 5,
      "componentType" : 5126,
      "count" : 464,
      "type" : "VEC2"
    }
  ]
}
