{
  "asset" : {
    "generator" : "UE Viewer (umodel) build 1590",
    "version" : "2.0"
  },
  "scene" : 0,
  "scenes" : [
    {
      "nodes" : [ 0 ]
    }
  ],
  "nodes" : [
    {
      "name" : "ObjMD_Grass_A_few_set",
      "mesh" : 0
    }
  ],
  "materials" : [
    {
      "name" : "ObjMI_Grass_A_01",
      "pbrMetallicRoughness" : {
        "baseColorFactor" : [ 0.3, 0.3, 0.3, 1.0 ],
        "metallicFactor" : 0.1,
        "roughnessFactor" : 0.5
      }
    }
  ],
  "meshes" : [
    {
      "primitives" : [
        {
          "attributes" : {
            "POSITION" : 1,
            "NORMAL" : 2,
            "TANGENT" : 3,
            "COLOR_0" : 4,
            "TEXCOORD_0" : 5,
            "TEXCOORD_1" : 6
          },
          "indices" : 0,
          "material" : 0
        }
      ],
      "name" : "ObjMD_Grass_A_few_set"
    }
  ],
  "buffers" : [
    {
      "uri" : "ObjMD_Grass_A_few_set.bin",
      "byteLength" : 31692
    }
  ],
  "bufferViews" : [
    {
      "buffer" : 0,
      "byteOffset" : 0,
      "byteLength" : 2832
    },
    {
      "buffer" : 0,
      "byteOffset" : 2832,
      "byteLength" : 5772
    },
    {
      "buffer" : 0,
      "byteOffset" : 8604,
      "byteLength" : 5772
    },
    {
      "buffer" : 0,
      "byteOffset" : 14376,
      "byteLength" : 7696
    },
    {
      "buffer" : 0,
      "byteOffset" : 22072,
      "byteLength" : 1924
    },
    {
      "buffer" : 0,
      "byteOffset" : 23996,
      "byteLength" : 3848
    },
    {
      "buffer" : 0,
      "byteOffset" : 27844,
      "byteLength" : 3848
    }
  ],
  "accessors" : [
    {
      "bufferView" : 0,
      "componentType" : 5123,
      "count" : 1416,
      "type" : "SCALAR"
    },
    {
      "bufferView" : 1,
      "min" : [ -1.03125, -7.84539e-17, -1.34375 ],
      "max" : [ 1.10289, 0.246274, 2.34494 ],
      "componentType" : 5126,
      "count" : 481,
      "type" : "VEC3"
    },
    {
      "bufferView" : 2,
      "componentType" : 5126,
      "count" : 481,
      "type" : "VEC3"
    },
    {
      "bufferView" : 3,
      "componentType" : 5126,
      "count" : 481,
      "type" : "VEC4"
    },
    {
      "bufferView" : 4,
      "normalized" : true,
      "componentType" : 5121,
      "count" : 481,
      "type" : "VEC4"
    },
    {
      "bufferView" : 5,
      "componentType" : 5126,
      "count" : 481,
      "type" : "VEC2"
    },
    {
      "bufferView" : 6,
      "componentType" : 5126,
      "count" : 481,
      "type" : "VEC2"
    }
  ]
}
