{
  "asset" : {
    "generator" : "UE Viewer (umodel) build 1590",
    "version" : "2.0"
  },
  "scene" : 0,
  "scenes" : [
    {
      "nodes" : [ 0 ]
    }
  ],
  "nodes" : [
    {
      "name" : "ObjMD_Grass_Wall_Short_C",
      "mesh" : 0
    }
  ],
  "materials" : [
    {
      "name" : "ObjMI_Grass_Wall_short_A",
      "pbrMetallicRoughness" : {
        "baseColorFactor" : [ 0.3, 0.3, 0.3, 1.0 ],
        "metallicFactor" : 0.1,
        "roughnessFactor" : 0.5
      }
    }
  ],
  "meshes" : [
    {
      "primitives" : [
        {
          "attributes" : {
            "POSITION" : 1,
            "NORMAL" : 2,
            "TANGENT" : 3,
            "TEXCOORD_0" : 4,
            "TEXCOORD_1" : 5
          },
          "indices" : 0,
          "material" : 0
        }
      ],
      "name" : "ObjMD_Grass_Wall_Short_C"
    }
  ],
  "buffers" : [
    {
      "uri" : "ObjMD_Grass_Wall_Short_C.bin",
      "byteLength" : 44204
    }
  ],
  "bufferViews" : [
    {
      "buffer" : 0,
      "byteOffset" : 0,
      "byteLength" : 4220
    },
    {
      "buffer" : 0,
      "byteOffset" : 4220,
      "byteLength" : 8568
    },
    {
      "buffer" : 0,
      "byteOffset" : 12788,
      "byteLength" : 8568
    },
    {
      "buffer" : 0,
      "byteOffset" : 21356,
      "byteLength" : 11424
    },
    {
      "buffer" : 0,
      "byteOffset" : 32780,
      "byteLength" : 5712
    },
    {
      "buffer" : 0,
      "byteOffset" : 38492,
      "byteLength" : 5712
    }
  ],
  "accessors" : [
    {
      "bufferView" : 0,
      "componentType" : 5123,
      "count" : 2109,
      "type" : "SCALAR"
    },
    {
      "bufferView" : 1,
      "min" : [ -0.125, 4.09676e-16, -1 ],
      "max" : [ 3.27575e-16, 1.8125, 1 ],
      "componentType" : 5126,
      "count" : 714,
      "type" : "VEC3"
    },
    {
      "bufferView" : 2,
      "componentType" : 5126,
      "count" : 714,
      "type" : "VEC3"
    },
    {
      "bufferView" : 3,
      "componentType" : 5126,
      "count" : 714,
      "type" : "VEC4"
    },
    {
      "bufferView" : 4,
      "componentType" : 5126,
      "count" : 714,
      "type" : "VEC2"
    },
    {
      "bufferView" : 5,
      "componentType" : 5126,
      "count" : 714,
      "type" : "VEC2"
    }
  ]
}
