{
  "asset" : {
    "generator" : "UE Viewer (umodel) build 1590",
    "version" : "2.0"
  },
  "scene" : 0,
  "scenes" : [
    {
      "nodes" : [ 0 ]
    }
  ],
  "nodes" : [
    {
      "name" : "ObjMD_Grass_D_ivyC",
      "mesh" : 0
    }
  ],
  "materials" : [
    {
      "name" : "ObjMI_Grass_D_01",
      "pbrMetallicRoughness" : {
        "baseColorFactor" : [ 0.3, 0.3, 0.3, 1.0 ],
        "metallicFactor" : 0.1,
        "roughnessFactor" : 0.5
      }
    }
  ],
  "meshes" : [
    {
      "primitives" : [
        {
          "attributes" : {
            "POSITION" : 1,
            "NORMAL" : 2,
            "TANGENT" : 3,
            "TEXCOORD_0" : 4,
            "TEXCOORD_1" : 5
          },
          "indices" : 0,
          "material" : 0
        }
      ],
      "name" : "ObjMD_Grass_D_ivyC"
    }
  ],
  "buffers" : [
    {
      "uri" : "ObjMD_Grass_D_ivyC.bin",
      "byteLength" : 13920
    }
  ],
  "bufferViews" : [
    {
      "buffer" : 0,
      "byteOffset" : 0,
      "byteLength" : 1376
    },
    {
      "buffer" : 0,
      "byteOffset" : 1376,
      "byteLength" : 2688
    },
    {
      "buffer" : 0,
      "byteOffset" : 4064,
      "byteLength" : 2688
    },
    {
      "buffer" : 0,
      "byteOffset" : 6752,
      "byteLength" : 3584
    },
    {
      "buffer" : 0,
      "byteOffset" : 10336,
      "byteLength" : 1792
    },
    {
      "buffer" : 0,
      "byteOffset" : 12128,
      "byteLength" : 1792
    }
  ],
  "accessors" : [
    {
      "bufferView" : 0,
      "componentType" : 5123,
      "count" : 687,
      "type" : "SCALAR"
    },
    {
      "bufferView" : 1,
      "min" : [ 0, 0.5625, -0.46875 ],
      "max" : [ 0, 4.3125, 0.46875 ],
      "componentType" : 5126,
      "count" : 224,
      "type" : "VEC3"
    },
    {
      "bufferView" : 2,
      "componentType" : 5126,
      "count" : 224,
      "type" : "VEC3"
    },
    {
      "bufferView" : 3,
      "componentType" : 5126,
      "count" : 224,
      "type" : "VEC4"
    },
    {
      "bufferView" : 4,
      "componentType" : 5126,
      "count" : 224,
      "type" : "VEC2"
    },
    {
      "bufferView" : 5,
      "componentType" : 5126,
      "count" : 224,
      "type" : "VEC2"
    }
  ]
}
