{
  "asset" : {
    "generator" : "UE Viewer (umodel) build 1590",
    "version" : "2.0"
  },
  "scene" : 0,
  "scenes" : [
    {
      "nodes" : [ 0 ]
    }
  ],
  "nodes" : [
    {
      "name" : "ObjMD_Grass_Hkoke",
      "mesh" : 0
    }
  ],
  "materials" : [
    {
      "name" : "ObjMI_Grass_A_01",
      "pbrMetallicRoughness" : {
        "baseColorFactor" : [ 0.3, 0.3, 0.3, 1.0 ],
        "metallicFactor" : 0.1,
        "roughnessFactor" : 0.5
      }
    }
  ],
  "meshes" : [
    {
      "primitives" : [
        {
          "attributes" : {
            "POSITION" : 1,
            "NORMAL" : 2,
            "TANGENT" : 3,
            "TEXCOORD_0" : 4,
            "TEXCOORD_1" : 5
          },
          "indices" : 0,
          "material" : 0
        }
      ],
      "name" : "ObjMD_Grass_Hkoke"
    }
  ],
  "buffers" : [
    {
      "uri" : "ObjMD_Grass_Hkoke.bin",
      "byteLength" : 14364
    }
  ],
  "bufferViews" : [
    {
      "buffer" : 0,
      "byteOffset" : 0,
      "byteLength" : 924
    },
    {
      "buffer" : 0,
      "byteOffset" : 924,
      "byteLength" : 2880
    },
    {
      "buffer" : 0,
      "byteOffset" : 3804,
      "byteLength" : 2880
    },
    {
      "buffer" : 0,
      "byteOffset" : 6684,
      "byteLength" : 3840
    },
    {
      "buffer" : 0,
      "byteOffset" : 10524,
      "byteLength" : 1920
    },
    {
      "buffer" : 0,
      "byteOffset" : 12444,
      "byteLength" : 1920
    }
  ],
  "accessors" : [
    {
      "bufferView" : 0,
      "componentType" : 5123,
      "count" : 462,
      "type" : "SCALAR"
    },
    {
      "bufferView" : 1,
      "min" : [ -1.17071, -0.0823795, -1.00613 ],
      "max" : [ 0.905167, 0.146687, 1.13113 ],
      "componentType" : 5126,
      "count" : 240,
      "type" : "VEC3"
    },
    {
      "bufferView" : 2,
      "componentType" : 5126,
      "count" : 240,
      "type" : "VEC3"
    },
    {
      "bufferView" : 3,
      "componentType" : 5126,
      "count" : 240,
      "type" : "VEC4"
    },
    {
      "bufferView" : 4,
      "componentType" : 5126,
      "count" : 240,
      "type" : "VEC2"
    },
    {
      "bufferView" : 5,
      "componentType" : 5126,
      "count" : 240,
      "type" : "VEC2"
    }
  ]
}
