{
  "asset" : {
    "generator" : "UE Viewer (umodel) build 1590",
    "version" : "2.0"
  },
  "scene" : 0,
  "scenes" : [
    {
      "nodes" : [ 0 ]
    }
  ],
  "nodes" : [
    {
      "name" : "ObjMD_Grass_A_long",
      "mesh" : 0
    }
  ],
  "materials" : [
    {
      "name" : "ObjMI_Grass_A_01",
      "pbrMetallicRoughness" : {
        "baseColorFactor" : [ 0.3, 0.3, 0.3, 1.0 ],
        "metallicFactor" : 0.1,
        "roughnessFactor" : 0.5
      }
    }
  ],
  "meshes" : [
    {
      "primitives" : [
        {
          "attributes" : {
            "POSITION" : 1,
            "NORMAL" : 2,
            "TANGENT" : 3,
            "COLOR_0" : 4,
            "TEXCOORD_0" : 5,
            "TEXCOORD_1" : 6
          },
          "indices" : 0,
          "material" : 0
        }
      ],
      "name" : "ObjMD_Grass_A_long"
    }
  ],
  "buffers" : [
    {
      "uri" : "ObjMD_Grass_A_long.bin",
      "byteLength" : 4704
    }
  ],
  "bufferViews" : [
    {
      "buffer" : 0,
      "byteOffset" : 0,
      "byteLength" : 444
    },
    {
      "buffer" : 0,
      "byteOffset" : 444,
      "byteLength" : 852
    },
    {
      "buffer" : 0,
      "byteOffset" : 1296,
      "byteLength" : 852
    },
    {
      "buffer" : 0,
      "byteOffset" : 2148,
      "byteLength" : 1136
    },
    {
      "buffer" : 0,
      "byteOffset" : 3284,
      "byteLength" : 284
    },
    {
      "buffer" : 0,
      "byteOffset" : 3568,
      "byteLength" : 568
    },
    {
      "buffer" : 0,
      "byteOffset" : 4136,
      "byteLength" : 568
    }
  ],
  "accessors" : [
    {
      "bufferView" : 0,
      "componentType" : 5123,
      "count" : 222,
      "type" : "SCALAR"
    },
    {
      "bufferView" : 1,
      "min" : [ -0.1875, -7.65404e-18, -0.3125 ],
      "max" : [ 0, 0.875, 0.3125 ],
      "componentType" : 5126,
      "count" : 71,
      "type" : "VEC3"
    },
    {
      "bufferView" : 2,
      "componentType" : 5126,
      "count" : 71,
      "type" : "VEC3"
    },
    {
      "bufferView" : 3,
      "componentType" : 5126,
      "count" : 71,
      "type" : "VEC4"
    },
    {
      "bufferView" : 4,
      "normalized" : true,
      "componentType" : 5121,
      "count" : 71,
      "type" : "VEC4"
    },
    {
      "bufferView" : 5,
      "componentType" : 5126,
      "count" : 71,
      "type" : "VEC2"
    },
    {
      "bufferView" : 6,
      "componentType" : 5126,
      "count" : 71,
      "type" : "VEC2"
    }
  ]
}
