{
  "asset" : {
    "generator" : "UE Viewer (umodel) build 1590",
    "version" : "2.0"
  },
  "scene" : 0,
  "scenes" : [
    {
      "nodes" : [ 0 ]
    }
  ],
  "nodes" : [
    {
      "name" : "ObjMD_Grass_A_Long_B",
      "mesh" : 0
    }
  ],
  "materials" : [
    {
      "name" : "ObjMI_Grass_B",
      "pbrMetallicRoughness" : {
        "baseColorFactor" : [ 0.3, 0.3, 0.3, 1.0 ],
        "metallicFactor" : 0.1,
        "roughnessFactor" : 0.5
      }
    }
  ],
  "meshes" : [
    {
      "primitives" : [
        {
          "attributes" : {
            "POSITION" : 1,
            "NORMAL" : 2,
            "TANGENT" : 3,
            "COLOR_0" : 4,
            "TEXCOORD_0" : 5,
            "TEXCOORD_1" : 6
          },
          "indices" : 0,
          "material" : 0
        }
      ],
      "name" : "ObjMD_Grass_A_Long_B"
    }
  ],
  "buffers" : [
    {
      "uri" : "ObjMD_Grass_A_Long_B.bin",
      "byteLength" : 7896
    }
  ],
  "bufferViews" : [
    {
      "buffer" : 0,
      "byteOffset" : 0,
      "byteLength" : 696
    },
    {
      "buffer" : 0,
      "byteOffset" : 696,
      "byteLength" : 1440
    },
    {
      "buffer" : 0,
      "byteOffset" : 2136,
      "byteLength" : 1440
    },
    {
      "buffer" : 0,
      "byteOffset" : 3576,
      "byteLength" : 1920
    },
    {
      "buffer" : 0,
      "byteOffset" : 5496,
      "byteLength" : 480
    },
    {
      "buffer" : 0,
      "byteOffset" : 5976,
      "byteLength" : 960
    },
    {
      "buffer" : 0,
      "byteOffset" : 6936,
      "byteLength" : 960
    }
  ],
  "accessors" : [
    {
      "bufferView" : 0,
      "componentType" : 5123,
      "count" : 348,
      "type" : "SCALAR"
    },
    {
      "bufferView" : 1,
      "min" : [ -0.0625, 2.97193e-16, -0.8125 ],
      "max" : [ 0, 1.3125, 0.8125 ],
      "componentType" : 5126,
      "count" : 120,
      "type" : "VEC3"
    },
    {
      "bufferView" : 2,
      "componentType" : 5126,
      "count" : 120,
      "type" : "VEC3"
    },
    {
      "bufferView" : 3,
      "componentType" : 5126,
      "count" : 120,
      "type" : "VEC4"
    },
    {
      "bufferView" : 4,
      "normalized" : true,
      "componentType" : 5121,
      "count" : 120,
      "type" : "VEC4"
    },
    {
      "bufferView" : 5,
      "componentType" : 5126,
      "count" : 120,
      "type" : "VEC2"
    },
    {
      "bufferView" : 6,
      "componentType" : 5126,
      "count" : 120,
      "type" : "VEC2"
    }
  ]
}
