{
  "asset" : {
    "generator" : "UE Viewer (umodel) build 1590",
    "version" : "2.0"
  },
  "scene" : 0,
  "scenes" : [
    {
      "nodes" : [ 0 ]
    }
  ],
  "nodes" : [
    {
      "name" : "ObjMD_Grass_A_alone",
      "mesh" : 0
    }
  ],
  "materials" : [
    {
      "name" : "ObjMI_Grass_A_03",
      "pbrMetallicRoughness" : {
        "baseColorFactor" : [ 0.3, 0.3, 0.3, 1.0 ],
        "metallicFactor" : 0.1,
        "roughnessFactor" : 0.5
      }
    }
  ],
  "meshes" : [
    {
      "primitives" : [
        {
          "attributes" : {
            "POSITION" : 1,
            "NORMAL" : 2,
            "TANGENT" : 3,
            "COLOR_0" : 4,
            "TEXCOORD_0" : 5,
            "TEXCOORD_1" : 6
          },
          "indices" : 0,
          "material" : 0
        }
      ],
      "name" : "ObjMD_Grass_A_alone"
    }
  ],
  "buffers" : [
    {
      "uri" : "ObjMD_Grass_A_alone.bin",
      "byteLength" : 2648
    }
  ],
  "bufferViews" : [
    {
      "buffer" : 0,
      "byteOffset" : 0,
      "byteLength" : 248
    },
    {
      "buffer" : 0,
      "byteOffset" : 248,
      "byteLength" : 480
    },
    {
      "buffer" : 0,
      "byteOffset" : 728,
      "byteLength" : 480
    },
    {
      "buffer" : 0,
      "byteOffset" : 1208,
      "byteLength" : 640
    },
    {
      "buffer" : 0,
      "byteOffset" : 1848,
      "byteLength" : 160
    },
    {
      "buffer" : 0,
      "byteOffset" : 2008,
      "byteLength" : 320
    },
    {
      "buffer" : 0,
      "byteOffset" : 2328,
      "byteLength" : 320
    }
  ],
  "accessors" : [
    {
      "bufferView" : 0,
      "componentType" : 5123,
      "count" : 123,
      "type" : "SCALAR"
    },
    {
      "bufferView" : 1,
      "min" : [ 0, 8.49769e-34, -1.31952e-18 ],
      "max" : [ 0.0716377, 0.246274, 1.00119 ],
      "componentType" : 5126,
      "count" : 40,
      "type" : "VEC3"
    },
    {
      "bufferView" : 2,
      "componentType" : 5126,
      "count" : 40,
      "type" : "VEC3"
    },
    {
      "bufferView" : 3,
      "componentType" : 5126,
      "count" : 40,
      "type" : "VEC4"
    },
    {
      "bufferView" : 4,
      "normalized" : true,
      "componentType" : 5121,
      "count" : 40,
      "type" : "VEC4"
    },
    {
      "bufferView" : 5,
      "componentType" : 5126,
      "count" : 40,
      "type" : "VEC2"
    },
    {
      "bufferView" : 6,
      "componentType" : 5126,
      "count" : 40,
      "type" : "VEC2"
    }
  ]
}
