{
  "asset" : {
    "generator" : "UE Viewer (umodel) build 1590",
    "version" : "2.0"
  },
  "scene" : 0,
  "scenes" : [
    {
      "nodes" : [ 0 ]
    }
  ],
  "nodes" : [
    {
      "name" : "ObjMD_Grass_BlueFlower_A_alone",
      "mesh" : 0
    }
  ],
  "materials" : [
    {
      "name" : "ObjMI_Grass_A_BlueFlower_A",
      "pbrMetallicRoughness" : {
        "baseColorFactor" : [ 0.3, 0.3, 0.3, 1.0 ],
        "metallicFactor" : 0.1,
        "roughnessFactor" : 0.5
      }
    },
    {
      "name" : "ObjMI_Grass_A_BlueFlower_B",
      "pbrMetallicRoughness" : {
        "baseColorFactor" : [ 0.9, 0.3, 0.3, 1.0 ],
        "metallicFactor" : 0.1,
        "roughnessFactor" : 0.5
      }
    }
  ],
  "meshes" : [
    {
      "primitives" : [
        {
          "attributes" : {
            "POSITION" : 1,
            "NORMAL" : 2,
            "TANGENT" : 3,
            "TEXCOORD_0" : 4
          },
          "indices" : 0,
          "material" : 0
        },
        {
          "attributes" : {
            "POSITION" : 6,
            "NORMAL" : 7,
            "TANGENT" : 8,
            "TEXCOORD_0" : 9
          },
          "indices" : 5,
          "material" : 1
        }
      ],
      "name" : "ObjMD_Grass_BlueFlower_A_alone"
    }
  ],
  "buffers" : [
    {
      "uri" : "ObjMD_Grass_BlueFlower_A_alone.bin",
      "byteLength" : 2880
    }
  ],
  "bufferViews" : [
    {
      "buffer" : 0,
      "byteOffset" : 0,
      "byteLength" : 144
    },
    {
      "buffer" : 0,
      "byteOffset" : 144,
      "byteLength" : 300
    },
    {
      "buffer" : 0,
      "byteOffset" : 444,
      "byteLength" : 300
    },
    {
      "buffer" : 0,
      "byteOffset" : 744,
      "byteLength" : 400
    },
    {
      "buffer" : 0,
      "byteOffset" : 1144,
      "byteLength" : 200
    },
    {
      "buffer" : 0,
      "byteOffset" : 1344,
      "byteLength" : 96
    },
    {
      "buffer" : 0,
      "byteOffset" : 1440,
      "byteLength" : 360
    },
    {
      "buffer" : 0,
      "byteOffset" : 1800,
      "byteLength" : 360
    },
    {
      "buffer" : 0,
      "byteOffset" : 2160,
      "byteLength" : 480
    },
    {
      "buffer" : 0,
      "byteOffset" : 2640,
      "byteLength" : 240
    }
  ],
  "accessors" : [
    {
      "bufferView" : 0,
      "componentType" : 5123,
      "count" : 72,
      "type" : "SCALAR"
    },
    {
      "bufferView" : 1,
      "min" : [ -0.125, 1.00972e-16, -0.125 ],
      "max" : [ 0.1875, 0.0166686, 0.1875 ],
      "componentType" : 5126,
      "count" : 25,
      "type" : "VEC3"
    },
    {
      "bufferView" : 2,
      "componentType" : 5126,
      "count" : 25,
      "type" : "VEC3"
    },
    {
      "bufferView" : 3,
      "componentType" : 5126,
      "count" : 25,
      "type" : "VEC4"
    },
    {
      "bufferView" : 4,
      "componentType" : 5126,
      "count" : 25,
      "type" : "VEC2"
    },
    {
      "bufferView" : 5,
      "componentType" : 5123,
      "count" : 48,
      "type" : "SCALAR"
    },
    {
      "bufferView" : 6,
      "min" : [ -0.0792354, 9.9058e-17, -0.0792354 ],
      "max" : [ 0.141735, 0.078125, 0.141735 ],
      "componentType" : 5126,
      "count" : 30,
      "type" : "VEC3"
    },
    {
      "bufferView" : 7,
      "componentType" : 5126,
      "count" : 30,
      "type" : "VEC3"
    },
    {
      "bufferView" : 8,
      "componentType" : 5126,
      "count" : 30,
      "type" : "VEC4"
    },
    {
      "bufferView" : 9,
      "componentType" : 5126,
      "count" : 30,
      "type" : "VEC2"
    }
  ]
}
