{
  "asset" : {
    "generator" : "UE Viewer (umodel) build 1590",
    "version" : "2.0"
  },
  "scene" : 0,
  "scenes" : [
    {
      "nodes" : [ 0 ]
    }
  ],
  "nodes" : [
    {
      "name" : "ObjMD_Grass_D_ivyB",
      "mesh" : 0
    }
  ],
  "materials" : [
    {
      "name" : "ObjMI_Grass_D_01",
      "pbrMetallicRoughness" : {
        "baseColorFactor" : [ 0.3, 0.3, 0.3, 1.0 ],
        "metallicFactor" : 0.1,
        "roughnessFactor" : 0.5
      }
    }
  ],
  "meshes" : [
    {
      "primitives" : [
        {
          "attributes" : {
            "POSITION" : 1,
            "NORMAL" : 2,
            "TANGENT" : 3,
            "TEXCOORD_0" : 4,
            "TEXCOORD_1" : 5
          },
          "indices" : 0,
          "material" : 0
        }
      ],
      "name" : "ObjMD_Grass_D_ivyB"
    }
  ],
  "buffers" : [
    {
      "uri" : "ObjMD_Grass_D_ivyB.bin",
      "byteLength" : 17476
    }
  ],
  "bufferViews" : [
    {
      "buffer" : 0,
      "byteOffset" : 0,
      "byteLength" : 1740
    },
    {
      "buffer" : 0,
      "byteOffset" : 1740,
      "byteLength" : 3372
    },
    {
      "buffer" : 0,
      "byteOffset" : 5112,
      "byteLength" : 3372
    },
    {
      "buffer" : 0,
      "byteOffset" : 8484,
      "byteLength" : 4496
    },
    {
      "buffer" : 0,
      "byteOffset" : 12980,
      "byteLength" : 2248
    },
    {
      "buffer" : 0,
      "byteOffset" : 15228,
      "byteLength" : 2248
    }
  ],
  "accessors" : [
    {
      "bufferView" : 0,
      "componentType" : 5123,
      "count" : 870,
      "type" : "SCALAR"
    },
    {
      "bufferView" : 1,
      "min" : [ 0, 5.74053e-18, -0.46875 ],
      "max" : [ 0, 3.75, 0.46875 ],
      "componentType" : 5126,
      "count" : 281,
      "type" : "VEC3"
    },
    {
      "bufferView" : 2,
      "componentType" : 5126,
      "count" : 281,
      "type" : "VEC3"
    },
    {
      "bufferView" : 3,
      "componentType" : 5126,
      "count" : 281,
      "type" : "VEC4"
    },
    {
      "bufferView" : 4,
      "componentType" : 5126,
      "count" : 281,
      "type" : "VEC2"
    },
    {
      "bufferView" : 5,
      "componentType" : 5126,
      "count" : 281,
      "type" : "VEC2"
    }
  ]
}
