{
  "asset" : {
    "generator" : "UE Viewer (umodel) build 1590",
    "version" : "2.0"
  },
  "scene" : 0,
  "scenes" : [
    {
      "nodes" : [ 0 ]
    }
  ],
  "nodes" : [
    {
      "name" : "ObjMD_Barrel_A",
      "mesh" : 0
    }
  ],
  "materials" : [
    {
      "name" : "ObjMI_Barrel_A",
      "pbrMetallicRoughness" : {
        "baseColorFactor" : [ 0.3, 0.3, 0.3, 1.0 ],
        "metallicFactor" : 0.1,
        "roughnessFactor" : 0.5
      }
    }
  ],
  "meshes" : [
    {
      "primitives" : [
        {
          "attributes" : {
            "POSITION" : 1,
            "NORMAL" : 2,
            "TANGENT" : 3,
            "TEXCOORD_0" : 4,
            "TEXCOORD_1" : 5
          },
          "indices" : 0,
          "material" : 0
        }
      ],
      "name" : "ObjMD_Barrel_A"
    }
  ],
  "buffers" : [
    {
      "uri" : "ObjMD_Barrel_A.bin",
      "byteLength" : 17132
    }
  ],
  "bufferViews" : [
    {
      "buffer" : 0,
      "byteOffset" : 0,
      "byteLength" : 2348
    },
    {
      "buffer" : 0,
      "byteOffset" : 2348,
      "byteLength" : 3168
    },
    {
      "buffer" : 0,
      "byteOffset" : 5516,
      "byteLength" : 3168
    },
    {
      "buffer" : 0,
      "byteOffset" : 8684,
      "byteLength" : 4224
    },
    {
      "buffer" : 0,
      "byteOffset" : 12908,
      "byteLength" : 2112
    },
    {
      "buffer" : 0,
      "byteOffset" : 15020,
      "byteLength" : 2112
    }
  ],
  "accessors" : [
    {
      "bufferView" : 0,
      "componentType" : 5123,
      "count" : 1173,
      "type" : "SCALAR"
    },
    {
      "bufferView" : 1,
      "min" : [ -0.585563, -2.45135e-17, -0.465741 ],
      "max" : [ 0.353421, 1.23587, 0.461756 ],
      "componentType" : 5126,
      "count" : 264,
      "type" : "VEC3"
    },
    {
      "bufferView" : 2,
      "componentType" : 5126,
      "count" : 264,
      "type" : "VEC3"
    },
    {
      "bufferView" : 3,
      "componentType" : 5126,
      "count" : 264,
      "type" : "VEC4"
    },
    {
      "bufferView" : 4,
      "componentType" : 5126,
      "count" : 264,
      "type" : "VEC2"
    },
    {
      "bufferView" : 5,
      "componentType" : 5126,
      "count" : 264,
      "type" : "VEC2"
    }
  ]
}
