{
  "asset" : {
    "generator" : "UE Viewer (umodel) build 1590",
    "version" : "2.0"
  },
  "scene" : 0,
  "scenes" : [
    {
      "nodes" : [ 0 ]
    }
  ],
  "nodes" : [
    {
      "name" : "ObjMD_Barrel_C",
      "mesh" : 0
    }
  ],
  "materials" : [
    {
      "name" : "ObjMI_Barrel_A",
      "pbrMetallicRoughness" : {
        "baseColorFactor" : [ 0.3, 0.3, 0.3, 1.0 ],
        "metallicFactor" : 0.1,
        "roughnessFactor" : 0.5
      }
    }
  ],
  "meshes" : [
    {
      "primitives" : [
        {
          "attributes" : {
            "POSITION" : 1,
            "NORMAL" : 2,
            "TANGENT" : 3,
            "TEXCOORD_0" : 4,
            "TEXCOORD_1" : 5
          },
          "indices" : 0,
          "material" : 0
        }
      ],
      "name" : "ObjMD_Barrel_C"
    }
  ],
  "buffers" : [
    {
      "uri" : "ObjMD_Barrel_C.bin",
      "byteLength" : 22092
    }
  ],
  "bufferViews" : [
    {
      "buffer" : 0,
      "byteOffset" : 0,
      "byteLength" : 3276
    },
    {
      "buffer" : 0,
      "byteOffset" : 3276,
      "byteLength" : 4032
    },
    {
      "buffer" : 0,
      "byteOffset" : 7308,
      "byteLength" : 4032
    },
    {
      "buffer" : 0,
      "byteOffset" : 11340,
      "byteLength" : 5376
    },
    {
      "buffer" : 0,
      "byteOffset" : 16716,
      "byteLength" : 2688
    },
    {
      "buffer" : 0,
      "byteOffset" : 19404,
      "byteLength" : 2688
    }
  ],
  "accessors" : [
    {
      "bufferView" : 0,
      "componentType" : 5123,
      "count" : 1638,
      "type" : "SCALAR"
    },
    {
      "bufferView" : 1,
      "min" : [ -0.5625, -0.459655, -0.459655 ],
      "max" : [ 0.5625, 0.459655, 0.459655 ],
      "componentType" : 5126,
      "count" : 336,
      "type" : "VEC3"
    },
    {
      "bufferView" : 2,
      "componentType" : 5126,
      "count" : 336,
      "type" : "VEC3"
    },
    {
      "bufferView" : 3,
      "componentType" : 5126,
      "count" : 336,
      "type" : "VEC4"
    },
    {
      "bufferView" : 4,
      "componentType" : 5126,
      "count" : 336,
      "type" : "VEC2"
    },
    {
      "bufferView" : 5,
      "componentType" : 5126,
      "count" : 336,
      "type" : "VEC2"
    }
  ]
}
