{
  "asset" : {
    "generator" : "UE Viewer (umodel) build 1590",
    "version" : "2.0"
  },
  "scene" : 0,
  "scenes" : [
    {
      "nodes" : [ 0 ]
    }
  ],
  "nodes" : [
    {
      "name" : "ObjMD_Flower_B_white",
      "mesh" : 0
    }
  ],
  "materials" : [
    {
      "name" : "ObjMI_Flower_B_01",
      "pbrMetallicRoughness" : {
        "baseColorFactor" : [ 0.3, 0.3, 0.3, 1.0 ],
        "metallicFactor" : 0.1,
        "roughnessFactor" : 0.5
      }
    }
  ],
  "meshes" : [
    {
      "primitives" : [
        {
          "attributes" : {
            "POSITION" : 1,
            "NORMAL" : 2,
            "TANGENT" : 3,
            "TEXCOORD_0" : 4,
            "TEXCOORD_1" : 5
          },
          "indices" : 0,
          "material" : 0
        }
      ],
      "name" : "ObjMD_Flower_B_white"
    }
  ],
  "buffers" : [
    {
      "uri" : "ObjMD_Flower_B_white.bin",
      "byteLength" : 4448
    }
  ],
  "bufferViews" : [
    {
      "buffer" : 0,
      "byteOffset" : 0,
      "byteLength" : 528
    },
    {
      "buffer" : 0,
      "byteOffset" : 528,
      "byteLength" : 840
    },
    {
      "buffer" : 0,
      "byteOffset" : 1368,
      "byteLength" : 840
    },
    {
      "buffer" : 0,
      "byteOffset" : 2208,
      "byteLength" : 1120
    },
    {
      "buffer" : 0,
      "byteOffset" : 3328,
      "byteLength" : 560
    },
    {
      "buffer" : 0,
      "byteOffset" : 3888,
      "byteLength" : 560
    }
  ],
  "accessors" : [
    {
      "bufferView" : 0,
      "componentType" : 5123,
      "count" : 264,
      "type" : "SCALAR"
    },
    {
      "bufferView" : 1,
      "min" : [ -0.224953, -0.0818761, -0.21875 ],
      "max" : [ 0.0875473, 0.45939, 0.21875 ],
      "componentType" : 5126,
      "count" : 70,
      "type" : "VEC3"
    },
    {
      "bufferView" : 2,
      "componentType" : 5126,
      "count" : 70,
      "type" : "VEC3"
    },
    {
      "bufferView" : 3,
      "componentType" : 5126,
      "count" : 70,
      "type" : "VEC4"
    },
    {
      "bufferView" : 4,
      "componentType" : 5126,
      "count" : 70,
      "type" : "VEC2"
    },
    {
      "bufferView" : 5,
      "componentType" : 5126,
      "count" : 70,
      "type" : "VEC2"
    }
  ]
}
