{
  "asset" : {
    "generator" : "UE Viewer (umodel) build 1590",
    "version" : "2.0"
  },
  "scene" : 0,
  "scenes" : [
    {
      "nodes" : [ 0 ]
    }
  ],
  "nodes" : [
    {
      "name" : "ObjMD_Flower_B_red",
      "mesh" : 0
    }
  ],
  "materials" : [
    {
      "name" : "ObjMI_Flower_B_01",
      "pbrMetallicRoughness" : {
        "baseColorFactor" : [ 0.3, 0.3, 0.3, 1.0 ],
        "metallicFactor" : 0.1,
        "roughnessFactor" : 0.5
      }
    }
  ],
  "meshes" : [
    {
      "primitives" : [
        {
          "attributes" : {
            "POSITION" : 1,
            "NORMAL" : 2,
            "TANGENT" : 3,
            "TEXCOORD_0" : 4,
            "TEXCOORD_1" : 5
          },
          "indices" : 0,
          "material" : 0
        }
      ],
      "name" : "ObjMD_Flower_B_red"
    }
  ],
  "buffers" : [
    {
      "uri" : "ObjMD_Flower_B_red.bin",
      "byteLength" : 1724
    }
  ],
  "bufferViews" : [
    {
      "buffer" : 0,
      "byteOffset" : 0,
      "byteLength" : 156
    },
    {
      "buffer" : 0,
      "byteOffset" : 156,
      "byteLength" : 336
    },
    {
      "buffer" : 0,
      "byteOffset" : 492,
      "byteLength" : 336
    },
    {
      "buffer" : 0,
      "byteOffset" : 828,
      "byteLength" : 448
    },
    {
      "buffer" : 0,
      "byteOffset" : 1276,
      "byteLength" : 224
    },
    {
      "buffer" : 0,
      "byteOffset" : 1500,
      "byteLength" : 224
    }
  ],
  "accessors" : [
    {
      "bufferView" : 0,
      "componentType" : 5123,
      "count" : 78,
      "type" : "SCALAR"
    },
    {
      "bufferView" : 1,
      "min" : [ -2.77556e-16, -2.80211e-15, -0.21875 ],
      "max" : [ 2.77556e-17, 0.625, 0.21875 ],
      "componentType" : 5126,
      "count" : 28,
      "type" : "VEC3"
    },
    {
      "bufferView" : 2,
      "componentType" : 5126,
      "count" : 28,
      "type" : "VEC3"
    },
    {
      "bufferView" : 3,
      "componentType" : 5126,
      "count" : 28,
      "type" : "VEC4"
    },
    {
      "bufferView" : 4,
      "componentType" : 5126,
      "count" : 28,
      "type" : "VEC2"
    },
    {
      "bufferView" : 5,
      "componentType" : 5126,
      "count" : 28,
      "type" : "VEC2"
    }
  ]
}
