{
  "asset" : {
    "generator" : "UE Viewer (umodel) build 1590",
    "version" : "2.0"
  },
  "scene" : 0,
  "scenes" : [
    {
      "nodes" : [ 0 ]
    }
  ],
  "nodes" : [
    {
      "name" : "ObjMD_Flower_A_blue_many",
      "mesh" : 0
    }
  ],
  "materials" : [
    {
      "name" : "ObjMI_Flower_A",
      "pbrMetallicRoughness" : {
        "baseColorFactor" : [ 0.3, 0.3, 0.3, 1.0 ],
        "metallicFactor" : 0.1,
        "roughnessFactor" : 0.5
      }
    }
  ],
  "meshes" : [
    {
      "primitives" : [
        {
          "attributes" : {
            "POSITION" : 1,
            "NORMAL" : 2,
            "TANGENT" : 3,
            "TEXCOORD_0" : 4,
            "TEXCOORD_1" : 5
          },
          "indices" : 0,
          "material" : 0
        }
      ],
      "name" : "ObjMD_Flower_A_blue_many"
    }
  ],
  "buffers" : [
    {
      "uri" : "ObjMD_Flower_A_blue_many.bin",
      "byteLength" : 5060
    }
  ],
  "bufferViews" : [
    {
      "buffer" : 0,
      "byteOffset" : 0,
      "byteLength" : 468
    },
    {
      "buffer" : 0,
      "byteOffset" : 468,
      "byteLength" : 984
    },
    {
      "buffer" : 0,
      "byteOffset" : 1452,
      "byteLength" : 984
    },
    {
      "buffer" : 0,
      "byteOffset" : 2436,
      "byteLength" : 1312
    },
    {
      "buffer" : 0,
      "byteOffset" : 3748,
      "byteLength" : 656
    },
    {
      "buffer" : 0,
      "byteOffset" : 4404,
      "byteLength" : 656
    }
  ],
  "accessors" : [
    {
      "bufferView" : 0,
      "componentType" : 5123,
      "count" : 234,
      "type" : "SCALAR"
    },
    {
      "bufferView" : 1,
      "min" : [ 0, -4.59243e-17, -0.875 ],
      "max" : [ 0, 0.625, 0.875 ],
      "componentType" : 5126,
      "count" : 82,
      "type" : "VEC3"
    },
    {
      "bufferView" : 2,
      "componentType" : 5126,
      "count" : 82,
      "type" : "VEC3"
    },
    {
      "bufferView" : 3,
      "componentType" : 5126,
      "count" : 82,
      "type" : "VEC4"
    },
    {
      "bufferView" : 4,
      "componentType" : 5126,
      "count" : 82,
      "type" : "VEC2"
    },
    {
      "bufferView" : 5,
      "componentType" : 5126,
      "count" : 82,
      "type" : "VEC2"
    }
  ]
}
