{
  "asset" : {
    "generator" : "UE Viewer (umodel) build 1590",
    "version" : "2.0"
  },
  "scene" : 0,
  "scenes" : [
    {
      "nodes" : [ 0 ]
    }
  ],
  "nodes" : [
    {
      "name" : "ObjMD_Flower_A_lavender_Many",
      "mesh" : 0
    }
  ],
  "materials" : [
    {
      "name" : "ObjMI_Flower_A",
      "pbrMetallicRoughness" : {
        "baseColorFactor" : [ 0.3, 0.3, 0.3, 1.0 ],
        "metallicFactor" : 0.1,
        "roughnessFactor" : 0.5
      }
    }
  ],
  "meshes" : [
    {
      "primitives" : [
        {
          "attributes" : {
            "POSITION" : 1,
            "NORMAL" : 2,
            "TANGENT" : 3,
            "TEXCOORD_0" : 4,
            "TEXCOORD_1" : 5
          },
          "indices" : 0,
          "material" : 0
        }
      ],
      "name" : "ObjMD_Flower_A_lavender_Many"
    }
  ],
  "buffers" : [
    {
      "uri" : "ObjMD_Flower_A_lavender_Many.bin",
      "byteLength" : 17384
    }
  ],
  "bufferViews" : [
    {
      "buffer" : 0,
      "byteOffset" : 0,
      "byteLength" : 1200
    },
    {
      "buffer" : 0,
      "byteOffset" : 1200,
      "byteLength" : 3468
    },
    {
      "buffer" : 0,
      "byteOffset" : 4668,
      "byteLength" : 3468
    },
    {
      "buffer" : 0,
      "byteOffset" : 8136,
      "byteLength" : 4624
    },
    {
      "buffer" : 0,
      "byteOffset" : 12760,
      "byteLength" : 2312
    },
    {
      "buffer" : 0,
      "byteOffset" : 15072,
      "byteLength" : 2312
    }
  ],
  "accessors" : [
    {
      "bufferView" : 0,
      "componentType" : 5123,
      "count" : 600,
      "type" : "SCALAR"
    },
    {
      "bufferView" : 1,
      "min" : [ 0, -5.35783e-17, -1 ],
      "max" : [ 0, 1, 1 ],
      "componentType" : 5126,
      "count" : 289,
      "type" : "VEC3"
    },
    {
      "bufferView" : 2,
      "componentType" : 5126,
      "count" : 289,
      "type" : "VEC3"
    },
    {
      "bufferView" : 3,
      "componentType" : 5126,
      "count" : 289,
      "type" : "VEC4"
    },
    {
      "bufferView" : 4,
      "componentType" : 5126,
      "count" : 289,
      "type" : "VEC2"
    },
    {
      "bufferView" : 5,
      "componentType" : 5126,
      "count" : 289,
      "type" : "VEC2"
    }
  ]
}
