{
  "asset" : {
    "generator" : "UE Viewer (umodel) build 1590",
    "version" : "2.0"
  },
  "scene" : 0,
  "scenes" : [
    {
      "nodes" : [ 0 ]
    }
  ],
  "nodes" : [
    {
      "name" : "ObjMD_Flower_A_pink",
      "mesh" : 0
    }
  ],
  "materials" : [
    {
      "name" : "ObjMI_Flower_A",
      "pbrMetallicRoughness" : {
        "baseColorFactor" : [ 0.3, 0.3, 0.3, 1.0 ],
        "metallicFactor" : 0.1,
        "roughnessFactor" : 0.5
      }
    }
  ],
  "meshes" : [
    {
      "primitives" : [
        {
          "attributes" : {
            "POSITION" : 1,
            "NORMAL" : 2,
            "TANGENT" : 3,
            "TEXCOORD_0" : 4,
            "TEXCOORD_1" : 5
          },
          "indices" : 0,
          "material" : 0
        }
      ],
      "name" : "ObjMD_Flower_A_pink"
    }
  ],
  "buffers" : [
    {
      "uri" : "ObjMD_Flower_A_pink.bin",
      "byteLength" : 6788
    }
  ],
  "bufferViews" : [
    {
      "buffer" : 0,
      "byteOffset" : 0,
      "byteLength" : 684
    },
    {
      "buffer" : 0,
      "byteOffset" : 684,
      "byteLength" : 1308
    },
    {
      "buffer" : 0,
      "byteOffset" : 1992,
      "byteLength" : 1308
    },
    {
      "buffer" : 0,
      "byteOffset" : 3300,
      "byteLength" : 1744
    },
    {
      "buffer" : 0,
      "byteOffset" : 5044,
      "byteLength" : 872
    },
    {
      "buffer" : 0,
      "byteOffset" : 5916,
      "byteLength" : 872
    }
  ],
  "accessors" : [
    {
      "bufferView" : 0,
      "componentType" : 5123,
      "count" : 342,
      "type" : "SCALAR"
    },
    {
      "bufferView" : 1,
      "min" : [ 0, -2.29621e-17, -0.5 ],
      "max" : [ 0, 1, 0.5 ],
      "componentType" : 5126,
      "count" : 109,
      "type" : "VEC3"
    },
    {
      "bufferView" : 2,
      "componentType" : 5126,
      "count" : 109,
      "type" : "VEC3"
    },
    {
      "bufferView" : 3,
      "componentType" : 5126,
      "count" : 109,
      "type" : "VEC4"
    },
    {
      "bufferView" : 4,
      "componentType" : 5126,
      "count" : 109,
      "type" : "VEC2"
    },
    {
      "bufferView" : 5,
      "componentType" : 5126,
      "count" : 109,
      "type" : "VEC2"
    }
  ]
}
