{
  "asset" : {
    "generator" : "UE Viewer (umodel) build 1590",
    "version" : "2.0"
  },
  "scene" : 0,
  "scenes" : [
    {
      "nodes" : [ 0 ]
    }
  ],
  "nodes" : [
    {
      "name" : "OspMD_Bridge_A_R",
      "mesh" : 0
    }
  ],
  "materials" : [
    {
      "name" : "OspMI_Bridge_A",
      "pbrMetallicRoughness" : {
        "baseColorFactor" : [ 0.3, 0.3, 0.3, 1.0 ],
        "metallicFactor" : 0.1,
        "roughnessFactor" : 0.5
      }
    }
  ],
  "meshes" : [
    {
      "primitives" : [
        {
          "attributes" : {
            "POSITION" : 1,
            "NORMAL" : 2,
            "TANGENT" : 3,
            "COLOR_0" : 4,
            "TEXCOORD_0" : 5,
            "TEXCOORD_1" : 6
          },
          "indices" : 0,
          "material" : 0
        }
      ],
      "name" : "OspMD_Bridge_A_R"
    }
  ],
  "buffers" : [
    {
      "uri" : "OspMD_Bridge_A_R.bin",
      "byteLength" : 11760
    }
  ],
  "bufferViews" : [
    {
      "buffer" : 0,
      "byteOffset" : 0,
      "byteLength" : 720
    },
    {
      "buffer" : 0,
      "byteOffset" : 720,
      "byteLength" : 2208
    },
    {
      "buffer" : 0,
      "byteOffset" : 2928,
      "byteLength" : 2208
    },
    {
      "buffer" : 0,
      "byteOffset" : 5136,
      "byteLength" : 2944
    },
    {
      "buffer" : 0,
      "byteOffset" : 8080,
      "byteLength" : 736
    },
    {
      "buffer" : 0,
      "byteOffset" : 8816,
      "byteLength" : 1472
    },
    {
      "buffer" : 0,
      "byteOffset" : 10288,
      "byteLength" : 1472
    }
  ],
  "accessors" : [
    {
      "bufferView" : 0,
      "componentType" : 5123,
      "count" : 360,
      "type" : "SCALAR"
    },
    {
      "bufferView" : 1,
      "min" : [ -0.687504, -2.25, -0.1875 ],
      "max" : [ 0.1875, 2.3125, 2.74998 ],
      "componentType" : 5126,
      "count" : 184,
      "type" : "VEC3"
    },
    {
      "bufferView" : 2,
      "componentType" : 5126,
      "count" : 184,
      "type" : "VEC3"
    },
    {
      "bufferView" : 3,
      "componentType" : 5126,
      "count" : 184,
      "type" : "VEC4"
    },
    {
      "bufferView" : 4,
      "normalized" : true,
      "componentType" : 5121,
      "count" : 184,
      "type" : "VEC4"
    },
    {
      "bufferView" : 5,
      "componentType" : 5126,
      "count" : 184,
      "type" : "VEC2"
    },
    {
      "bufferView" : 6,
      "componentType" : 5126,
      "count" : 184,
      "type" : "VEC2"
    }
  ]
}
