{
  "asset" : {
    "generator" : "UE Viewer (umodel) build 1590",
    "version" : "2.0"
  },
  "scene" : 0,
  "scenes" : [
    {
      "nodes" : [ 0 ]
    }
  ],
  "nodes" : [
    {
      "name" : "OspMD_Bridge_A_SplineMesh",
      "mesh" : 0
    }
  ],
  "materials" : [
    {
      "name" : "OspMI_Bridge_A",
      "pbrMetallicRoughness" : {
        "baseColorFactor" : [ 0.3, 0.3, 0.3, 1.0 ],
        "metallicFactor" : 0.1,
        "roughnessFactor" : 0.5
      }
    }
  ],
  "meshes" : [
    {
      "primitives" : [
        {
          "attributes" : {
            "POSITION" : 1,
            "NORMAL" : 2,
            "TANGENT" : 3,
            "COLOR_0" : 4,
            "TEXCOORD_0" : 5,
            "TEXCOORD_1" : 6
          },
          "indices" : 0,
          "material" : 0
        }
      ],
      "name" : "OspMD_Bridge_A_SplineMesh"
    }
  ],
  "buffers" : [
    {
      "uri" : "OspMD_Bridge_A_SplineMesh.bin",
      "byteLength" : 277496
    }
  ],
  "bufferViews" : [
    {
      "buffer" : 0,
      "byteOffset" : 0,
      "byteLength" : 19556
    },
    {
      "buffer" : 0,
      "byteOffset" : 19556,
      "byteLength" : 51588
    },
    {
      "buffer" : 0,
      "byteOffset" : 71144,
      "byteLength" : 51588
    },
    {
      "buffer" : 0,
      "byteOffset" : 122732,
      "byteLength" : 68784
    },
    {
      "buffer" : 0,
      "byteOffset" : 191516,
      "byteLength" : 17196
    },
    {
      "buffer" : 0,
      "byteOffset" : 208712,
      "byteLength" : 34392
    },
    {
      "buffer" : 0,
      "byteOffset" : 243104,
      "byteLength" : 34392
    }
  ],
  "accessors" : [
    {
      "bufferView" : 0,
      "componentType" : 5123,
      "count" : 9777,
      "type" : "SCALAR"
    },
    {
      "bufferView" : 1,
      "min" : [ -1.91425, -1.55, -0.303406 ],
      "max" : [ 2.07036, 1.90625, 13.0092 ],
      "componentType" : 5126,
      "count" : 4299,
      "type" : "VEC3"
    },
    {
      "bufferView" : 2,
      "componentType" : 5126,
      "count" : 4299,
      "type" : "VEC3"
    },
    {
      "bufferView" : 3,
      "componentType" : 5126,
      "count" : 4299,
      "type" : "VEC4"
    },
    {
      "bufferView" : 4,
      "normalized" : true,
      "componentType" : 5121,
      "count" : 4299,
      "type" : "VEC4"
    },
    {
      "bufferView" : 5,
      "componentType" : 5126,
      "count" : 4299,
      "type" : "VEC2"
    },
    {
      "bufferView" : 6,
      "componentType" : 5126,
      "count" : 4299,
      "type" : "VEC2"
    }
  ]
}
