{
  "asset" : {
    "generator" : "UE Viewer (umodel) build 1590",
    "version" : "2.0"
  },
  "scene" : 0,
  "scenes" : [
    {
      "nodes" : [ 0 ]
    }
  ],
  "nodes" : [
    {
      "name" : "OspMD_Bridge_B_R",
      "mesh" : 0
    }
  ],
  "materials" : [
    {
      "name" : "OspMI_Bridge_A",
      "pbrMetallicRoughness" : {
        "baseColorFactor" : [ 0.3, 0.3, 0.3, 1.0 ],
        "metallicFactor" : 0.1,
        "roughnessFactor" : 0.5
      }
    }
  ],
  "meshes" : [
    {
      "primitives" : [
        {
          "attributes" : {
            "POSITION" : 1,
            "NORMAL" : 2,
            "TANGENT" : 3,
            "COLOR_0" : 4,
            "TEXCOORD_0" : 5,
            "TEXCOORD_1" : 6,
            "TEXCOORD_2" : 7
          },
          "indices" : 0,
          "material" : 0
        }
      ],
      "name" : "OspMD_Bridge_B_R"
    }
  ],
  "buffers" : [
    {
      "uri" : "OspMD_Bridge_B_R.bin",
      "byteLength" : 6604
    }
  ],
  "bufferViews" : [
    {
      "buffer" : 0,
      "byteOffset" : 0,
      "byteLength" : 348
    },
    {
      "buffer" : 0,
      "byteOffset" : 348,
      "byteLength" : 1104
    },
    {
      "buffer" : 0,
      "byteOffset" : 1452,
      "byteLength" : 1104
    },
    {
      "buffer" : 0,
      "byteOffset" : 2556,
      "byteLength" : 1472
    },
    {
      "buffer" : 0,
      "byteOffset" : 4028,
      "byteLength" : 368
    },
    {
      "buffer" : 0,
      "byteOffset" : 4396,
      "byteLength" : 736
    },
    {
      "buffer" : 0,
      "byteOffset" : 5132,
      "byteLength" : 736
    },
    {
      "buffer" : 0,
      "byteOffset" : 5868,
      "byteLength" : 736
    }
  ],
  "accessors" : [
    {
      "bufferView" : 0,
      "componentType" : 5123,
      "count" : 174,
      "type" : "SCALAR"
    },
    {
      "bufferView" : 1,
      "min" : [ -0.198535, -2.25, -0.168625 ],
      "max" : [ 0.176465, 2.3125, 0.206375 ],
      "componentType" : 5126,
      "count" : 92,
      "type" : "VEC3"
    },
    {
      "bufferView" : 2,
      "componentType" : 5126,
      "count" : 92,
      "type" : "VEC3"
    },
    {
      "bufferView" : 3,
      "componentType" : 5126,
      "count" : 92,
      "type" : "VEC4"
    },
    {
      "bufferView" : 4,
      "normalized" : true,
      "componentType" : 5121,
      "count" : 92,
      "type" : "VEC4"
    },
    {
      "bufferView" : 5,
      "componentType" : 5126,
      "count" : 92,
      "type" : "VEC2"
    },
    {
      "bufferView" : 6,
      "componentType" : 5126,
      "count" : 92,
      "type" : "VEC2"
    },
    {
      "bufferView" : 7,
      "componentType" : 5126,
      "count" : 92,
      "type" : "VEC2"
    }
  ]
}
