{
  "asset" : {
    "generator" : "UE Viewer (umodel) build 1590",
    "version" : "2.0"
  },
  "scene" : 0,
  "scenes" : [
    {
      "nodes" : [ 0 ]
    }
  ],
  "nodes" : [
    {
      "name" : "OspMD_Bridge_Rope_SplineMesh",
      "mesh" : 0
    }
  ],
  "materials" : [
    {
      "name" : "OspMI_Bridge_A",
      "pbrMetallicRoughness" : {
        "baseColorFactor" : [ 0.3, 0.3, 0.3, 1.0 ],
        "metallicFactor" : 0.1,
        "roughnessFactor" : 0.5
      }
    }
  ],
  "meshes" : [
    {
      "primitives" : [
        {
          "attributes" : {
            "POSITION" : 1,
            "NORMAL" : 2,
            "TANGENT" : 3,
            "COLOR_0" : 4,
            "TEXCOORD_0" : 5,
            "TEXCOORD_1" : 6
          },
          "indices" : 0,
          "material" : 0
        }
      ],
      "name" : "OspMD_Bridge_Rope_SplineMesh"
    }
  ],
  "buffers" : [
    {
      "uri" : "OspMD_Bridge_Rope_SplineMesh.bin",
      "byteLength" : 20424
    }
  ],
  "bufferViews" : [
    {
      "buffer" : 0,
      "byteOffset" : 0,
      "byteLength" : 1824
    },
    {
      "buffer" : 0,
      "byteOffset" : 1824,
      "byteLength" : 3720
    },
    {
      "buffer" : 0,
      "byteOffset" : 5544,
      "byteLength" : 3720
    },
    {
      "buffer" : 0,
      "byteOffset" : 9264,
      "byteLength" : 4960
    },
    {
      "buffer" : 0,
      "byteOffset" : 14224,
      "byteLength" : 1240
    },
    {
      "buffer" : 0,
      "byteOffset" : 15464,
      "byteLength" : 2480
    },
    {
      "buffer" : 0,
      "byteOffset" : 17944,
      "byteLength" : 2480
    }
  ],
  "accessors" : [
    {
      "bufferView" : 0,
      "componentType" : 5123,
      "count" : 912,
      "type" : "SCALAR"
    },
    {
      "bufferView" : 1,
      "min" : [ 0, 0.34375, 2.07164 ],
      "max" : [ 0, 1.90625, 15.0091 ],
      "componentType" : 5126,
      "count" : 310,
      "type" : "VEC3"
    },
    {
      "bufferView" : 2,
      "componentType" : 5126,
      "count" : 310,
      "type" : "VEC3"
    },
    {
      "bufferView" : 3,
      "componentType" : 5126,
      "count" : 310,
      "type" : "VEC4"
    },
    {
      "bufferView" : 4,
      "normalized" : true,
      "componentType" : 5121,
      "count" : 310,
      "type" : "VEC4"
    },
    {
      "bufferView" : 5,
      "componentType" : 5126,
      "count" : 310,
      "type" : "VEC2"
    },
    {
      "bufferView" : 6,
      "componentType" : 5126,
      "count" : 310,
      "type" : "VEC2"
    }
  ]
}
