{
  "asset" : {
    "generator" : "UE Viewer (umodel) build 1590",
    "version" : "2.0"
  },
  "scene" : 0,
  "scenes" : [
    {
      "nodes" : [ 0 ]
    }
  ],
  "nodes" : [
    {
      "name" : "ObjMD_Woodgate_A",
      "mesh" : 0
    }
  ],
  "materials" : [
    {
      "name" : "ObjMI_Woodgate_A",
      "pbrMetallicRoughness" : {
        "baseColorFactor" : [ 0.3, 0.3, 0.3, 1.0 ],
        "metallicFactor" : 0.1,
        "roughnessFactor" : 0.5
      }
    }
  ],
  "meshes" : [
    {
      "primitives" : [
        {
          "attributes" : {
            "POSITION" : 1,
            "NORMAL" : 2,
            "TANGENT" : 3,
            "TEXCOORD_0" : 4,
            "TEXCOORD_1" : 5
          },
          "indices" : 0,
          "material" : 0
        }
      ],
      "name" : "ObjMD_Woodgate_A"
    }
  ],
  "buffers" : [
    {
      "uri" : "ObjMD_Woodgate_A.bin",
      "byteLength" : 68148
    }
  ],
  "bufferViews" : [
    {
      "buffer" : 0,
      "byteOffset" : 0,
      "byteLength" : 3972
    },
    {
      "buffer" : 0,
      "byteOffset" : 3972,
      "byteLength" : 13752
    },
    {
      "buffer" : 0,
      "byteOffset" : 17724,
      "byteLength" : 13752
    },
    {
      "buffer" : 0,
      "byteOffset" : 31476,
      "byteLength" : 18336
    },
    {
      "buffer" : 0,
      "byteOffset" : 49812,
      "byteLength" : 9168
    },
    {
      "buffer" : 0,
      "byteOffset" : 58980,
      "byteLength" : 9168
    }
  ],
  "accessors" : [
    {
      "bufferView" : 0,
      "componentType" : 5123,
      "count" : 1986,
      "type" : "SCALAR"
    },
    {
      "bufferView" : 1,
      "min" : [ -3.43878, -2.83575e-05, -0.477066 ],
      "max" : [ 3.43878, 5.00069, 0.325431 ],
      "componentType" : 5126,
      "count" : 1146,
      "type" : "VEC3"
    },
    {
      "bufferView" : 2,
      "componentType" : 5126,
      "count" : 1146,
      "type" : "VEC3"
    },
    {
      "bufferView" : 3,
      "componentType" : 5126,
      "count" : 1146,
      "type" : "VEC4"
    },
    {
      "bufferView" : 4,
      "componentType" : 5126,
      "count" : 1146,
      "type" : "VEC2"
    },
    {
      "bufferView" : 5,
      "componentType" : 5126,
      "count" : 1146,
      "type" : "VEC2"
    }
  ]
}
