{
  "asset" : {
    "generator" : "UE Viewer (umodel) build 1590",
    "version" : "2.0"
  },
  "scene" : 0,
  "scenes" : [
    {
      "nodes" : [ 0 ]
    }
  ],
  "nodes" : [
    {
      "name" : "ObjMD_Box_D",
      "mesh" : 0
    }
  ],
  "materials" : [
    {
      "name" : "ObjMI_Box_D",
      "pbrMetallicRoughness" : {
        "baseColorFactor" : [ 0.3, 0.3, 0.3, 1.0 ],
        "metallicFactor" : 0.1,
        "roughnessFactor" : 0.5
      }
    }
  ],
  "meshes" : [
    {
      "primitives" : [
        {
          "attributes" : {
            "POSITION" : 1,
            "NORMAL" : 2,
            "TANGENT" : 3,
            "TEXCOORD_0" : 4,
            "TEXCOORD_1" : 5
          },
          "indices" : 0,
          "material" : 0
        }
      ],
      "name" : "ObjMD_Box_D"
    }
  ],
  "buffers" : [
    {
      "uri" : "ObjMD_Box_D.bin",
      "byteLength" : 19824
    }
  ],
  "bufferViews" : [
    {
      "buffer" : 0,
      "byteOffset" : 0,
      "byteLength" : 1008
    },
    {
      "buffer" : 0,
      "byteOffset" : 1008,
      "byteLength" : 4032
    },
    {
      "buffer" : 0,
      "byteOffset" : 5040,
      "byteLength" : 4032
    },
    {
      "buffer" : 0,
      "byteOffset" : 9072,
      "byteLength" : 5376
    },
    {
      "buffer" : 0,
      "byteOffset" : 14448,
      "byteLength" : 2688
    },
    {
      "buffer" : 0,
      "byteOffset" : 17136,
      "byteLength" : 2688
    }
  ],
  "accessors" : [
    {
      "bufferView" : 0,
      "componentType" : 5123,
      "count" : 504,
      "type" : "SCALAR"
    },
    {
      "bufferView" : 1,
      "min" : [ -0.5, -2.87027e-17, -0.46875 ],
      "max" : [ 0.5, 0.625, 0.46875 ],
      "componentType" : 5126,
      "count" : 336,
      "type" : "VEC3"
    },
    {
      "bufferView" : 2,
      "componentType" : 5126,
      "count" : 336,
      "type" : "VEC3"
    },
    {
      "bufferView" : 3,
      "componentType" : 5126,
      "count" : 336,
      "type" : "VEC4"
    },
    {
      "bufferView" : 4,
      "componentType" : 5126,
      "count" : 336,
      "type" : "VEC2"
    },
    {
      "bufferView" : 5,
      "componentType" : 5126,
      "count" : 336,
      "type" : "VEC2"
    }
  ]
}
