{
  "asset" : {
    "generator" : "UE Viewer (umodel) build 1590",
    "version" : "2.0"
  },
  "scene" : 0,
  "scenes" : [
    {
      "nodes" : [ 0 ]
    }
  ],
  "nodes" : [
    {
      "name" : "ObjMD_Scaffold_A",
      "mesh" : 0
    }
  ],
  "materials" : [
    {
      "name" : "ObjMI_Scaffold_A_01",
      "pbrMetallicRoughness" : {
        "baseColorFactor" : [ 0.3, 0.3, 0.3, 1.0 ],
        "metallicFactor" : 0.1,
        "roughnessFactor" : 0.5
      }
    }
  ],
  "meshes" : [
    {
      "primitives" : [
        {
          "attributes" : {
            "POSITION" : 1,
            "NORMAL" : 2,
            "TANGENT" : 3,
            "TEXCOORD_0" : 4,
            "TEXCOORD_1" : 5
          },
          "indices" : 0,
          "material" : 0
        }
      ],
      "name" : "ObjMD_Scaffold_A"
    }
  ],
  "buffers" : [
    {
      "uri" : "ObjMD_Scaffold_A.bin",
      "byteLength" : 117996
    }
  ],
  "bufferViews" : [
    {
      "buffer" : 0,
      "byteOffset" : 0,
      "byteLength" : 6276
    },
    {
      "buffer" : 0,
      "byteOffset" : 6276,
      "byteLength" : 23940
    },
    {
      "buffer" : 0,
      "byteOffset" : 30216,
      "byteLength" : 23940
    },
    {
      "buffer" : 0,
      "byteOffset" : 54156,
      "byteLength" : 31920
    },
    {
      "buffer" : 0,
      "byteOffset" : 86076,
      "byteLength" : 15960
    },
    {
      "buffer" : 0,
      "byteOffset" : 102036,
      "byteLength" : 15960
    }
  ],
  "accessors" : [
    {
      "bufferView" : 0,
      "componentType" : 5123,
      "count" : 3138,
      "type" : "SCALAR"
    },
    {
      "bufferView" : 1,
      "min" : [ -3.0094, -1.86389e-16, -3.10646 ],
      "max" : [ 3.00937, 6.15509, 3.10646 ],
      "componentType" : 5126,
      "count" : 1995,
      "type" : "VEC3"
    },
    {
      "bufferView" : 2,
      "componentType" : 5126,
      "count" : 1995,
      "type" : "VEC3"
    },
    {
      "bufferView" : 3,
      "componentType" : 5126,
      "count" : 1995,
      "type" : "VEC4"
    },
    {
      "bufferView" : 4,
      "componentType" : 5126,
      "count" : 1995,
      "type" : "VEC2"
    },
    {
      "bufferView" : 5,
      "componentType" : 5126,
      "count" : 1995,
      "type" : "VEC2"
    }
  ]
}
