{
  "asset" : {
    "generator" : "UE Viewer (umodel) build 1590",
    "version" : "2.0"
  },
  "scene" : 0,
  "scenes" : [
    {
      "nodes" : [ 0 ]
    }
  ],
  "nodes" : [
    {
      "name" : "ObjMD_Torch_Wall_A",
      "mesh" : 0
    }
  ],
  "materials" : [
    {
      "name" : "ObjMI_Torch_A",
      "pbrMetallicRoughness" : {
        "baseColorFactor" : [ 0.3, 0.3, 0.3, 1.0 ],
        "metallicFactor" : 0.1,
        "roughnessFactor" : 0.5
      }
    }
  ],
  "meshes" : [
    {
      "primitives" : [
        {
          "attributes" : {
            "POSITION" : 1,
            "NORMAL" : 2,
            "TANGENT" : 3,
            "TEXCOORD_0" : 4,
            "TEXCOORD_1" : 5
          },
          "indices" : 0,
          "material" : 0
        }
      ],
      "name" : "ObjMD_Torch_Wall_A"
    }
  ],
  "buffers" : [
    {
      "uri" : "ObjMD_Torch_Wall_A.bin",
      "byteLength" : 19356
    }
  ],
  "bufferViews" : [
    {
      "buffer" : 0,
      "byteOffset" : 0,
      "byteLength" : 1044
    },
    {
      "buffer" : 0,
      "byteOffset" : 1044,
      "byteLength" : 3924
    },
    {
      "buffer" : 0,
      "byteOffset" : 4968,
      "byteLength" : 3924
    },
    {
      "buffer" : 0,
      "byteOffset" : 8892,
      "byteLength" : 5232
    },
    {
      "buffer" : 0,
      "byteOffset" : 14124,
      "byteLength" : 2616
    },
    {
      "buffer" : 0,
      "byteOffset" : 16740,
      "byteLength" : 2616
    }
  ],
  "accessors" : [
    {
      "bufferView" : 0,
      "componentType" : 5123,
      "count" : 522,
      "type" : "SCALAR"
    },
    {
      "bufferView" : 1,
      "min" : [ -0.353456, -5.67095e-17, -0.15625 ],
      "max" : [ 0, 0.985102, 0.15625 ],
      "componentType" : 5126,
      "count" : 327,
      "type" : "VEC3"
    },
    {
      "bufferView" : 2,
      "componentType" : 5126,
      "count" : 327,
      "type" : "VEC3"
    },
    {
      "bufferView" : 3,
      "componentType" : 5126,
      "count" : 327,
      "type" : "VEC4"
    },
    {
      "bufferView" : 4,
      "componentType" : 5126,
      "count" : 327,
      "type" : "VEC2"
    },
    {
      "bufferView" : 5,
      "componentType" : 5126,
      "count" : 327,
      "type" : "VEC2"
    }
  ]
}
