{
  "asset" : {
    "generator" : "UE Viewer (umodel) build 1590",
    "version" : "2.0"
  },
  "scene" : 0,
  "scenes" : [
    {
      "nodes" : [ 0 ]
    }
  ],
  "nodes" : [
    {
      "name" : "ObjMD_Torch_Ground_A",
      "mesh" : 0
    }
  ],
  "materials" : [
    {
      "name" : "ObjMI_Torch_A",
      "pbrMetallicRoughness" : {
        "baseColorFactor" : [ 0.3, 0.3, 0.3, 1.0 ],
        "metallicFactor" : 0.1,
        "roughnessFactor" : 0.5
      }
    }
  ],
  "meshes" : [
    {
      "primitives" : [
        {
          "attributes" : {
            "POSITION" : 1,
            "NORMAL" : 2,
            "TANGENT" : 3,
            "TEXCOORD_0" : 4
          },
          "indices" : 0,
          "material" : 0
        }
      ],
      "name" : "ObjMD_Torch_Ground_A"
    }
  ],
  "buffers" : [
    {
      "uri" : "ObjMD_Torch_Ground_A.bin",
      "byteLength" : 31860
    }
  ],
  "bufferViews" : [
    {
      "buffer" : 0,
      "byteOffset" : 0,
      "byteLength" : 2148
    },
    {
      "buffer" : 0,
      "byteOffset" : 2148,
      "byteLength" : 7428
    },
    {
      "buffer" : 0,
      "byteOffset" : 9576,
      "byteLength" : 7428
    },
    {
      "buffer" : 0,
      "byteOffset" : 17004,
      "byteLength" : 9904
    },
    {
      "buffer" : 0,
      "byteOffset" : 26908,
      "byteLength" : 4952
    }
  ],
  "accessors" : [
    {
      "bufferView" : 0,
      "componentType" : 5123,
      "count" : 1074,
      "type" : "SCALAR"
    },
    {
      "bufferView" : 1,
      "min" : [ -0.446036, 0.00260574, -0.446037 ],
      "max" : [ 0.446036, 0.438356, 0.446036 ],
      "componentType" : 5126,
      "count" : 619,
      "type" : "VEC3"
    },
    {
      "bufferView" : 2,
      "componentType" : 5126,
      "count" : 619,
      "type" : "VEC3"
    },
    {
      "bufferView" : 3,
      "componentType" : 5126,
      "count" : 619,
      "type" : "VEC4"
    },
    {
      "bufferView" : 4,
      "componentType" : 5126,
      "count" : 619,
      "type" : "VEC2"
    }
  ]
}
