{
  "asset" : {
    "generator" : "UE Viewer (umodel) build 1590",
    "version" : "2.0"
  },
  "scene" : 0,
  "scenes" : [
    {
      "nodes" : [ 0 ]
    }
  ],
  "nodes" : [
    {
      "name" : "ObjMD_Torch_Wall_B",
      "mesh" : 0
    }
  ],
  "materials" : [
    {
      "name" : "ObjMI_Torch_A",
      "pbrMetallicRoughness" : {
        "baseColorFactor" : [ 0.3, 0.3, 0.3, 1.0 ],
        "metallicFactor" : 0.1,
        "roughnessFactor" : 0.5
      }
    }
  ],
  "meshes" : [
    {
      "primitives" : [
        {
          "attributes" : {
            "POSITION" : 1,
            "NORMAL" : 2,
            "TANGENT" : 3,
            "TEXCOORD_0" : 4
          },
          "indices" : 0,
          "material" : 0
        }
      ],
      "name" : "ObjMD_Torch_Wall_B"
    }
  ],
  "buffers" : [
    {
      "uri" : "ObjMD_Torch_Wall_B.bin",
      "byteLength" : 29088
    }
  ],
  "bufferViews" : [
    {
      "buffer" : 0,
      "byteOffset" : 0,
      "byteLength" : 1824
    },
    {
      "buffer" : 0,
      "byteOffset" : 1824,
      "byteLength" : 6816
    },
    {
      "buffer" : 0,
      "byteOffset" : 8640,
      "byteLength" : 6816
    },
    {
      "buffer" : 0,
      "byteOffset" : 15456,
      "byteLength" : 9088
    },
    {
      "buffer" : 0,
      "byteOffset" : 24544,
      "byteLength" : 4544
    }
  ],
  "accessors" : [
    {
      "bufferView" : 0,
      "componentType" : 5123,
      "count" : 912,
      "type" : "SCALAR"
    },
    {
      "bufferView" : 1,
      "min" : [ -0.477407, -0.0103279, -0.374825 ],
      "max" : [ 0, 1.20481, 0.374825 ],
      "componentType" : 5126,
      "count" : 568,
      "type" : "VEC3"
    },
    {
      "bufferView" : 2,
      "componentType" : 5126,
      "count" : 568,
      "type" : "VEC3"
    },
    {
      "bufferView" : 3,
      "componentType" : 5126,
      "count" : 568,
      "type" : "VEC4"
    },
    {
      "bufferView" : 4,
      "componentType" : 5126,
      "count" : 568,
      "type" : "VEC2"
    }
  ]
}
