{
  "asset" : {
    "generator" : "UE Viewer (umodel) build 1590",
    "version" : "2.0"
  },
  "scene" : 0,
  "scenes" : [
    {
      "nodes" : [ 0 ]
    }
  ],
  "nodes" : [
    {
      "name" : "ObjMD_Torch_A_01",
      "mesh" : 0
    }
  ],
  "materials" : [
    {
      "name" : "ObjMI_Torch_A",
      "pbrMetallicRoughness" : {
        "baseColorFactor" : [ 0.3, 0.3, 0.3, 1.0 ],
        "metallicFactor" : 0.1,
        "roughnessFactor" : 0.5
      }
    }
  ],
  "meshes" : [
    {
      "primitives" : [
        {
          "attributes" : {
            "POSITION" : 1,
            "NORMAL" : 2,
            "TANGENT" : 3,
            "TEXCOORD_0" : 4,
            "TEXCOORD_1" : 5
          },
          "indices" : 0,
          "material" : 0
        }
      ],
      "name" : "ObjMD_Torch_A_01"
    }
  ],
  "buffers" : [
    {
      "uri" : "ObjMD_Torch_A_01.bin",
      "byteLength" : 80076
    }
  ],
  "bufferViews" : [
    {
      "buffer" : 0,
      "byteOffset" : 0,
      "byteLength" : 4812
    },
    {
      "buffer" : 0,
      "byteOffset" : 4812,
      "byteLength" : 16128
    },
    {
      "buffer" : 0,
      "byteOffset" : 20940,
      "byteLength" : 16128
    },
    {
      "buffer" : 0,
      "byteOffset" : 37068,
      "byteLength" : 21504
    },
    {
      "buffer" : 0,
      "byteOffset" : 58572,
      "byteLength" : 10752
    },
    {
      "buffer" : 0,
      "byteOffset" : 69324,
      "byteLength" : 10752
    }
  ],
  "accessors" : [
    {
      "bufferView" : 0,
      "componentType" : 5123,
      "count" : 2406,
      "type" : "SCALAR"
    },
    {
      "bufferView" : 1,
      "min" : [ -0.361982, 1.49012e-07, -0.361974 ],
      "max" : [ 0.361975, 1.31363, 0.361983 ],
      "componentType" : 5126,
      "count" : 1344,
      "type" : "VEC3"
    },
    {
      "bufferView" : 2,
      "componentType" : 5126,
      "count" : 1344,
      "type" : "VEC3"
    },
    {
      "bufferView" : 3,
      "componentType" : 5126,
      "count" : 1344,
      "type" : "VEC4"
    },
    {
      "bufferView" : 4,
      "componentType" : 5126,
      "count" : 1344,
      "type" : "VEC2"
    },
    {
      "bufferView" : 5,
      "componentType" : 5126,
      "count" : 1344,
      "type" : "VEC2"
    }
  ]
}
