{
  "asset" : {
    "generator" : "UE Viewer (umodel) build 1590",
    "version" : "2.0"
  },
  "scene" : 0,
  "scenes" : [
    {
      "nodes" : [ 0 ]
    }
  ],
  "nodes" : [
    {
      "name" : "ObjMD_Statue_A_wingB",
      "mesh" : 0
    }
  ],
  "materials" : [
    {
      "name" : "ObjMI_Statue_A",
      "pbrMetallicRoughness" : {
        "baseColorFactor" : [ 0.3, 0.3, 0.3, 1.0 ],
        "metallicFactor" : 0.1,
        "roughnessFactor" : 0.5
      }
    }
  ],
  "meshes" : [
    {
      "primitives" : [
        {
          "attributes" : {
            "POSITION" : 1,
            "NORMAL" : 2,
            "TANGENT" : 3,
            "TEXCOORD_0" : 4,
            "TEXCOORD_1" : 5
          },
          "indices" : 0,
          "material" : 0
        }
      ],
      "name" : "ObjMD_Statue_A_wingB"
    }
  ],
  "buffers" : [
    {
      "uri" : "ObjMD_Statue_A_wingB.bin",
      "byteLength" : 14648
    }
  ],
  "bufferViews" : [
    {
      "buffer" : 0,
      "byteOffset" : 0,
      "byteLength" : 1152
    },
    {
      "buffer" : 0,
      "byteOffset" : 1152,
      "byteLength" : 2892
    },
    {
      "buffer" : 0,
      "byteOffset" : 4044,
      "byteLength" : 2892
    },
    {
      "buffer" : 0,
      "byteOffset" : 6936,
      "byteLength" : 3856
    },
    {
      "buffer" : 0,
      "byteOffset" : 10792,
      "byteLength" : 1928
    },
    {
      "buffer" : 0,
      "byteOffset" : 12720,
      "byteLength" : 1928
    }
  ],
  "accessors" : [
    {
      "bufferView" : 0,
      "componentType" : 5123,
      "count" : 576,
      "type" : "SCALAR"
    },
    {
      "bufferView" : 1,
      "min" : [ -0.5625, 1.87601e-16, -1.59375 ],
      "max" : [ 0.5625, 4.125, 1.09375 ],
      "componentType" : 5126,
      "count" : 241,
      "type" : "VEC3"
    },
    {
      "bufferView" : 2,
      "componentType" : 5126,
      "count" : 241,
      "type" : "VEC3"
    },
    {
      "bufferView" : 3,
      "componentType" : 5126,
      "count" : 241,
      "type" : "VEC4"
    },
    {
      "bufferView" : 4,
      "componentType" : 5126,
      "count" : 241,
      "type" : "VEC2"
    },
    {
      "bufferView" : 5,
      "componentType" : 5126,
      "count" : 241,
      "type" : "VEC2"
    }
  ]
}
