{
  "asset" : {
    "generator" : "UE Viewer (umodel) build 1590",
    "version" : "2.0"
  },
  "scene" : 0,
  "scenes" : [
    {
      "nodes" : [ 0 ]
    }
  ],
  "nodes" : [
    {
      "name" : "ObjMD_Statue_A_Girl_L",
      "mesh" : 0
    }
  ],
  "materials" : [
    {
      "name" : "ObjMI_Statue_A",
      "pbrMetallicRoughness" : {
        "baseColorFactor" : [ 0.3, 0.3, 0.3, 1.0 ],
        "metallicFactor" : 0.1,
        "roughnessFactor" : 0.5
      }
    }
  ],
  "meshes" : [
    {
      "primitives" : [
        {
          "attributes" : {
            "POSITION" : 1,
            "NORMAL" : 2,
            "TANGENT" : 3,
            "TEXCOORD_0" : 4,
            "TEXCOORD_1" : 5
          },
          "indices" : 0,
          "material" : 0
        }
      ],
      "name" : "ObjMD_Statue_A_Girl_L"
    }
  ],
  "buffers" : [
    {
      "uri" : "ObjMD_Statue_A_Girl_L.bin",
      "byteLength" : 11604
    }
  ],
  "bufferViews" : [
    {
      "buffer" : 0,
      "byteOffset" : 0,
      "byteLength" : 852
    },
    {
      "buffer" : 0,
      "byteOffset" : 852,
      "byteLength" : 2304
    },
    {
      "buffer" : 0,
      "byteOffset" : 3156,
      "byteLength" : 2304
    },
    {
      "buffer" : 0,
      "byteOffset" : 5460,
      "byteLength" : 3072
    },
    {
      "buffer" : 0,
      "byteOffset" : 8532,
      "byteLength" : 1536
    },
    {
      "buffer" : 0,
      "byteOffset" : 10068,
      "byteLength" : 1536
    }
  ],
  "accessors" : [
    {
      "bufferView" : 0,
      "componentType" : 5123,
      "count" : 426,
      "type" : "SCALAR"
    },
    {
      "bufferView" : 1,
      "min" : [ -0.5625, -3.44432e-17, -1.0625 ],
      "max" : [ 0.5625, 4.25, 0.5625 ],
      "componentType" : 5126,
      "count" : 192,
      "type" : "VEC3"
    },
    {
      "bufferView" : 2,
      "componentType" : 5126,
      "count" : 192,
      "type" : "VEC3"
    },
    {
      "bufferView" : 3,
      "componentType" : 5126,
      "count" : 192,
      "type" : "VEC4"
    },
    {
      "bufferView" : 4,
      "componentType" : 5126,
      "count" : 192,
      "type" : "VEC2"
    },
    {
      "bufferView" : 5,
      "componentType" : 5126,
      "count" : 192,
      "type" : "VEC2"
    }
  ]
}
