{
  "asset" : {
    "generator" : "UE Viewer (umodel) build 1590",
    "version" : "2.0"
  },
  "scene" : 0,
  "scenes" : [
    {
      "nodes" : [ 0 ]
    }
  ],
  "nodes" : [
    {
      "name" : "ObjMD_Wagon_A",
      "mesh" : 0
    }
  ],
  "materials" : [
    {
      "name" : "ObjMI_Wagon_A",
      "pbrMetallicRoughness" : {
        "baseColorFactor" : [ 0.3, 0.3, 0.3, 1.0 ],
        "metallicFactor" : 0.1,
        "roughnessFactor" : 0.5
      }
    }
  ],
  "meshes" : [
    {
      "primitives" : [
        {
          "attributes" : {
            "POSITION" : 1,
            "NORMAL" : 2,
            "TANGENT" : 3,
            "TEXCOORD_0" : 4,
            "TEXCOORD_1" : 5
          },
          "indices" : 0,
          "material" : 0
        }
      ],
      "name" : "ObjMD_Wagon_A"
    }
  ],
  "buffers" : [
    {
      "uri" : "ObjMD_Wagon_A.bin",
      "byteLength" : 80484
    }
  ],
  "bufferViews" : [
    {
      "buffer" : 0,
      "byteOffset" : 0,
      "byteLength" : 5220
    },
    {
      "buffer" : 0,
      "byteOffset" : 5220,
      "byteLength" : 16128
    },
    {
      "buffer" : 0,
      "byteOffset" : 21348,
      "byteLength" : 16128
    },
    {
      "buffer" : 0,
      "byteOffset" : 37476,
      "byteLength" : 21504
    },
    {
      "buffer" : 0,
      "byteOffset" : 58980,
      "byteLength" : 10752
    },
    {
      "buffer" : 0,
      "byteOffset" : 69732,
      "byteLength" : 10752
    }
  ],
  "accessors" : [
    {
      "bufferView" : 0,
      "componentType" : 5123,
      "count" : 2610,
      "type" : "SCALAR"
    },
    {
      "bufferView" : 1,
      "min" : [ -2.20427, -0.0179775, -1.34375 ],
      "max" : [ 1.7914, 2.05144, 1.34375 ],
      "componentType" : 5126,
      "count" : 1344,
      "type" : "VEC3"
    },
    {
      "bufferView" : 2,
      "componentType" : 5126,
      "count" : 1344,
      "type" : "VEC3"
    },
    {
      "bufferView" : 3,
      "componentType" : 5126,
      "count" : 1344,
      "type" : "VEC4"
    },
    {
      "bufferView" : 4,
      "componentType" : 5126,
      "count" : 1344,
      "type" : "VEC2"
    },
    {
      "bufferView" : 5,
      "componentType" : 5126,
      "count" : 1344,
      "type" : "VEC2"
    }
  ]
}
