{
  "asset" : {
    "generator" : "UE Viewer (umodel) build 1590",
    "version" : "2.0"
  },
  "scene" : 0,
  "scenes" : [
    {
      "nodes" : [ 0 ]
    }
  ],
  "nodes" : [
    {
      "name" : "Co_BPI_Com_Bridge_F_0",
      "mesh" : 0
    }
  ],
  "materials" : [
    {
      "name" : "ObjMI_Bridge_F_River",
      "pbrMetallicRoughness" : {
        "baseColorFactor" : [ 0.3, 0.3, 0.3, 1.0 ],
        "metallicFactor" : 0.1,
        "roughnessFactor" : 0.5
      }
    }
  ],
  "meshes" : [
    {
      "primitives" : [
        {
          "attributes" : {
            "POSITION" : 1,
            "NORMAL" : 2,
            "TANGENT" : 3,
            "TEXCOORD_0" : 4,
            "TEXCOORD_1" : 5
          },
          "indices" : 0,
          "material" : 0
        }
      ],
      "name" : "Co_BPI_Com_Bridge_F_0"
    }
  ],
  "buffers" : [
    {
      "uri" : "Co_BPI_Com_Bridge_F_0.bin",
      "byteLength" : 123980
    }
  ],
  "bufferViews" : [
    {
      "buffer" : 0,
      "byteOffset" : 0,
      "byteLength" : 7500
    },
    {
      "buffer" : 0,
      "byteOffset" : 7500,
      "byteLength" : 24960
    },
    {
      "buffer" : 0,
      "byteOffset" : 32460,
      "byteLength" : 24960
    },
    {
      "buffer" : 0,
      "byteOffset" : 57420,
      "byteLength" : 33280
    },
    {
      "buffer" : 0,
      "byteOffset" : 90700,
      "byteLength" : 16640
    },
    {
      "buffer" : 0,
      "byteOffset" : 107340,
      "byteLength" : 16640
    }
  ],
  "accessors" : [
    {
      "bufferView" : 0,
      "componentType" : 5123,
      "count" : 3750,
      "type" : "SCALAR"
    },
    {
      "bufferView" : 1,
      "min" : [ -1.0625, -1.07157e-16, -1.8125 ],
      "max" : [ 8.0625, 6.625, 4.8125 ],
      "componentType" : 5126,
      "count" : 2080,
      "type" : "VEC3"
    },
    {
      "bufferView" : 2,
      "componentType" : 5126,
      "count" : 2080,
      "type" : "VEC3"
    },
    {
      "bufferView" : 3,
      "componentType" : 5126,
      "count" : 2080,
      "type" : "VEC4"
    },
    {
      "bufferView" : 4,
      "componentType" : 5126,
      "count" : 2080,
      "type" : "VEC2"
    },
    {
      "bufferView" : 5,
      "componentType" : 5126,
      "count" : 2080,
      "type" : "VEC2"
    }
  ]
}
