{
  "asset" : {
    "generator" : "UE Viewer (umodel) build 1590",
    "version" : "2.0"
  },
  "scene" : 0,
  "scenes" : [
    {
      "nodes" : [ 0 ]
    }
  ],
  "nodes" : [
    {
      "name" : "ObjMD_Fountain_A",
      "mesh" : 0
    }
  ],
  "materials" : [
    {
      "name" : "ObjMI_Fountain_A",
      "pbrMetallicRoughness" : {
        "baseColorFactor" : [ 0.3, 0.3, 0.3, 1.0 ],
        "metallicFactor" : 0.1,
        "roughnessFactor" : 0.5
      }
    },
    {
      "name" : "M_LakeWater_01_Inst",
      "pbrMetallicRoughness" : {
        "baseColorFactor" : [ 0.9, 0.3, 0.3, 1.0 ],
        "metallicFactor" : 0.1,
        "roughnessFactor" : 0.5
      }
    }
  ],
  "meshes" : [
    {
      "primitives" : [
        {
          "attributes" : {
            "POSITION" : 1,
            "NORMAL" : 2,
            "TANGENT" : 3,
            "TEXCOORD_0" : 4,
            "TEXCOORD_1" : 5
          },
          "indices" : 0,
          "material" : 0
        },
        {
          "attributes" : {
            "POSITION" : 7,
            "NORMAL" : 8,
            "TANGENT" : 9,
            "TEXCOORD_0" : 10,
            "TEXCOORD_1" : 11
          },
          "indices" : 6,
          "material" : 1
        }
      ],
      "name" : "ObjMD_Fountain_A"
    }
  ],
  "buffers" : [
    {
      "uri" : "ObjMD_Fountain_A.bin",
      "byteLength" : 46428
    }
  ],
  "bufferViews" : [
    {
      "buffer" : 0,
      "byteOffset" : 0,
      "byteLength" : 3432
    },
    {
      "buffer" : 0,
      "byteOffset" : 3432,
      "byteLength" : 8436
    },
    {
      "buffer" : 0,
      "byteOffset" : 11868,
      "byteLength" : 8436
    },
    {
      "buffer" : 0,
      "byteOffset" : 20304,
      "byteLength" : 11248
    },
    {
      "buffer" : 0,
      "byteOffset" : 31552,
      "byteLength" : 5624
    },
    {
      "buffer" : 0,
      "byteOffset" : 37176,
      "byteLength" : 5624
    },
    {
      "buffer" : 0,
      "byteOffset" : 42800,
      "byteLength" : 324
    },
    {
      "buffer" : 0,
      "byteOffset" : 43124,
      "byteLength" : 708
    },
    {
      "buffer" : 0,
      "byteOffset" : 43832,
      "byteLength" : 708
    },
    {
      "buffer" : 0,
      "byteOffset" : 44540,
      "byteLength" : 944
    },
    {
      "buffer" : 0,
      "byteOffset" : 45484,
      "byteLength" : 472
    },
    {
      "buffer" : 0,
      "byteOffset" : 45956,
      "byteLength" : 472
    }
  ],
  "accessors" : [
    {
      "bufferView" : 0,
      "componentType" : 5123,
      "count" : 1716,
      "type" : "SCALAR"
    },
    {
      "bufferView" : 1,
      "min" : [ -2.3936, -1.46566e-16, -2.3936 ],
      "max" : [ 2.3936, 2.4375, 2.3936 ],
      "componentType" : 5126,
      "count" : 703,
      "type" : "VEC3"
    },
    {
      "bufferView" : 2,
      "componentType" : 5126,
      "count" : 703,
      "type" : "VEC3"
    },
    {
      "bufferView" : 3,
      "componentType" : 5126,
      "count" : 703,
      "type" : "VEC4"
    },
    {
      "bufferView" : 4,
      "componentType" : 5126,
      "count" : 703,
      "type" : "VEC2"
    },
    {
      "bufferView" : 5,
      "componentType" : 5126,
      "count" : 703,
      "type" : "VEC2"
    },
    {
      "bufferView" : 6,
      "componentType" : 5123,
      "count" : 162,
      "type" : "SCALAR"
    },
    {
      "bufferView" : 7,
      "min" : [ -2.01438, 0.4, -2.01438 ],
      "max" : [ 2.01438, 2, 2.01438 ],
      "componentType" : 5126,
      "count" : 59,
      "type" : "VEC3"
    },
    {
      "bufferView" : 8,
      "componentType" : 5126,
      "count" : 59,
      "type" : "VEC3"
    },
    {
      "bufferView" : 9,
      "componentType" : 5126,
      "count" : 59,
      "type" : "VEC4"
    },
    {
      "bufferView" : 10,
      "componentType" : 5126,
      "count" : 59,
      "type" : "VEC2"
    },
    {
      "bufferView" : 11,
      "componentType" : 5126,
      "count" : 59,
      "type" : "VEC2"
    }
  ]
}
