{
  "asset" : {
    "generator" : "UE Viewer (umodel) build 1590",
    "version" : "2.0"
  },
  "scene" : 0,
  "scenes" : [
    {
      "nodes" : [ 0 ]
    }
  ],
  "nodes" : [
    {
      "name" : "ObjMD_Fountain_B",
      "mesh" : 0
    }
  ],
  "materials" : [
    {
      "name" : "ObjMI_Fountain_A",
      "pbrMetallicRoughness" : {
        "baseColorFactor" : [ 0.3, 0.3, 0.3, 1.0 ],
        "metallicFactor" : 0.1,
        "roughnessFactor" : 0.5
      }
    },
    {
      "name" : "M_LakeWater_01_Inst",
      "pbrMetallicRoughness" : {
        "baseColorFactor" : [ 0.9, 0.3, 0.3, 1.0 ],
        "metallicFactor" : 0.1,
        "roughnessFactor" : 0.5
      }
    }
  ],
  "meshes" : [
    {
      "primitives" : [
        {
          "attributes" : {
            "POSITION" : 1,
            "NORMAL" : 2,
            "TANGENT" : 3,
            "TEXCOORD_0" : 4,
            "TEXCOORD_1" : 5
          },
          "indices" : 0,
          "material" : 0
        },
        {
          "attributes" : {
            "POSITION" : 7,
            "NORMAL" : 8,
            "TANGENT" : 9,
            "TEXCOORD_0" : 10,
            "TEXCOORD_1" : 11
          },
          "indices" : 6,
          "material" : 1
        }
      ],
      "name" : "ObjMD_Fountain_B"
    }
  ],
  "buffers" : [
    {
      "uri" : "ObjMD_Fountain_B.bin",
      "byteLength" : 62444
    }
  ],
  "bufferViews" : [
    {
      "buffer" : 0,
      "byteOffset" : 0,
      "byteLength" : 3432
    },
    {
      "buffer" : 0,
      "byteOffset" : 3432,
      "byteLength" : 11868
    },
    {
      "buffer" : 0,
      "byteOffset" : 15300,
      "byteLength" : 11868
    },
    {
      "buffer" : 0,
      "byteOffset" : 27168,
      "byteLength" : 15824
    },
    {
      "buffer" : 0,
      "byteOffset" : 42992,
      "byteLength" : 7912
    },
    {
      "buffer" : 0,
      "byteOffset" : 50904,
      "byteLength" : 7912
    },
    {
      "buffer" : 0,
      "byteOffset" : 58816,
      "byteLength" : 324
    },
    {
      "buffer" : 0,
      "byteOffset" : 59140,
      "byteLength" : 708
    },
    {
      "buffer" : 0,
      "byteOffset" : 59848,
      "byteLength" : 708
    },
    {
      "buffer" : 0,
      "byteOffset" : 60556,
      "byteLength" : 944
    },
    {
      "buffer" : 0,
      "byteOffset" : 61500,
      "byteLength" : 472
    },
    {
      "buffer" : 0,
      "byteOffset" : 61972,
      "byteLength" : 472
    }
  ],
  "accessors" : [
    {
      "bufferView" : 0,
      "componentType" : 5123,
      "count" : 1716,
      "type" : "SCALAR"
    },
    {
      "bufferView" : 1,
      "min" : [ -1.7952, -1.09924e-16, -1.7952 ],
      "max" : [ 1.7952, 1.82813, 1.7952 ],
      "componentType" : 5126,
      "count" : 989,
      "type" : "VEC3"
    },
    {
      "bufferView" : 2,
      "componentType" : 5126,
      "count" : 989,
      "type" : "VEC3"
    },
    {
      "bufferView" : 3,
      "componentType" : 5126,
      "count" : 989,
      "type" : "VEC4"
    },
    {
      "bufferView" : 4,
      "componentType" : 5126,
      "count" : 989,
      "type" : "VEC2"
    },
    {
      "bufferView" : 5,
      "componentType" : 5126,
      "count" : 989,
      "type" : "VEC2"
    },
    {
      "bufferView" : 6,
      "componentType" : 5123,
      "count" : 162,
      "type" : "SCALAR"
    },
    {
      "bufferView" : 7,
      "min" : [ -1.51078, 0.3, -1.51078 ],
      "max" : [ 1.51078, 1.5, 1.51078 ],
      "componentType" : 5126,
      "count" : 59,
      "type" : "VEC3"
    },
    {
      "bufferView" : 8,
      "componentType" : 5126,
      "count" : 59,
      "type" : "VEC3"
    },
    {
      "bufferView" : 9,
      "componentType" : 5126,
      "count" : 59,
      "type" : "VEC4"
    },
    {
      "bufferView" : 10,
      "componentType" : 5126,
      "count" : 59,
      "type" : "VEC2"
    },
    {
      "bufferView" : 11,
      "componentType" : 5126,
      "count" : 59,
      "type" : "VEC2"
    }
  ]
}
