{
  "asset" : {
    "generator" : "UE Viewer (umodel) build 1590",
    "version" : "2.0"
  },
  "scene" : 0,
  "scenes" : [
    {
      "nodes" : [ 0 ]
    }
  ],
  "nodes" : [
    {
      "name" : "ObjMD_Mount_Flowerpost_A",
      "mesh" : 0
    }
  ],
  "materials" : [
    {
      "name" : "ObjMI_Mount_Flowerpost_A",
      "pbrMetallicRoughness" : {
        "baseColorFactor" : [ 0.3, 0.3, 0.3, 1.0 ],
        "metallicFactor" : 0.1,
        "roughnessFactor" : 0.5
      }
    }
  ],
  "meshes" : [
    {
      "primitives" : [
        {
          "attributes" : {
            "POSITION" : 1,
            "NORMAL" : 2,
            "TANGENT" : 3,
            "TEXCOORD_0" : 4,
            "TEXCOORD_1" : 5
          },
          "indices" : 0,
          "material" : 0
        }
      ],
      "name" : "ObjMD_Mount_Flowerpost_A"
    }
  ],
  "buffers" : [
    {
      "uri" : "ObjMD_Mount_Flowerpost_A.bin",
      "byteLength" : 102972
    }
  ],
  "bufferViews" : [
    {
      "buffer" : 0,
      "byteOffset" : 0,
      "byteLength" : 5532
    },
    {
      "buffer" : 0,
      "byteOffset" : 5532,
      "byteLength" : 20880
    },
    {
      "buffer" : 0,
      "byteOffset" : 26412,
      "byteLength" : 20880
    },
    {
      "buffer" : 0,
      "byteOffset" : 47292,
      "byteLength" : 27840
    },
    {
      "buffer" : 0,
      "byteOffset" : 75132,
      "byteLength" : 13920
    },
    {
      "buffer" : 0,
      "byteOffset" : 89052,
      "byteLength" : 13920
    }
  ],
  "accessors" : [
    {
      "bufferView" : 0,
      "componentType" : 5123,
      "count" : 2766,
      "type" : "SCALAR"
    },
    {
      "bufferView" : 1,
      "min" : [ -0.586003, -5.35783e-17, -1.03758 ],
      "max" : [ 0.050417, 0.731781, 1.05296 ],
      "componentType" : 5126,
      "count" : 1740,
      "type" : "VEC3"
    },
    {
      "bufferView" : 2,
      "componentType" : 5126,
      "count" : 1740,
      "type" : "VEC3"
    },
    {
      "bufferView" : 3,
      "componentType" : 5126,
      "count" : 1740,
      "type" : "VEC4"
    },
    {
      "bufferView" : 4,
      "componentType" : 5126,
      "count" : 1740,
      "type" : "VEC2"
    },
    {
      "bufferView" : 5,
      "componentType" : 5126,
      "count" : 1740,
      "type" : "VEC2"
    }
  ]
}
