{
  "asset" : {
    "generator" : "UE Viewer (umodel) build 1590",
    "version" : "2.0"
  },
  "scene" : 0,
  "scenes" : [
    {
      "nodes" : [ 0 ]
    }
  ],
  "nodes" : [
    {
      "name" : "ObpMD_Palace_A_entrance",
      "mesh" : 0
    }
  ],
  "materials" : [
    {
      "name" : "ObjMI_Palace_A",
      "pbrMetallicRoughness" : {
        "baseColorFactor" : [ 0.3, 0.3, 0.3, 1.0 ],
        "metallicFactor" : 0.1,
        "roughnessFactor" : 0.5
      }
    }
  ],
  "meshes" : [
    {
      "primitives" : [
        {
          "attributes" : {
            "POSITION" : 1,
            "NORMAL" : 2,
            "TANGENT" : 3,
            "TEXCOORD_0" : 4,
            "TEXCOORD_1" : 5
          },
          "indices" : 0,
          "material" : 0
        }
      ],
      "name" : "ObpMD_Palace_A_entrance"
    }
  ],
  "buffers" : [
    {
      "uri" : "ObpMD_Palace_A_entrance.bin",
      "byteLength" : 199728
    }
  ],
  "bufferViews" : [
    {
      "buffer" : 0,
      "byteOffset" : 0,
      "byteLength" : 12072
    },
    {
      "buffer" : 0,
      "byteOffset" : 12072,
      "byteLength" : 40212
    },
    {
      "buffer" : 0,
      "byteOffset" : 52284,
      "byteLength" : 40212
    },
    {
      "buffer" : 0,
      "byteOffset" : 92496,
      "byteLength" : 53616
    },
    {
      "buffer" : 0,
      "byteOffset" : 146112,
      "byteLength" : 26808
    },
    {
      "buffer" : 0,
      "byteOffset" : 172920,
      "byteLength" : 26808
    }
  ],
  "accessors" : [
    {
      "bufferView" : 0,
      "componentType" : 5123,
      "count" : 6036,
      "type" : "SCALAR"
    },
    {
      "bufferView" : 1,
      "min" : [ -4.40943, -0.307435, -0.419849 ],
      "max" : [ 0.163425, 5.90389, 4.45515 ],
      "componentType" : 5126,
      "count" : 3351,
      "type" : "VEC3"
    },
    {
      "bufferView" : 2,
      "componentType" : 5126,
      "count" : 3351,
      "type" : "VEC3"
    },
    {
      "bufferView" : 3,
      "componentType" : 5126,
      "count" : 3351,
      "type" : "VEC4"
    },
    {
      "bufferView" : 4,
      "componentType" : 5126,
      "count" : 3351,
      "type" : "VEC2"
    },
    {
      "bufferView" : 5,
      "componentType" : 5126,
      "count" : 3351,
      "type" : "VEC2"
    }
  ]
}
