{
  "asset" : {
    "generator" : "UE Viewer (umodel) build 1590",
    "version" : "2.0"
  },
  "scene" : 0,
  "scenes" : [
    {
      "nodes" : [ 0 ]
    }
  ],
  "nodes" : [
    {
      "name" : "ObpMD_Palace_corridor_Low_A_root_st",
      "mesh" : 0
    }
  ],
  "materials" : [
    {
      "name" : "ObjMI_Palace_A",
      "pbrMetallicRoughness" : {
        "baseColorFactor" : [ 0.3, 0.3, 0.3, 1.0 ],
        "metallicFactor" : 0.1,
        "roughnessFactor" : 0.5
      }
    }
  ],
  "meshes" : [
    {
      "primitives" : [
        {
          "attributes" : {
            "POSITION" : 1,
            "NORMAL" : 2,
            "TANGENT" : 3,
            "TEXCOORD_0" : 4,
            "TEXCOORD_1" : 5
          },
          "indices" : 0,
          "material" : 0
        }
      ],
      "name" : "ObpMD_Palace_corridor_Low_A_root_st"
    }
  ],
  "buffers" : [
    {
      "uri" : "ObpMD_Palace_corridor_Low_A_root_st.bin",
      "byteLength" : 36408
    }
  ],
  "bufferViews" : [
    {
      "buffer" : 0,
      "byteOffset" : 0,
      "byteLength" : 2136
    },
    {
      "buffer" : 0,
      "byteOffset" : 2136,
      "byteLength" : 7344
    },
    {
      "buffer" : 0,
      "byteOffset" : 9480,
      "byteLength" : 7344
    },
    {
      "buffer" : 0,
      "byteOffset" : 16824,
      "byteLength" : 9792
    },
    {
      "buffer" : 0,
      "byteOffset" : 26616,
      "byteLength" : 4896
    },
    {
      "buffer" : 0,
      "byteOffset" : 31512,
      "byteLength" : 4896
    }
  ],
  "accessors" : [
    {
      "bufferView" : 0,
      "componentType" : 5123,
      "count" : 1068,
      "type" : "SCALAR"
    },
    {
      "bufferView" : 1,
      "min" : [ -1.24551, 5.77242e-20, -0.395413 ],
      "max" : [ 0.134655, 5.90554, 1.00277 ],
      "componentType" : 5126,
      "count" : 612,
      "type" : "VEC3"
    },
    {
      "bufferView" : 2,
      "componentType" : 5126,
      "count" : 612,
      "type" : "VEC3"
    },
    {
      "bufferView" : 3,
      "componentType" : 5126,
      "count" : 612,
      "type" : "VEC4"
    },
    {
      "bufferView" : 4,
      "componentType" : 5126,
      "count" : 612,
      "type" : "VEC2"
    },
    {
      "bufferView" : 5,
      "componentType" : 5126,
      "count" : 612,
      "type" : "VEC2"
    }
  ]
}
