{
  "asset" : {
    "generator" : "UE Viewer (umodel) build 1590",
    "version" : "2.0"
  },
  "scene" : 0,
  "scenes" : [
    {
      "nodes" : [ 0 ]
    }
  ],
  "nodes" : [
    {
      "name" : "ObpMD_Palace_A_room_small_Cliff",
      "mesh" : 0
    }
  ],
  "materials" : [
    {
      "name" : "ObjMI_Palace_A",
      "pbrMetallicRoughness" : {
        "baseColorFactor" : [ 0.3, 0.3, 0.3, 1.0 ],
        "metallicFactor" : 0.1,
        "roughnessFactor" : 0.5
      }
    }
  ],
  "meshes" : [
    {
      "primitives" : [
        {
          "attributes" : {
            "POSITION" : 1,
            "NORMAL" : 2,
            "TANGENT" : 3,
            "TEXCOORD_0" : 4
          },
          "indices" : 0,
          "material" : 0
        }
      ],
      "name" : "ObpMD_Palace_A_room_small_Cliff"
    }
  ],
  "buffers" : [
    {
      "uri" : "ObpMD_Palace_A_room_small_Cliff.bin",
      "byteLength" : 279912
    }
  ],
  "bufferViews" : [
    {
      "buffer" : 0,
      "byteOffset" : 0,
      "byteLength" : 18696
    },
    {
      "buffer" : 0,
      "byteOffset" : 18696,
      "byteLength" : 65304
    },
    {
      "buffer" : 0,
      "byteOffset" : 84000,
      "byteLength" : 65304
    },
    {
      "buffer" : 0,
      "byteOffset" : 149304,
      "byteLength" : 87072
    },
    {
      "buffer" : 0,
      "byteOffset" : 236376,
      "byteLength" : 43536
    }
  ],
  "accessors" : [
    {
      "bufferView" : 0,
      "componentType" : 5123,
      "count" : 9348,
      "type" : "SCALAR"
    },
    {
      "bufferView" : 1,
      "min" : [ -2.8797, -1.67603e-16, -2.8168 ],
      "max" : [ 1.51604, 7.34272, 2.8168 ],
      "componentType" : 5126,
      "count" : 5442,
      "type" : "VEC3"
    },
    {
      "bufferView" : 2,
      "componentType" : 5126,
      "count" : 5442,
      "type" : "VEC3"
    },
    {
      "bufferView" : 3,
      "componentType" : 5126,
      "count" : 5442,
      "type" : "VEC4"
    },
    {
      "bufferView" : 4,
      "componentType" : 5126,
      "count" : 5442,
      "type" : "VEC2"
    }
  ]
}
