{
  "asset" : {
    "generator" : "UE Viewer (umodel) build 1590",
    "version" : "2.0"
  },
  "scene" : 0,
  "scenes" : [
    {
      "nodes" : [ 0 ]
    }
  ],
  "nodes" : [
    {
      "name" : "ObpMD_Palace_corridor_Middle_A_root_lp",
      "mesh" : 0
    }
  ],
  "materials" : [
    {
      "name" : "ObjMI_Palace_A",
      "pbrMetallicRoughness" : {
        "baseColorFactor" : [ 0.3, 0.3, 0.3, 1.0 ],
        "metallicFactor" : 0.1,
        "roughnessFactor" : 0.5
      }
    }
  ],
  "meshes" : [
    {
      "primitives" : [
        {
          "attributes" : {
            "POSITION" : 1,
            "NORMAL" : 2,
            "TANGENT" : 3,
            "TEXCOORD_0" : 4,
            "TEXCOORD_1" : 5
          },
          "indices" : 0,
          "material" : 0
        }
      ],
      "name" : "ObpMD_Palace_corridor_Middle_A_root_lp"
    }
  ],
  "buffers" : [
    {
      "uri" : "ObpMD_Palace_corridor_Middle_A_root_lp.bin",
      "byteLength" : 80776
    }
  ],
  "bufferViews" : [
    {
      "buffer" : 0,
      "byteOffset" : 0,
      "byteLength" : 5064
    },
    {
      "buffer" : 0,
      "byteOffset" : 5064,
      "byteLength" : 16224
    },
    {
      "buffer" : 0,
      "byteOffset" : 21288,
      "byteLength" : 16224
    },
    {
      "buffer" : 0,
      "byteOffset" : 37512,
      "byteLength" : 21632
    },
    {
      "buffer" : 0,
      "byteOffset" : 59144,
      "byteLength" : 10816
    },
    {
      "buffer" : 0,
      "byteOffset" : 69960,
      "byteLength" : 10816
    }
  ],
  "accessors" : [
    {
      "bufferView" : 0,
      "componentType" : 5123,
      "count" : 2532,
      "type" : "SCALAR"
    },
    {
      "bufferView" : 1,
      "min" : [ -1.11083, -6.14323e-20, -0.397316 ],
      "max" : [ 1.32651, 6.90554, 1.99992 ],
      "componentType" : 5126,
      "count" : 1352,
      "type" : "VEC3"
    },
    {
      "bufferView" : 2,
      "componentType" : 5126,
      "count" : 1352,
      "type" : "VEC3"
    },
    {
      "bufferView" : 3,
      "componentType" : 5126,
      "count" : 1352,
      "type" : "VEC4"
    },
    {
      "bufferView" : 4,
      "componentType" : 5126,
      "count" : 1352,
      "type" : "VEC2"
    },
    {
      "bufferView" : 5,
      "componentType" : 5126,
      "count" : 1352,
      "type" : "VEC2"
    }
  ]
}
