{
  "asset" : {
    "generator" : "UE Viewer (umodel) build 1590",
    "version" : "2.0"
  },
  "scene" : 0,
  "scenes" : [
    {
      "nodes" : [ 0 ]
    }
  ],
  "nodes" : [
    {
      "name" : "ObpMD_Palace_A_room_small",
      "mesh" : 0
    }
  ],
  "materials" : [
    {
      "name" : "ObjMI_Palace_A",
      "pbrMetallicRoughness" : {
        "baseColorFactor" : [ 0.3, 0.3, 0.3, 1.0 ],
        "metallicFactor" : 0.1,
        "roughnessFactor" : 0.5
      }
    }
  ],
  "meshes" : [
    {
      "primitives" : [
        {
          "attributes" : {
            "POSITION" : 1,
            "NORMAL" : 2,
            "TANGENT" : 3,
            "TEXCOORD_0" : 4,
            "TEXCOORD_1" : 5
          },
          "indices" : 0,
          "material" : 0
        }
      ],
      "name" : "ObpMD_Palace_A_room_small"
    }
  ],
  "buffers" : [
    {
      "uri" : "ObpMD_Palace_A_room_small.bin",
      "byteLength" : 308560
    }
  ],
  "bufferViews" : [
    {
      "buffer" : 0,
      "byteOffset" : 0,
      "byteLength" : 17808
    },
    {
      "buffer" : 0,
      "byteOffset" : 17808,
      "byteLength" : 62304
    },
    {
      "buffer" : 0,
      "byteOffset" : 80112,
      "byteLength" : 62304
    },
    {
      "buffer" : 0,
      "byteOffset" : 142416,
      "byteLength" : 83072
    },
    {
      "buffer" : 0,
      "byteOffset" : 225488,
      "byteLength" : 41536
    },
    {
      "buffer" : 0,
      "byteOffset" : 267024,
      "byteLength" : 41536
    }
  ],
  "accessors" : [
    {
      "bufferView" : 0,
      "componentType" : 5123,
      "count" : 8904,
      "type" : "SCALAR"
    },
    {
      "bufferView" : 1,
      "min" : [ -2.80354, -1.67603e-16, -2.8168 ],
      "max" : [ 1.51604, 7.34272, 2.8168 ],
      "componentType" : 5126,
      "count" : 5192,
      "type" : "VEC3"
    },
    {
      "bufferView" : 2,
      "componentType" : 5126,
      "count" : 5192,
      "type" : "VEC3"
    },
    {
      "bufferView" : 3,
      "componentType" : 5126,
      "count" : 5192,
      "type" : "VEC4"
    },
    {
      "bufferView" : 4,
      "componentType" : 5126,
      "count" : 5192,
      "type" : "VEC2"
    },
    {
      "bufferView" : 5,
      "componentType" : 5126,
      "count" : 5192,
      "type" : "VEC2"
    }
  ]
}
