{
  "asset" : {
    "generator" : "UE Viewer (umodel) build 1590",
    "version" : "2.0"
  },
  "scene" : 0,
  "scenes" : [
    {
      "nodes" : [ 0 ]
    }
  ],
  "nodes" : [
    {
      "name" : "ObpMD_Palace_A_room_middle",
      "mesh" : 0
    }
  ],
  "materials" : [
    {
      "name" : "ObjMI_Palace_A",
      "pbrMetallicRoughness" : {
        "baseColorFactor" : [ 0.3, 0.3, 0.3, 1.0 ],
        "metallicFactor" : 0.1,
        "roughnessFactor" : 0.5
      }
    }
  ],
  "meshes" : [
    {
      "primitives" : [
        {
          "attributes" : {
            "POSITION" : 1,
            "NORMAL" : 2,
            "TANGENT" : 3,
            "TEXCOORD_0" : 4,
            "TEXCOORD_1" : 5
          },
          "indices" : 0,
          "material" : 0
        }
      ],
      "name" : "ObpMD_Palace_A_room_middle"
    }
  ],
  "buffers" : [
    {
      "uri" : "ObpMD_Palace_A_room_middle.bin",
      "byteLength" : 297792
    }
  ],
  "bufferViews" : [
    {
      "buffer" : 0,
      "byteOffset" : 0,
      "byteLength" : 17568
    },
    {
      "buffer" : 0,
      "byteOffset" : 17568,
      "byteLength" : 60048
    },
    {
      "buffer" : 0,
      "byteOffset" : 77616,
      "byteLength" : 60048
    },
    {
      "buffer" : 0,
      "byteOffset" : 137664,
      "byteLength" : 80064
    },
    {
      "buffer" : 0,
      "byteOffset" : 217728,
      "byteLength" : 40032
    },
    {
      "buffer" : 0,
      "byteOffset" : 257760,
      "byteLength" : 40032
    }
  ],
  "accessors" : [
    {
      "bufferView" : 0,
      "componentType" : 5123,
      "count" : 8784,
      "type" : "SCALAR"
    },
    {
      "bufferView" : 1,
      "min" : [ -4.0872, -2.27991e-16, -4.05714 ],
      "max" : [ 2.08433, 13.8147, 4.05714 ],
      "componentType" : 5126,
      "count" : 5004,
      "type" : "VEC3"
    },
    {
      "bufferView" : 2,
      "componentType" : 5126,
      "count" : 5004,
      "type" : "VEC3"
    },
    {
      "bufferView" : 3,
      "componentType" : 5126,
      "count" : 5004,
      "type" : "VEC4"
    },
    {
      "bufferView" : 4,
      "componentType" : 5126,
      "count" : 5004,
      "type" : "VEC2"
    },
    {
      "bufferView" : 5,
      "componentType" : 5126,
      "count" : 5004,
      "type" : "VEC2"
    }
  ]
}
