{
  "asset" : {
    "generator" : "UE Viewer (umodel) build 1590",
    "version" : "2.0"
  },
  "scene" : 0,
  "scenes" : [
    {
      "nodes" : [ 0 ]
    }
  ],
  "nodes" : [
    {
      "name" : "ObpMD_Palace_corridor_Tall_A_root_st",
      "mesh" : 0
    }
  ],
  "materials" : [
    {
      "name" : "ObjMI_Palace_A",
      "pbrMetallicRoughness" : {
        "baseColorFactor" : [ 0.3, 0.3, 0.3, 1.0 ],
        "metallicFactor" : 0.1,
        "roughnessFactor" : 0.5
      }
    }
  ],
  "meshes" : [
    {
      "primitives" : [
        {
          "attributes" : {
            "POSITION" : 1,
            "NORMAL" : 2,
            "TANGENT" : 3,
            "TEXCOORD_0" : 4,
            "TEXCOORD_1" : 5
          },
          "indices" : 0,
          "material" : 0
        }
      ],
      "name" : "ObpMD_Palace_corridor_Tall_A_root_st"
    }
  ],
  "buffers" : [
    {
      "uri" : "ObpMD_Palace_corridor_Tall_A_root_st.bin",
      "byteLength" : 69996
    }
  ],
  "bufferViews" : [
    {
      "buffer" : 0,
      "byteOffset" : 0,
      "byteLength" : 4700
    },
    {
      "buffer" : 0,
      "byteOffset" : 4700,
      "byteLength" : 13992
    },
    {
      "buffer" : 0,
      "byteOffset" : 18692,
      "byteLength" : 13992
    },
    {
      "buffer" : 0,
      "byteOffset" : 32684,
      "byteLength" : 18656
    },
    {
      "buffer" : 0,
      "byteOffset" : 51340,
      "byteLength" : 9328
    },
    {
      "buffer" : 0,
      "byteOffset" : 60668,
      "byteLength" : 9328
    }
  ],
  "accessors" : [
    {
      "bufferView" : 0,
      "componentType" : 5123,
      "count" : 2349,
      "type" : "SCALAR"
    },
    {
      "bufferView" : 1,
      "min" : [ -1.118, -1.22515e-16, -2.61024 ],
      "max" : [ 0.946547, 10.242, 3.8147e-06 ],
      "componentType" : 5126,
      "count" : 1166,
      "type" : "VEC3"
    },
    {
      "bufferView" : 2,
      "componentType" : 5126,
      "count" : 1166,
      "type" : "VEC3"
    },
    {
      "bufferView" : 3,
      "componentType" : 5126,
      "count" : 1166,
      "type" : "VEC4"
    },
    {
      "bufferView" : 4,
      "componentType" : 5126,
      "count" : 1166,
      "type" : "VEC2"
    },
    {
      "bufferView" : 5,
      "componentType" : 5126,
      "count" : 1166,
      "type" : "VEC2"
    }
  ]
}
