{
  "asset" : {
    "generator" : "UE Viewer (umodel) build 1590",
    "version" : "2.0"
  },
  "scene" : 0,
  "scenes" : [
    {
      "nodes" : [ 0 ]
    }
  ],
  "nodes" : [
    {
      "name" : "ObpMD_Palace_corridor_Tall_A_root_lp",
      "mesh" : 0
    }
  ],
  "materials" : [
    {
      "name" : "ObjMI_Palace_A",
      "pbrMetallicRoughness" : {
        "baseColorFactor" : [ 0.3, 0.3, 0.3, 1.0 ],
        "metallicFactor" : 0.1,
        "roughnessFactor" : 0.5
      }
    }
  ],
  "meshes" : [
    {
      "primitives" : [
        {
          "attributes" : {
            "POSITION" : 1,
            "NORMAL" : 2,
            "TANGENT" : 3,
            "TEXCOORD_0" : 4,
            "TEXCOORD_1" : 5
          },
          "indices" : 0,
          "material" : 0
        }
      ],
      "name" : "ObpMD_Palace_corridor_Tall_A_root_lp"
    }
  ],
  "buffers" : [
    {
      "uri" : "ObpMD_Palace_corridor_Tall_A_root_lp.bin",
      "byteLength" : 53340
    }
  ],
  "bufferViews" : [
    {
      "buffer" : 0,
      "byteOffset" : 0,
      "byteLength" : 3108
    },
    {
      "buffer" : 0,
      "byteOffset" : 3108,
      "byteLength" : 10764
    },
    {
      "buffer" : 0,
      "byteOffset" : 13872,
      "byteLength" : 10764
    },
    {
      "buffer" : 0,
      "byteOffset" : 24636,
      "byteLength" : 14352
    },
    {
      "buffer" : 0,
      "byteOffset" : 38988,
      "byteLength" : 7176
    },
    {
      "buffer" : 0,
      "byteOffset" : 46164,
      "byteLength" : 7176
    }
  ],
  "accessors" : [
    {
      "bufferView" : 0,
      "componentType" : 5123,
      "count" : 1554,
      "type" : "SCALAR"
    },
    {
      "bufferView" : 1,
      "min" : [ -1.11799, -5.74614e-20, -0.398781 ],
      "max" : [ 0.290972, 7.96383, 2.00001 ],
      "componentType" : 5126,
      "count" : 897,
      "type" : "VEC3"
    },
    {
      "bufferView" : 2,
      "componentType" : 5126,
      "count" : 897,
      "type" : "VEC3"
    },
    {
      "bufferView" : 3,
      "componentType" : 5126,
      "count" : 897,
      "type" : "VEC4"
    },
    {
      "bufferView" : 4,
      "componentType" : 5126,
      "count" : 897,
      "type" : "VEC2"
    },
    {
      "bufferView" : 5,
      "componentType" : 5126,
      "count" : 897,
      "type" : "VEC2"
    }
  ]
}
