{
  "asset" : {
    "generator" : "UE Viewer (umodel) build 1590",
    "version" : "2.0"
  },
  "scene" : 0,
  "scenes" : [
    {
      "nodes" : [ 0 ]
    }
  ],
  "nodes" : [
    {
      "name" : "ObpMD_Palace_A_room_large",
      "mesh" : 0
    }
  ],
  "materials" : [
    {
      "name" : "ObjMI_Palace_A_flag",
      "pbrMetallicRoughness" : {
        "baseColorFactor" : [ 0.3, 0.3, 0.3, 1.0 ],
        "metallicFactor" : 0.1,
        "roughnessFactor" : 0.5
      }
    },
    {
      "name" : "ObjMI_Palace_A",
      "pbrMetallicRoughness" : {
        "baseColorFactor" : [ 0.9, 0.3, 0.3, 1.0 ],
        "metallicFactor" : 0.1,
        "roughnessFactor" : 0.5
      }
    }
  ],
  "meshes" : [
    {
      "primitives" : [
        {
          "attributes" : {
            "POSITION" : 1,
            "NORMAL" : 2,
            "TANGENT" : 3,
            "TEXCOORD_0" : 4,
            "TEXCOORD_1" : 5
          },
          "indices" : 0,
          "material" : 0
        },
        {
          "attributes" : {
            "POSITION" : 7,
            "NORMAL" : 8,
            "TANGENT" : 9,
            "TEXCOORD_0" : 10,
            "TEXCOORD_1" : 11
          },
          "indices" : 6,
          "material" : 1
        }
      ],
      "name" : "ObpMD_Palace_A_room_large"
    }
  ],
  "buffers" : [
    {
      "uri" : "ObpMD_Palace_A_room_large.bin",
      "byteLength" : 494196
    }
  ],
  "bufferViews" : [
    {
      "buffer" : 0,
      "byteOffset" : 0,
      "byteLength" : 456
    },
    {
      "buffer" : 0,
      "byteOffset" : 456,
      "byteLength" : 720
    },
    {
      "buffer" : 0,
      "byteOffset" : 1176,
      "byteLength" : 720
    },
    {
      "buffer" : 0,
      "byteOffset" : 1896,
      "byteLength" : 960
    },
    {
      "buffer" : 0,
      "byteOffset" : 2856,
      "byteLength" : 480
    },
    {
      "buffer" : 0,
      "byteOffset" : 3336,
      "byteLength" : 480
    },
    {
      "buffer" : 0,
      "byteOffset" : 3816,
      "byteLength" : 27708
    },
    {
      "buffer" : 0,
      "byteOffset" : 31524,
      "byteLength" : 99144
    },
    {
      "buffer" : 0,
      "byteOffset" : 130668,
      "byteLength" : 99144
    },
    {
      "buffer" : 0,
      "byteOffset" : 229812,
      "byteLength" : 132192
    },
    {
      "buffer" : 0,
      "byteOffset" : 362004,
      "byteLength" : 66096
    },
    {
      "buffer" : 0,
      "byteOffset" : 428100,
      "byteLength" : 66096
    }
  ],
  "accessors" : [
    {
      "bufferView" : 0,
      "componentType" : 5123,
      "count" : 228,
      "type" : "SCALAR"
    },
    {
      "bufferView" : 1,
      "min" : [ -0.252502, 16.9531, -0.0368805 ],
      "max" : [ -0.252502, 17.5781, 5.9006 ],
      "componentType" : 5126,
      "count" : 60,
      "type" : "VEC3"
    },
    {
      "bufferView" : 2,
      "componentType" : 5126,
      "count" : 60,
      "type" : "VEC3"
    },
    {
      "bufferView" : 3,
      "componentType" : 5126,
      "count" : 60,
      "type" : "VEC4"
    },
    {
      "bufferView" : 4,
      "componentType" : 5126,
      "count" : 60,
      "type" : "VEC2"
    },
    {
      "bufferView" : 5,
      "componentType" : 5126,
      "count" : 60,
      "type" : "VEC2"
    },
    {
      "bufferView" : 6,
      "componentType" : 5123,
      "count" : 13854,
      "type" : "SCALAR"
    },
    {
      "bufferView" : 7,
      "min" : [ -5.11733, -3.12163e-16, -5.43018 ],
      "max" : [ 2.55768, 18.1915, 5.56281 ],
      "componentType" : 5126,
      "count" : 8262,
      "type" : "VEC3"
    },
    {
      "bufferView" : 8,
      "componentType" : 5126,
      "count" : 8262,
      "type" : "VEC3"
    },
    {
      "bufferView" : 9,
      "componentType" : 5126,
      "count" : 8262,
      "type" : "VEC4"
    },
    {
      "bufferView" : 10,
      "componentType" : 5126,
      "count" : 8262,
      "type" : "VEC2"
    },
    {
      "bufferView" : 11,
      "componentType" : 5126,
      "count" : 8262,
      "type" : "VEC2"
    }
  ]
}
