{
  "asset" : {
    "generator" : "UE Viewer (umodel) build 1590",
    "version" : "2.0"
  },
  "scene" : 0,
  "scenes" : [
    {
      "nodes" : [ 0 ]
    }
  ],
  "nodes" : [
    {
      "name" : "ObjMD_Seido_Floor_A",
      "mesh" : 0
    }
  ],
  "materials" : [
    {
      "name" : "ObjMI_Daiseido_Room_B",
      "pbrMetallicRoughness" : {
        "baseColorFactor" : [ 0.3, 0.3, 0.3, 1.0 ],
        "metallicFactor" : 0.1,
        "roughnessFactor" : 0.5
      }
    }
  ],
  "meshes" : [
    {
      "primitives" : [
        {
          "attributes" : {
            "POSITION" : 1,
            "NORMAL" : 2,
            "TANGENT" : 3,
            "TEXCOORD_0" : 4
          },
          "indices" : 0,
          "material" : 0
        }
      ],
      "name" : "ObjMD_Seido_Floor_A"
    }
  ],
  "buffers" : [
    {
      "uri" : "ObjMD_Seido_Floor_A.bin",
      "byteLength" : 9888
    }
  ],
  "bufferViews" : [
    {
      "buffer" : 0,
      "byteOffset" : 0,
      "byteLength" : 864
    },
    {
      "buffer" : 0,
      "byteOffset" : 864,
      "byteLength" : 2256
    },
    {
      "buffer" : 0,
      "byteOffset" : 3120,
      "byteLength" : 2256
    },
    {
      "buffer" : 0,
      "byteOffset" : 5376,
      "byteLength" : 3008
    },
    {
      "buffer" : 0,
      "byteOffset" : 8384,
      "byteLength" : 1504
    }
  ],
  "accessors" : [
    {
      "bufferView" : 0,
      "componentType" : 5123,
      "count" : 432,
      "type" : "SCALAR"
    },
    {
      "bufferView" : 1,
      "min" : [ -3.625, -1.22465e-16, -4 ],
      "max" : [ 3.5, 0.0625, 5 ],
      "componentType" : 5126,
      "count" : 188,
      "type" : "VEC3"
    },
    {
      "bufferView" : 2,
      "componentType" : 5126,
      "count" : 188,
      "type" : "VEC3"
    },
    {
      "bufferView" : 3,
      "componentType" : 5126,
      "count" : 188,
      "type" : "VEC4"
    },
    {
      "bufferView" : 4,
      "componentType" : 5126,
      "count" : 188,
      "type" : "VEC2"
    }
  ]
}
