{
  "asset" : {
    "generator" : "UE Viewer (umodel) build 1590",
    "version" : "2.0"
  },
  "scene" : 0,
  "scenes" : [
    {
      "nodes" : [ 0 ]
    }
  ],
  "nodes" : [
    {
      "name" : "ObjMD_Daiseido_Remain_PillarBase_C",
      "mesh" : 0
    }
  ],
  "materials" : [
    {
      "name" : "ObjMI_Daiseido_Remain_A",
      "pbrMetallicRoughness" : {
        "baseColorFactor" : [ 0.3, 0.3, 0.3, 1.0 ],
        "metallicFactor" : 0.1,
        "roughnessFactor" : 0.5
      }
    }
  ],
  "meshes" : [
    {
      "primitives" : [
        {
          "attributes" : {
            "POSITION" : 1,
            "NORMAL" : 2,
            "TANGENT" : 3,
            "TEXCOORD_0" : 4,
            "TEXCOORD_1" : 5
          },
          "indices" : 0,
          "material" : 0
        }
      ],
      "name" : "ObjMD_Daiseido_Remain_PillarBase_C"
    }
  ],
  "buffers" : [
    {
      "uri" : "ObjMD_Daiseido_Remain_PillarBase_C.bin",
      "byteLength" : 4708
    }
  ],
  "bufferViews" : [
    {
      "buffer" : 0,
      "byteOffset" : 0,
      "byteLength" : 228
    },
    {
      "buffer" : 0,
      "byteOffset" : 228,
      "byteLength" : 960
    },
    {
      "buffer" : 0,
      "byteOffset" : 1188,
      "byteLength" : 960
    },
    {
      "buffer" : 0,
      "byteOffset" : 2148,
      "byteLength" : 1280
    },
    {
      "buffer" : 0,
      "byteOffset" : 3428,
      "byteLength" : 640
    },
    {
      "buffer" : 0,
      "byteOffset" : 4068,
      "byteLength" : 640
    }
  ],
  "accessors" : [
    {
      "bufferView" : 0,
      "componentType" : 5123,
      "count" : 114,
      "type" : "SCALAR"
    },
    {
      "bufferView" : 1,
      "min" : [ -1, -6.12324e-17, -1 ],
      "max" : [ 1, 0.75, 1 ],
      "componentType" : 5126,
      "count" : 80,
      "type" : "VEC3"
    },
    {
      "bufferView" : 2,
      "componentType" : 5126,
      "count" : 80,
      "type" : "VEC3"
    },
    {
      "bufferView" : 3,
      "componentType" : 5126,
      "count" : 80,
      "type" : "VEC4"
    },
    {
      "bufferView" : 4,
      "componentType" : 5126,
      "count" : 80,
      "type" : "VEC2"
    },
    {
      "bufferView" : 5,
      "componentType" : 5126,
      "count" : 80,
      "type" : "VEC2"
    }
  ]
}
