{
  "asset" : {
    "generator" : "UE Viewer (umodel) build 1590",
    "version" : "2.0"
  },
  "scene" : 0,
  "scenes" : [
    {
      "nodes" : [ 0 ]
    }
  ],
  "nodes" : [
    {
      "name" : "ObjMD_Daiseido_Arch",
      "mesh" : 0
    }
  ],
  "materials" : [
    {
      "name" : "ObjMI_Daiseido_Gate_A",
      "pbrMetallicRoughness" : {
        "baseColorFactor" : [ 0.3, 0.3, 0.3, 1.0 ],
        "metallicFactor" : 0.1,
        "roughnessFactor" : 0.5
      }
    }
  ],
  "meshes" : [
    {
      "primitives" : [
        {
          "attributes" : {
            "POSITION" : 1,
            "NORMAL" : 2,
            "TANGENT" : 3,
            "TEXCOORD_0" : 4,
            "TEXCOORD_1" : 5
          },
          "indices" : 0,
          "material" : 0
        }
      ],
      "name" : "ObjMD_Daiseido_Arch"
    }
  ],
  "buffers" : [
    {
      "uri" : "ObjMD_Daiseido_Arch.bin",
      "byteLength" : 207576
    }
  ],
  "bufferViews" : [
    {
      "buffer" : 0,
      "byteOffset" : 0,
      "byteLength" : 10680
    },
    {
      "buffer" : 0,
      "byteOffset" : 10680,
      "byteLength" : 42192
    },
    {
      "buffer" : 0,
      "byteOffset" : 52872,
      "byteLength" : 42192
    },
    {
      "buffer" : 0,
      "byteOffset" : 95064,
      "byteLength" : 56256
    },
    {
      "buffer" : 0,
      "byteOffset" : 151320,
      "byteLength" : 28128
    },
    {
      "buffer" : 0,
      "byteOffset" : 179448,
      "byteLength" : 28128
    }
  ],
  "accessors" : [
    {
      "bufferView" : 0,
      "componentType" : 5123,
      "count" : 5340,
      "type" : "SCALAR"
    },
    {
      "bufferView" : 1,
      "min" : [ -2.8125, -1.68754e-16, -2.8125 ],
      "max" : [ 2.8125, 8.9375, 2.8125 ],
      "componentType" : 5126,
      "count" : 3516,
      "type" : "VEC3"
    },
    {
      "bufferView" : 2,
      "componentType" : 5126,
      "count" : 3516,
      "type" : "VEC3"
    },
    {
      "bufferView" : 3,
      "componentType" : 5126,
      "count" : 3516,
      "type" : "VEC4"
    },
    {
      "bufferView" : 4,
      "componentType" : 5126,
      "count" : 3516,
      "type" : "VEC2"
    },
    {
      "bufferView" : 5,
      "componentType" : 5126,
      "count" : 3516,
      "type" : "VEC2"
    }
  ]
}
