{
  "asset" : {
    "generator" : "UE Viewer (umodel) build 1590",
    "version" : "2.0"
  },
  "scene" : 0,
  "scenes" : [
    {
      "nodes" : [ 0 ]
    }
  ],
  "nodes" : [
    {
      "name" : "ObjMD_Daiseido_Gate_R",
      "mesh" : 0
    }
  ],
  "materials" : [
    {
      "name" : "ObjMI_Daiseido_Gate_A",
      "pbrMetallicRoughness" : {
        "baseColorFactor" : [ 0.3, 0.3, 0.3, 1.0 ],
        "metallicFactor" : 0.1,
        "roughnessFactor" : 0.5
      }
    }
  ],
  "meshes" : [
    {
      "primitives" : [
        {
          "attributes" : {
            "POSITION" : 1,
            "NORMAL" : 2,
            "TANGENT" : 3,
            "TEXCOORD_0" : 4,
            "TEXCOORD_1" : 5
          },
          "indices" : 0,
          "material" : 0
        }
      ],
      "name" : "ObjMD_Daiseido_Gate_R"
    }
  ],
  "buffers" : [
    {
      "uri" : "ObjMD_Daiseido_Gate_R.bin",
      "byteLength" : 308440
    }
  ],
  "bufferViews" : [
    {
      "buffer" : 0,
      "byteOffset" : 0,
      "byteLength" : 37512
    },
    {
      "buffer" : 0,
      "byteOffset" : 37512,
      "byteLength" : 58056
    },
    {
      "buffer" : 0,
      "byteOffset" : 95568,
      "byteLength" : 58056
    },
    {
      "buffer" : 0,
      "byteOffset" : 153624,
      "byteLength" : 77408
    },
    {
      "buffer" : 0,
      "byteOffset" : 231032,
      "byteLength" : 38704
    },
    {
      "buffer" : 0,
      "byteOffset" : 269736,
      "byteLength" : 38704
    }
  ],
  "accessors" : [
    {
      "bufferView" : 0,
      "componentType" : 5123,
      "count" : 18756,
      "type" : "SCALAR"
    },
    {
      "bufferView" : 1,
      "min" : [ -0.03125, -1.5, -2 ],
      "max" : [ 0.03125, 1.5, 9.18485e-17 ],
      "componentType" : 5126,
      "count" : 4838,
      "type" : "VEC3"
    },
    {
      "bufferView" : 2,
      "componentType" : 5126,
      "count" : 4838,
      "type" : "VEC3"
    },
    {
      "bufferView" : 3,
      "componentType" : 5126,
      "count" : 4838,
      "type" : "VEC4"
    },
    {
      "bufferView" : 4,
      "componentType" : 5126,
      "count" : 4838,
      "type" : "VEC2"
    },
    {
      "bufferView" : 5,
      "componentType" : 5126,
      "count" : 4838,
      "type" : "VEC2"
    }
  ]
}
