{
  "asset" : {
    "generator" : "UE Viewer (umodel) build 1590",
    "version" : "2.0"
  },
  "scene" : 0,
  "scenes" : [
    {
      "nodes" : [ 0 ]
    }
  ],
  "nodes" : [
    {
      "name" : "ObjMD_Daiseido_Door_Open",
      "mesh" : 0
    }
  ],
  "materials" : [
    {
      "name" : "ObjMI_Daiseido_A_01",
      "pbrMetallicRoughness" : {
        "baseColorFactor" : [ 0.3, 0.3, 0.3, 1.0 ],
        "metallicFactor" : 0.1,
        "roughnessFactor" : 0.5
      }
    }
  ],
  "meshes" : [
    {
      "primitives" : [
        {
          "attributes" : {
            "POSITION" : 1,
            "NORMAL" : 2,
            "TANGENT" : 3,
            "TEXCOORD_0" : 4
          },
          "indices" : 0,
          "material" : 0
        }
      ],
      "name" : "ObjMD_Daiseido_Door_Open"
    }
  ],
  "buffers" : [
    {
      "uri" : "ObjMD_Daiseido_Door_Open.bin",
      "byteLength" : 5952
    }
  ],
  "bufferViews" : [
    {
      "buffer" : 0,
      "byteOffset" : 0,
      "byteLength" : 384
    },
    {
      "buffer" : 0,
      "byteOffset" : 384,
      "byteLength" : 1392
    },
    {
      "buffer" : 0,
      "byteOffset" : 1776,
      "byteLength" : 1392
    },
    {
      "buffer" : 0,
      "byteOffset" : 3168,
      "byteLength" : 1856
    },
    {
      "buffer" : 0,
      "byteOffset" : 5024,
      "byteLength" : 928
    }
  ],
  "accessors" : [
    {
      "bufferView" : 0,
      "componentType" : 5123,
      "count" : 192,
      "type" : "SCALAR"
    },
    {
      "bufferView" : 1,
      "min" : [ -0.565, -0.125, -2 ],
      "max" : [ 0.625, 3.125, 2 ],
      "componentType" : 5126,
      "count" : 116,
      "type" : "VEC3"
    },
    {
      "bufferView" : 2,
      "componentType" : 5126,
      "count" : 116,
      "type" : "VEC3"
    },
    {
      "bufferView" : 3,
      "componentType" : 5126,
      "count" : 116,
      "type" : "VEC4"
    },
    {
      "bufferView" : 4,
      "componentType" : 5126,
      "count" : 116,
      "type" : "VEC2"
    }
  ]
}
