{
  "asset" : {
    "generator" : "UE Viewer (umodel) build 1590",
    "version" : "2.0"
  },
  "scene" : 0,
  "scenes" : [
    {
      "nodes" : [ 0 ]
    }
  ],
  "nodes" : [
    {
      "name" : "ObjMD_Daiseido_Wall_Enter",
      "mesh" : 0
    }
  ],
  "materials" : [
    {
      "name" : "ObjMI_Daiseido_Room_A",
      "pbrMetallicRoughness" : {
        "baseColorFactor" : [ 0.3, 0.3, 0.3, 1.0 ],
        "metallicFactor" : 0.1,
        "roughnessFactor" : 0.5
      }
    }
  ],
  "meshes" : [
    {
      "primitives" : [
        {
          "attributes" : {
            "POSITION" : 1,
            "NORMAL" : 2,
            "TANGENT" : 3,
            "TEXCOORD_0" : 4
          },
          "indices" : 0,
          "material" : 0
        }
      ],
      "name" : "ObjMD_Daiseido_Wall_Enter"
    }
  ],
  "buffers" : [
    {
      "uri" : "ObjMD_Daiseido_Wall_Enter.bin",
      "byteLength" : 26652
    }
  ],
  "bufferViews" : [
    {
      "buffer" : 0,
      "byteOffset" : 0,
      "byteLength" : 2172
    },
    {
      "buffer" : 0,
      "byteOffset" : 2172,
      "byteLength" : 6120
    },
    {
      "buffer" : 0,
      "byteOffset" : 8292,
      "byteLength" : 6120
    },
    {
      "buffer" : 0,
      "byteOffset" : 14412,
      "byteLength" : 8160
    },
    {
      "buffer" : 0,
      "byteOffset" : 22572,
      "byteLength" : 4080
    }
  ],
  "accessors" : [
    {
      "bufferView" : 0,
      "componentType" : 5123,
      "count" : 1086,
      "type" : "SCALAR"
    },
    {
      "bufferView" : 1,
      "min" : [ -0.5, -5, -4 ],
      "max" : [ 0.375, 6, 4 ],
      "componentType" : 5126,
      "count" : 510,
      "type" : "VEC3"
    },
    {
      "bufferView" : 2,
      "componentType" : 5126,
      "count" : 510,
      "type" : "VEC3"
    },
    {
      "bufferView" : 3,
      "componentType" : 5126,
      "count" : 510,
      "type" : "VEC4"
    },
    {
      "bufferView" : 4,
      "componentType" : 5126,
      "count" : 510,
      "type" : "VEC2"
    }
  ]
}
