{
  "asset" : {
    "generator" : "UE Viewer (umodel) build 1590",
    "version" : "2.0"
  },
  "scene" : 0,
  "scenes" : [
    {
      "nodes" : [ 0 ]
    }
  ],
  "nodes" : [
    {
      "name" : "ObjMD_Daiseido_Remain_Wall_C",
      "mesh" : 0
    }
  ],
  "materials" : [
    {
      "name" : "ObjMI_Daiseido_Remain_A",
      "pbrMetallicRoughness" : {
        "baseColorFactor" : [ 0.3, 0.3, 0.3, 1.0 ],
        "metallicFactor" : 0.1,
        "roughnessFactor" : 0.5
      }
    }
  ],
  "meshes" : [
    {
      "primitives" : [
        {
          "attributes" : {
            "POSITION" : 1,
            "NORMAL" : 2,
            "TANGENT" : 3,
            "TEXCOORD_0" : 4,
            "TEXCOORD_1" : 5
          },
          "indices" : 0,
          "material" : 0
        }
      ],
      "name" : "ObjMD_Daiseido_Remain_Wall_C"
    }
  ],
  "buffers" : [
    {
      "uri" : "ObjMD_Daiseido_Remain_Wall_C.bin",
      "byteLength" : 67460
    }
  ],
  "bufferViews" : [
    {
      "buffer" : 0,
      "byteOffset" : 0,
      "byteLength" : 4740
    },
    {
      "buffer" : 0,
      "byteOffset" : 4740,
      "byteLength" : 13440
    },
    {
      "buffer" : 0,
      "byteOffset" : 18180,
      "byteLength" : 13440
    },
    {
      "buffer" : 0,
      "byteOffset" : 31620,
      "byteLength" : 17920
    },
    {
      "buffer" : 0,
      "byteOffset" : 49540,
      "byteLength" : 8960
    },
    {
      "buffer" : 0,
      "byteOffset" : 58500,
      "byteLength" : 8960
    }
  ],
  "accessors" : [
    {
      "bufferView" : 0,
      "componentType" : 5123,
      "count" : 2370,
      "type" : "SCALAR"
    },
    {
      "bufferView" : 1,
      "min" : [ -0.703124, -2.1814e-16, -3.5625 ],
      "max" : [ 0.703124, 8.5092, 3.5625 ],
      "componentType" : 5126,
      "count" : 1120,
      "type" : "VEC3"
    },
    {
      "bufferView" : 2,
      "componentType" : 5126,
      "count" : 1120,
      "type" : "VEC3"
    },
    {
      "bufferView" : 3,
      "componentType" : 5126,
      "count" : 1120,
      "type" : "VEC4"
    },
    {
      "bufferView" : 4,
      "componentType" : 5126,
      "count" : 1120,
      "type" : "VEC2"
    },
    {
      "bufferView" : 5,
      "componentType" : 5126,
      "count" : 1120,
      "type" : "VEC2"
    }
  ]
}
