{
  "asset" : {
    "generator" : "UE Viewer (umodel) build 1590",
    "version" : "2.0"
  },
  "scene" : 0,
  "scenes" : [
    {
      "nodes" : [ 0 ]
    }
  ],
  "nodes" : [
    {
      "name" : "ObjMD_Daiseido_Flag_D",
      "mesh" : 0
    }
  ],
  "materials" : [
    {
      "name" : "ObjMI_Daiseido_Carpet_A",
      "pbrMetallicRoughness" : {
        "baseColorFactor" : [ 0.3, 0.3, 0.3, 1.0 ],
        "metallicFactor" : 0.1,
        "roughnessFactor" : 0.5
      }
    }
  ],
  "meshes" : [
    {
      "primitives" : [
        {
          "attributes" : {
            "POSITION" : 1,
            "NORMAL" : 2,
            "TANGENT" : 3,
            "TEXCOORD_0" : 4
          },
          "indices" : 0,
          "material" : 0
        }
      ],
      "name" : "ObjMD_Daiseido_Flag_D"
    }
  ],
  "buffers" : [
    {
      "uri" : "ObjMD_Daiseido_Flag_D.bin",
      "byteLength" : 3572
    }
  ],
  "bufferViews" : [
    {
      "buffer" : 0,
      "byteOffset" : 0,
      "byteLength" : 260
    },
    {
      "buffer" : 0,
      "byteOffset" : 260,
      "byteLength" : 828
    },
    {
      "buffer" : 0,
      "byteOffset" : 1088,
      "byteLength" : 828
    },
    {
      "buffer" : 0,
      "byteOffset" : 1916,
      "byteLength" : 1104
    },
    {
      "buffer" : 0,
      "byteOffset" : 3020,
      "byteLength" : 552
    }
  ],
  "accessors" : [
    {
      "bufferView" : 0,
      "componentType" : 5123,
      "count" : 129,
      "type" : "SCALAR"
    },
    {
      "bufferView" : 1,
      "min" : [ -0.0625, -8, -3.875 ],
      "max" : [ -0.0625, 4.54747e-15, 3.875 ],
      "componentType" : 5126,
      "count" : 69,
      "type" : "VEC3"
    },
    {
      "bufferView" : 2,
      "componentType" : 5126,
      "count" : 69,
      "type" : "VEC3"
    },
    {
      "bufferView" : 3,
      "componentType" : 5126,
      "count" : 69,
      "type" : "VEC4"
    },
    {
      "bufferView" : 4,
      "componentType" : 5126,
      "count" : 69,
      "type" : "VEC2"
    }
  ]
}
