{
  "asset" : {
    "generator" : "UE Viewer (umodel) build 1590",
    "version" : "2.0"
  },
  "scene" : 0,
  "scenes" : [
    {
      "nodes" : [ 0 ]
    }
  ],
  "nodes" : [
    {
      "name" : "ObjMD_Daiseido_A_lantern",
      "mesh" : 0
    }
  ],
  "materials" : [
    {
      "name" : "ObjMI_Daiseido_A_lantern",
      "pbrMetallicRoughness" : {
        "baseColorFactor" : [ 0.3, 0.3, 0.3, 1.0 ],
        "metallicFactor" : 0.1,
        "roughnessFactor" : 0.5
      }
    }
  ],
  "meshes" : [
    {
      "primitives" : [
        {
          "attributes" : {
            "POSITION" : 1,
            "NORMAL" : 2,
            "TANGENT" : 3,
            "TEXCOORD_0" : 4,
            "TEXCOORD_1" : 5
          },
          "indices" : 0,
          "material" : 0
        }
      ],
      "name" : "ObjMD_Daiseido_A_lantern"
    }
  ],
  "buffers" : [
    {
      "uri" : "ObjMD_Daiseido_A_lantern.bin",
      "byteLength" : 7552
    }
  ],
  "bufferViews" : [
    {
      "buffer" : 0,
      "byteOffset" : 0,
      "byteLength" : 552
    },
    {
      "buffer" : 0,
      "byteOffset" : 552,
      "byteLength" : 1500
    },
    {
      "buffer" : 0,
      "byteOffset" : 2052,
      "byteLength" : 1500
    },
    {
      "buffer" : 0,
      "byteOffset" : 3552,
      "byteLength" : 2000
    },
    {
      "buffer" : 0,
      "byteOffset" : 5552,
      "byteLength" : 1000
    },
    {
      "buffer" : 0,
      "byteOffset" : 6552,
      "byteLength" : 1000
    }
  ],
  "accessors" : [
    {
      "bufferView" : 0,
      "componentType" : 5123,
      "count" : 276,
      "type" : "SCALAR"
    },
    {
      "bufferView" : 1,
      "min" : [ -0.75, -4.59243e-17, -0.75 ],
      "max" : [ 0.75, 2.625, 0.75 ],
      "componentType" : 5126,
      "count" : 125,
      "type" : "VEC3"
    },
    {
      "bufferView" : 2,
      "componentType" : 5126,
      "count" : 125,
      "type" : "VEC3"
    },
    {
      "bufferView" : 3,
      "componentType" : 5126,
      "count" : 125,
      "type" : "VEC4"
    },
    {
      "bufferView" : 4,
      "componentType" : 5126,
      "count" : 125,
      "type" : "VEC2"
    },
    {
      "bufferView" : 5,
      "componentType" : 5126,
      "count" : 125,
      "type" : "VEC2"
    }
  ]
}
