{
  "asset" : {
    "generator" : "UE Viewer (umodel) build 1590",
    "version" : "2.0"
  },
  "scene" : 0,
  "scenes" : [
    {
      "nodes" : [ 0 ]
    }
  ],
  "nodes" : [
    {
      "name" : "ObjMD_Daiseido_Room_Gate_Center",
      "mesh" : 0
    }
  ],
  "materials" : [
    {
      "name" : "ObjMI_Daiseido_Gate_A",
      "pbrMetallicRoughness" : {
        "baseColorFactor" : [ 0.3, 0.3, 0.3, 1.0 ],
        "metallicFactor" : 0.1,
        "roughnessFactor" : 0.5
      }
    }
  ],
  "meshes" : [
    {
      "primitives" : [
        {
          "attributes" : {
            "POSITION" : 1,
            "NORMAL" : 2,
            "TANGENT" : 3,
            "TEXCOORD_0" : 4,
            "TEXCOORD_1" : 5
          },
          "indices" : 0,
          "material" : 0
        }
      ],
      "name" : "ObjMD_Daiseido_Room_Gate_Center"
    }
  ],
  "buffers" : [
    {
      "uri" : "ObjMD_Daiseido_Room_Gate_Center.bin",
      "byteLength" : 55724
    }
  ],
  "bufferViews" : [
    {
      "buffer" : 0,
      "byteOffset" : 0,
      "byteLength" : 3084
    },
    {
      "buffer" : 0,
      "byteOffset" : 3084,
      "byteLength" : 11280
    },
    {
      "buffer" : 0,
      "byteOffset" : 14364,
      "byteLength" : 11280
    },
    {
      "buffer" : 0,
      "byteOffset" : 25644,
      "byteLength" : 15040
    },
    {
      "buffer" : 0,
      "byteOffset" : 40684,
      "byteLength" : 7520
    },
    {
      "buffer" : 0,
      "byteOffset" : 48204,
      "byteLength" : 7520
    }
  ],
  "accessors" : [
    {
      "bufferView" : 0,
      "componentType" : 5123,
      "count" : 1542,
      "type" : "SCALAR"
    },
    {
      "bufferView" : 1,
      "min" : [ -0.28125, -0.0625, -2.5 ],
      "max" : [ 0.28125, 6, 2.5 ],
      "componentType" : 5126,
      "count" : 940,
      "type" : "VEC3"
    },
    {
      "bufferView" : 2,
      "componentType" : 5126,
      "count" : 940,
      "type" : "VEC3"
    },
    {
      "bufferView" : 3,
      "componentType" : 5126,
      "count" : 940,
      "type" : "VEC4"
    },
    {
      "bufferView" : 4,
      "componentType" : 5126,
      "count" : 940,
      "type" : "VEC2"
    },
    {
      "bufferView" : 5,
      "componentType" : 5126,
      "count" : 940,
      "type" : "VEC2"
    }
  ]
}
