{
  "asset" : {
    "generator" : "UE Viewer (umodel) build 1590",
    "version" : "2.0"
  },
  "scene" : 0,
  "scenes" : [
    {
      "nodes" : [ 0 ]
    }
  ],
  "nodes" : [
    {
      "name" : "ObjMD_Daiseido_Wall_E",
      "mesh" : 0
    }
  ],
  "materials" : [
    {
      "name" : "ObjMI_Daiseido_Room_A",
      "pbrMetallicRoughness" : {
        "baseColorFactor" : [ 0.3, 0.3, 0.3, 1.0 ],
        "metallicFactor" : 0.1,
        "roughnessFactor" : 0.5
      }
    }
  ],
  "meshes" : [
    {
      "primitives" : [
        {
          "attributes" : {
            "POSITION" : 1,
            "NORMAL" : 2,
            "TANGENT" : 3,
            "TEXCOORD_0" : 4
          },
          "indices" : 0,
          "material" : 0
        }
      ],
      "name" : "ObjMD_Daiseido_Wall_E"
    }
  ],
  "buffers" : [
    {
      "uri" : "ObjMD_Daiseido_Wall_E.bin",
      "byteLength" : 47844
    }
  ],
  "bufferViews" : [
    {
      "buffer" : 0,
      "byteOffset" : 0,
      "byteLength" : 3684
    },
    {
      "buffer" : 0,
      "byteOffset" : 3684,
      "byteLength" : 11040
    },
    {
      "buffer" : 0,
      "byteOffset" : 14724,
      "byteLength" : 11040
    },
    {
      "buffer" : 0,
      "byteOffset" : 25764,
      "byteLength" : 14720
    },
    {
      "buffer" : 0,
      "byteOffset" : 40484,
      "byteLength" : 7360
    }
  ],
  "accessors" : [
    {
      "bufferView" : 0,
      "componentType" : 5123,
      "count" : 1842,
      "type" : "SCALAR"
    },
    {
      "bufferView" : 1,
      "min" : [ -0.25, -3, -5.00016 ],
      "max" : [ 0.0625, 6, 5.00016 ],
      "componentType" : 5126,
      "count" : 920,
      "type" : "VEC3"
    },
    {
      "bufferView" : 2,
      "componentType" : 5126,
      "count" : 920,
      "type" : "VEC3"
    },
    {
      "bufferView" : 3,
      "componentType" : 5126,
      "count" : 920,
      "type" : "VEC4"
    },
    {
      "bufferView" : 4,
      "componentType" : 5126,
      "count" : 920,
      "type" : "VEC2"
    }
  ]
}
