{
  "asset" : {
    "generator" : "UE Viewer (umodel) build 1590",
    "version" : "2.0"
  },
  "scene" : 0,
  "scenes" : [
    {
      "nodes" : [ 0 ]
    }
  ],
  "nodes" : [
    {
      "name" : "ObjMD_Daiseido_A",
      "mesh" : 0
    }
  ],
  "materials" : [
    {
      "name" : "ObjMI_Daiseido_Window",
      "pbrMetallicRoughness" : {
        "baseColorFactor" : [ 0.3, 0.3, 0.3, 1.0 ],
        "metallicFactor" : 0.1,
        "roughnessFactor" : 0.5
      }
    },
    {
      "name" : "ObjMI_Daiseido_A_01",
      "pbrMetallicRoughness" : {
        "baseColorFactor" : [ 0.9, 0.3, 0.3, 1.0 ],
        "metallicFactor" : 0.1,
        "roughnessFactor" : 0.5
      }
    },
    {
      "name" : "ObjMI_Daiseido_A_02",
      "pbrMetallicRoughness" : {
        "baseColorFactor" : [ 0.3, 0.9, 0.3, 1.0 ],
        "metallicFactor" : 0.1,
        "roughnessFactor" : 0.5
      }
    }
  ],
  "meshes" : [
    {
      "primitives" : [
        {
          "attributes" : {
            "POSITION" : 1,
            "NORMAL" : 2,
            "TANGENT" : 3,
            "TEXCOORD_0" : 4,
            "TEXCOORD_1" : 5,
            "TEXCOORD_2" : 6,
            "TEXCOORD_3" : 7
          },
          "indices" : 0,
          "material" : 0
        },
        {
          "attributes" : {
            "POSITION" : 9,
            "NORMAL" : 10,
            "TANGENT" : 11,
            "TEXCOORD_0" : 12,
            "TEXCOORD_1" : 13,
            "TEXCOORD_2" : 14,
            "TEXCOORD_3" : 15
          },
          "indices" : 8,
          "material" : 1
        },
        {
          "attributes" : {
            "POSITION" : 17,
            "NORMAL" : 18,
            "TANGENT" : 19,
            "TEXCOORD_0" : 20,
            "TEXCOORD_1" : 21,
            "TEXCOORD_2" : 22,
            "TEXCOORD_3" : 23
          },
          "indices" : 16,
          "material" : 2
        }
      ],
      "name" : "ObjMD_Daiseido_A"
    }
  ],
  "buffers" : [
    {
      "uri" : "ObjMD_Daiseido_A.bin",
      "byteLength" : 7103076
    }
  ],
  "bufferViews" : [
    {
      "buffer" : 0,
      "byteOffset" : 0,
      "byteLength" : 157788
    },
    {
      "buffer" : 0,
      "byteOffset" : 157788,
      "byteLength" : 385416
    },
    {
      "buffer" : 0,
      "byteOffset" : 543204,
      "byteLength" : 385416
    },
    {
      "buffer" : 0,
      "byteOffset" : 928620,
      "byteLength" : 513888
    },
    {
      "buffer" : 0,
      "byteOffset" : 1442508,
      "byteLength" : 256944
    },
    {
      "buffer" : 0,
      "byteOffset" : 1699452,
      "byteLength" : 256944
    },
    {
      "buffer" : 0,
      "byteOffset" : 1956396,
      "byteLength" : 256944
    },
    {
      "buffer" : 0,
      "byteOffset" : 2213340,
      "byteLength" : 256944
    },
    {
      "buffer" : 0,
      "byteOffset" : 2470284,
      "byteLength" : 231696
    },
    {
      "buffer" : 0,
      "byteOffset" : 2701980,
      "byteLength" : 666840
    },
    {
      "buffer" : 0,
      "byteOffset" : 3368820,
      "byteLength" : 666840
    },
    {
      "buffer" : 0,
      "byteOffset" : 4035660,
      "byteLength" : 889120
    },
    {
      "buffer" : 0,
      "byteOffset" : 4924780,
      "byteLength" : 444560
    },
    {
      "buffer" : 0,
      "byteOffset" : 5369340,
      "byteLength" : 444560
    },
    {
      "buffer" : 0,
      "byteOffset" : 5813900,
      "byteLength" : 444560
    },
    {
      "buffer" : 0,
      "byteOffset" : 6258460,
      "byteLength" : 444560
    },
    {
      "buffer" : 0,
      "byteOffset" : 6703020,
      "byteLength" : 23640
    },
    {
      "buffer" : 0,
      "byteOffset" : 6726660,
      "byteLength" : 62736
    },
    {
      "buffer" : 0,
      "byteOffset" : 6789396,
      "byteLength" : 62736
    },
    {
      "buffer" : 0,
      "byteOffset" : 6852132,
      "byteLength" : 83648
    },
    {
      "buffer" : 0,
      "byteOffset" : 6935780,
      "byteLength" : 41824
    },
    {
      "buffer" : 0,
      "byteOffset" : 6977604,
      "byteLength" : 41824
    },
    {
      "buffer" : 0,
      "byteOffset" : 7019428,
      "byteLength" : 41824
    },
    {
      "buffer" : 0,
      "byteOffset" : 7061252,
      "byteLength" : 41824
    }
  ],
  "accessors" : [
    {
      "bufferView" : 0,
      "componentType" : 5123,
      "count" : 78894,
      "type" : "SCALAR"
    },
    {
      "bufferView" : 1,
      "min" : [ -6.1875, 1.1875, -18.75 ],
      "max" : [ 4, 16, 18.75 ],
      "componentType" : 5126,
      "count" : 32118,
      "type" : "VEC3"
    },
    {
      "bufferView" : 2,
      "componentType" : 5126,
      "count" : 32118,
      "type" : "VEC3"
    },
    {
      "bufferView" : 3,
      "componentType" : 5126,
      "count" : 32118,
      "type" : "VEC4"
    },
    {
      "bufferView" : 4,
      "componentType" : 5126,
      "count" : 32118,
      "type" : "VEC2"
    },
    {
      "bufferView" : 5,
      "componentType" : 5126,
      "count" : 32118,
      "type" : "VEC2"
    },
    {
      "bufferView" : 6,
      "componentType" : 5126,
      "count" : 32118,
      "type" : "VEC2"
    },
    {
      "bufferView" : 7,
      "componentType" : 5126,
      "count" : 32118,
      "type" : "VEC2"
    },
    {
      "bufferView" : 8,
      "componentType" : 5123,
      "count" : 115848,
      "type" : "SCALAR"
    },
    {
      "bufferView" : 9,
      "min" : [ -10.4375, -1.41225e-15, -21.5 ],
      "max" : [ 5.4375, 35.1875, 21.5 ],
      "componentType" : 5126,
      "count" : 55570,
      "type" : "VEC3"
    },
    {
      "bufferView" : 10,
      "componentType" : 5126,
      "count" : 55570,
      "type" : "VEC3"
    },
    {
      "bufferView" : 11,
      "componentType" : 5126,
      "count" : 55570,
      "type" : "VEC4"
    },
    {
      "bufferView" : 12,
      "componentType" : 5126,
      "count" : 55570,
      "type" : "VEC2"
    },
    {
      "bufferView" : 13,
      "componentType" : 5126,
      "count" : 55570,
      "type" : "VEC2"
    },
    {
      "bufferView" : 14,
      "componentType" : 5126,
      "count" : 55570,
      "type" : "VEC2"
    },
    {
      "bufferView" : 15,
      "componentType" : 5126,
      "count" : 55570,
      "type" : "VEC2"
    },
    {
      "bufferView" : 16,
      "componentType" : 5123,
      "count" : 11820,
      "type" : "SCALAR"
    },
    {
      "bufferView" : 17,
      "min" : [ -3.875, -7.84601e-16, -12.9385 ],
      "max" : [ 3.875, 32.1875, 12.9375 ],
      "componentType" : 5126,
      "count" : 5228,
      "type" : "VEC3"
    },
    {
      "bufferView" : 18,
      "componentType" : 5126,
      "count" : 5228,
      "type" : "VEC3"
    },
    {
      "bufferView" : 19,
      "componentType" : 5126,
      "count" : 5228,
      "type" : "VEC4"
    },
    {
      "bufferView" : 20,
      "componentType" : 5126,
      "count" : 5228,
      "type" : "VEC2"
    },
    {
      "bufferView" : 21,
      "componentType" : 5126,
      "count" : 5228,
      "type" : "VEC2"
    },
    {
      "bufferView" : 22,
      "componentType" : 5126,
      "count" : 5228,
      "type" : "VEC2"
    },
    {
      "bufferView" : 23,
      "componentType" : 5126,
      "count" : 5228,
      "type" : "VEC2"
    }
  ]
}
