{
  "asset" : {
    "generator" : "UE Viewer (umodel) build 1590",
    "version" : "2.0"
  },
  "scene" : 0,
  "scenes" : [
    {
      "nodes" : [ 0 ]
    }
  ],
  "nodes" : [
    {
      "name" : "ObjMD_Daiseido_Hall_Floor_B_L",
      "mesh" : 0
    }
  ],
  "materials" : [
    {
      "name" : "ObjMI_Daiseido_Room_B",
      "pbrMetallicRoughness" : {
        "baseColorFactor" : [ 0.3, 0.3, 0.3, 1.0 ],
        "metallicFactor" : 0.1,
        "roughnessFactor" : 0.5
      }
    }
  ],
  "meshes" : [
    {
      "primitives" : [
        {
          "attributes" : {
            "POSITION" : 1,
            "NORMAL" : 2,
            "TANGENT" : 3,
            "TEXCOORD_0" : 4
          },
          "indices" : 0,
          "material" : 0
        }
      ],
      "name" : "ObjMD_Daiseido_Hall_Floor_B_L"
    }
  ],
  "buffers" : [
    {
      "uri" : "ObjMD_Daiseido_Hall_Floor_B_L.bin",
      "byteLength" : 28956
    }
  ],
  "bufferViews" : [
    {
      "buffer" : 0,
      "byteOffset" : 0,
      "byteLength" : 1788
    },
    {
      "buffer" : 0,
      "byteOffset" : 1788,
      "byteLength" : 6792
    },
    {
      "buffer" : 0,
      "byteOffset" : 8580,
      "byteLength" : 6792
    },
    {
      "buffer" : 0,
      "byteOffset" : 15372,
      "byteLength" : 9056
    },
    {
      "buffer" : 0,
      "byteOffset" : 24428,
      "byteLength" : 4528
    }
  ],
  "accessors" : [
    {
      "bufferView" : 0,
      "componentType" : 5123,
      "count" : 894,
      "type" : "SCALAR"
    },
    {
      "bufferView" : 1,
      "min" : [ -5.5, -1.75966e-16, -6.625 ],
      "max" : [ 5.625, 0.0625, 9.25 ],
      "componentType" : 5126,
      "count" : 566,
      "type" : "VEC3"
    },
    {
      "bufferView" : 2,
      "componentType" : 5126,
      "count" : 566,
      "type" : "VEC3"
    },
    {
      "bufferView" : 3,
      "componentType" : 5126,
      "count" : 566,
      "type" : "VEC4"
    },
    {
      "bufferView" : 4,
      "componentType" : 5126,
      "count" : 566,
      "type" : "VEC2"
    }
  ]
}
