{
  "asset" : {
    "generator" : "UE Viewer (umodel) build 1590",
    "version" : "2.0"
  },
  "scene" : 0,
  "scenes" : [
    {
      "nodes" : [ 0 ]
    }
  ],
  "nodes" : [
    {
      "name" : "ObjMD_Daiseido_WallSide",
      "mesh" : 0
    }
  ],
  "materials" : [
    {
      "name" : "ObjMI_Daiseido_Room_A",
      "pbrMetallicRoughness" : {
        "baseColorFactor" : [ 0.3, 0.3, 0.3, 1.0 ],
        "metallicFactor" : 0.1,
        "roughnessFactor" : 0.5
      }
    }
  ],
  "meshes" : [
    {
      "primitives" : [
        {
          "attributes" : {
            "POSITION" : 1,
            "NORMAL" : 2,
            "TANGENT" : 3,
            "TEXCOORD_0" : 4
          },
          "indices" : 0,
          "material" : 0
        }
      ],
      "name" : "ObjMD_Daiseido_WallSide"
    }
  ],
  "buffers" : [
    {
      "uri" : "ObjMD_Daiseido_WallSide.bin",
      "byteLength" : 10236
    }
  ],
  "bufferViews" : [
    {
      "buffer" : 0,
      "byteOffset" : 0,
      "byteLength" : 636
    },
    {
      "buffer" : 0,
      "byteOffset" : 636,
      "byteLength" : 2400
    },
    {
      "buffer" : 0,
      "byteOffset" : 3036,
      "byteLength" : 2400
    },
    {
      "buffer" : 0,
      "byteOffset" : 5436,
      "byteLength" : 3200
    },
    {
      "buffer" : 0,
      "byteOffset" : 8636,
      "byteLength" : 1600
    }
  ],
  "accessors" : [
    {
      "bufferView" : 0,
      "componentType" : 5123,
      "count" : 318,
      "type" : "SCALAR"
    },
    {
      "bufferView" : 1,
      "min" : [ -4.5, -6, -38 ],
      "max" : [ 6.68775, 9, 39 ],
      "componentType" : 5126,
      "count" : 200,
      "type" : "VEC3"
    },
    {
      "bufferView" : 2,
      "componentType" : 5126,
      "count" : 200,
      "type" : "VEC3"
    },
    {
      "bufferView" : 3,
      "componentType" : 5126,
      "count" : 200,
      "type" : "VEC4"
    },
    {
      "bufferView" : 4,
      "componentType" : 5126,
      "count" : 200,
      "type" : "VEC2"
    }
  ]
}
