{
  "asset" : {
    "generator" : "UE Viewer (umodel) build 1590",
    "version" : "2.0"
  },
  "scene" : 0,
  "scenes" : [
    {
      "nodes" : [ 0 ]
    }
  ],
  "nodes" : [
    {
      "name" : "ObjMD_Daiseido_Room_Gate",
      "mesh" : 0
    }
  ],
  "materials" : [
    {
      "name" : "ObjMI_Daiseido_Gate_A",
      "pbrMetallicRoughness" : {
        "baseColorFactor" : [ 0.3, 0.3, 0.3, 1.0 ],
        "metallicFactor" : 0.1,
        "roughnessFactor" : 0.5
      }
    }
  ],
  "meshes" : [
    {
      "primitives" : [
        {
          "attributes" : {
            "POSITION" : 1,
            "NORMAL" : 2,
            "TANGENT" : 3,
            "TEXCOORD_0" : 4,
            "TEXCOORD_1" : 5
          },
          "indices" : 0,
          "material" : 0
        }
      ],
      "name" : "ObjMD_Daiseido_Room_Gate"
    }
  ],
  "buffers" : [
    {
      "uri" : "ObjMD_Daiseido_Room_Gate.bin",
      "byteLength" : 193432
    }
  ],
  "bufferViews" : [
    {
      "buffer" : 0,
      "byteOffset" : 0,
      "byteLength" : 11880
    },
    {
      "buffer" : 0,
      "byteOffset" : 11880,
      "byteLength" : 38904
    },
    {
      "buffer" : 0,
      "byteOffset" : 50784,
      "byteLength" : 38904
    },
    {
      "buffer" : 0,
      "byteOffset" : 89688,
      "byteLength" : 51872
    },
    {
      "buffer" : 0,
      "byteOffset" : 141560,
      "byteLength" : 25936
    },
    {
      "buffer" : 0,
      "byteOffset" : 167496,
      "byteLength" : 25936
    }
  ],
  "accessors" : [
    {
      "bufferView" : 0,
      "componentType" : 5123,
      "count" : 5940,
      "type" : "SCALAR"
    },
    {
      "bufferView" : 1,
      "min" : [ -0.0625, 0, -2.02832e-16 ],
      "max" : [ 0.125, 3.3125, 6 ],
      "componentType" : 5126,
      "count" : 3242,
      "type" : "VEC3"
    },
    {
      "bufferView" : 2,
      "componentType" : 5126,
      "count" : 3242,
      "type" : "VEC3"
    },
    {
      "bufferView" : 3,
      "componentType" : 5126,
      "count" : 3242,
      "type" : "VEC4"
    },
    {
      "bufferView" : 4,
      "componentType" : 5126,
      "count" : 3242,
      "type" : "VEC2"
    },
    {
      "bufferView" : 5,
      "componentType" : 5126,
      "count" : 3242,
      "type" : "VEC2"
    }
  ]
}
