{
  "asset" : {
    "generator" : "UE Viewer (umodel) build 1590",
    "version" : "2.0"
  },
  "scene" : 0,
  "scenes" : [
    {
      "nodes" : [ 0 ]
    }
  ],
  "nodes" : [
    {
      "name" : "ObjMD_Daiseido_in_Lantern",
      "mesh" : 0
    }
  ],
  "materials" : [
    {
      "name" : "ObjMI_Daiseido_Lantern",
      "pbrMetallicRoughness" : {
        "baseColorFactor" : [ 0.3, 0.3, 0.3, 1.0 ],
        "metallicFactor" : 0.1,
        "roughnessFactor" : 0.5
      }
    }
  ],
  "meshes" : [
    {
      "primitives" : [
        {
          "attributes" : {
            "POSITION" : 1,
            "NORMAL" : 2,
            "TANGENT" : 3,
            "TEXCOORD_0" : 4,
            "TEXCOORD_1" : 5
          },
          "indices" : 0,
          "material" : 0
        }
      ],
      "name" : "ObjMD_Daiseido_in_Lantern"
    }
  ],
  "buffers" : [
    {
      "uri" : "ObjMD_Daiseido_in_Lantern.bin",
      "byteLength" : 87288
    }
  ],
  "bufferViews" : [
    {
      "buffer" : 0,
      "byteOffset" : 0,
      "byteLength" : 12192
    },
    {
      "buffer" : 0,
      "byteOffset" : 12192,
      "byteLength" : 16092
    },
    {
      "buffer" : 0,
      "byteOffset" : 28284,
      "byteLength" : 16092
    },
    {
      "buffer" : 0,
      "byteOffset" : 44376,
      "byteLength" : 21456
    },
    {
      "buffer" : 0,
      "byteOffset" : 65832,
      "byteLength" : 10728
    },
    {
      "buffer" : 0,
      "byteOffset" : 76560,
      "byteLength" : 10728
    }
  ],
  "accessors" : [
    {
      "bufferView" : 0,
      "componentType" : 5123,
      "count" : 6096,
      "type" : "SCALAR"
    },
    {
      "bufferView" : 1,
      "min" : [ -1.36493, -7.77156e-17, -1.36493 ],
      "max" : [ 1.36493, 2.1875, 1.36493 ],
      "componentType" : 5126,
      "count" : 1341,
      "type" : "VEC3"
    },
    {
      "bufferView" : 2,
      "componentType" : 5126,
      "count" : 1341,
      "type" : "VEC3"
    },
    {
      "bufferView" : 3,
      "componentType" : 5126,
      "count" : 1341,
      "type" : "VEC4"
    },
    {
      "bufferView" : 4,
      "componentType" : 5126,
      "count" : 1341,
      "type" : "VEC2"
    },
    {
      "bufferView" : 5,
      "componentType" : 5126,
      "count" : 1341,
      "type" : "VEC2"
    }
  ]
}
