{
  "asset" : {
    "generator" : "UE Viewer (umodel) build 1590",
    "version" : "2.0"
  },
  "scene" : 0,
  "scenes" : [
    {
      "nodes" : [ 0 ]
    }
  ],
  "nodes" : [
    {
      "name" : "ObjMD_Daiseido_Wall_F",
      "mesh" : 0
    }
  ],
  "materials" : [
    {
      "name" : "ObjMI_Daiseido_Room_B",
      "pbrMetallicRoughness" : {
        "baseColorFactor" : [ 0.3, 0.3, 0.3, 1.0 ],
        "metallicFactor" : 0.1,
        "roughnessFactor" : 0.5
      }
    }
  ],
  "meshes" : [
    {
      "primitives" : [
        {
          "attributes" : {
            "POSITION" : 1,
            "NORMAL" : 2,
            "TANGENT" : 3,
            "TEXCOORD_0" : 4
          },
          "indices" : 0,
          "material" : 0
        }
      ],
      "name" : "ObjMD_Daiseido_Wall_F"
    }
  ],
  "buffers" : [
    {
      "uri" : "ObjMD_Daiseido_Wall_F.bin",
      "byteLength" : 15420
    }
  ],
  "bufferViews" : [
    {
      "buffer" : 0,
      "byteOffset" : 0,
      "byteLength" : 1068
    },
    {
      "buffer" : 0,
      "byteOffset" : 1068,
      "byteLength" : 3588
    },
    {
      "buffer" : 0,
      "byteOffset" : 4656,
      "byteLength" : 3588
    },
    {
      "buffer" : 0,
      "byteOffset" : 8244,
      "byteLength" : 4784
    },
    {
      "buffer" : 0,
      "byteOffset" : 13028,
      "byteLength" : 2392
    }
  ],
  "accessors" : [
    {
      "bufferView" : 0,
      "componentType" : 5123,
      "count" : 534,
      "type" : "SCALAR"
    },
    {
      "bufferView" : 1,
      "min" : [ -0.25, -3, -5.00016 ],
      "max" : [ 0.25, 6, 5.00016 ],
      "componentType" : 5126,
      "count" : 299,
      "type" : "VEC3"
    },
    {
      "bufferView" : 2,
      "componentType" : 5126,
      "count" : 299,
      "type" : "VEC3"
    },
    {
      "bufferView" : 3,
      "componentType" : 5126,
      "count" : 299,
      "type" : "VEC4"
    },
    {
      "bufferView" : 4,
      "componentType" : 5126,
      "count" : 299,
      "type" : "VEC2"
    }
  ]
}
