{
  "asset" : {
    "generator" : "UE Viewer (umodel) build 1590",
    "version" : "2.0"
  },
  "scene" : 0,
  "scenes" : [
    {
      "nodes" : [ 0 ]
    }
  ],
  "nodes" : [
    {
      "name" : "ObjMD_Daiseido_Remain_Pillar_D",
      "mesh" : 0
    }
  ],
  "materials" : [
    {
      "name" : "ObjMI_Daiseido_Remain_A",
      "pbrMetallicRoughness" : {
        "baseColorFactor" : [ 0.3, 0.3, 0.3, 1.0 ],
        "metallicFactor" : 0.1,
        "roughnessFactor" : 0.5
      }
    }
  ],
  "meshes" : [
    {
      "primitives" : [
        {
          "attributes" : {
            "POSITION" : 1,
            "NORMAL" : 2,
            "TANGENT" : 3,
            "TEXCOORD_0" : 4,
            "TEXCOORD_1" : 5
          },
          "indices" : 0,
          "material" : 0
        }
      ],
      "name" : "ObjMD_Daiseido_Remain_Pillar_D"
    }
  ],
  "buffers" : [
    {
      "uri" : "ObjMD_Daiseido_Remain_Pillar_D.bin",
      "byteLength" : 29712
    }
  ],
  "bufferViews" : [
    {
      "buffer" : 0,
      "byteOffset" : 0,
      "byteLength" : 1656
    },
    {
      "buffer" : 0,
      "byteOffset" : 1656,
      "byteLength" : 6012
    },
    {
      "buffer" : 0,
      "byteOffset" : 7668,
      "byteLength" : 6012
    },
    {
      "buffer" : 0,
      "byteOffset" : 13680,
      "byteLength" : 8016
    },
    {
      "buffer" : 0,
      "byteOffset" : 21696,
      "byteLength" : 4008
    },
    {
      "buffer" : 0,
      "byteOffset" : 25704,
      "byteLength" : 4008
    }
  ],
  "accessors" : [
    {
      "bufferView" : 0,
      "componentType" : 5123,
      "count" : 828,
      "type" : "SCALAR"
    },
    {
      "bufferView" : 1,
      "min" : [ -1.14905, -7.03589e-17, -1.14905 ],
      "max" : [ 1.14905, 3.75, 1.14905 ],
      "componentType" : 5126,
      "count" : 501,
      "type" : "VEC3"
    },
    {
      "bufferView" : 2,
      "componentType" : 5126,
      "count" : 501,
      "type" : "VEC3"
    },
    {
      "bufferView" : 3,
      "componentType" : 5126,
      "count" : 501,
      "type" : "VEC4"
    },
    {
      "bufferView" : 4,
      "componentType" : 5126,
      "count" : 501,
      "type" : "VEC2"
    },
    {
      "bufferView" : 5,
      "componentType" : 5126,
      "count" : 501,
      "type" : "VEC2"
    }
  ]
}
