{
  "asset" : {
    "generator" : "UE Viewer (umodel) build 1590",
    "version" : "2.0"
  },
  "scene" : 0,
  "scenes" : [
    {
      "nodes" : [ 0 ]
    }
  ],
  "nodes" : [
    {
      "name" : "ObjMD_Daiseido_Wall_C",
      "mesh" : 0
    }
  ],
  "materials" : [
    {
      "name" : "ObjMI_Daiseido_Room_A",
      "pbrMetallicRoughness" : {
        "baseColorFactor" : [ 0.3, 0.3, 0.3, 1.0 ],
        "metallicFactor" : 0.1,
        "roughnessFactor" : 0.5
      }
    }
  ],
  "meshes" : [
    {
      "primitives" : [
        {
          "attributes" : {
            "POSITION" : 1,
            "NORMAL" : 2,
            "TANGENT" : 3,
            "TEXCOORD_0" : 4
          },
          "indices" : 0,
          "material" : 0
        }
      ],
      "name" : "ObjMD_Daiseido_Wall_C"
    }
  ],
  "buffers" : [
    {
      "uri" : "ObjMD_Daiseido_Wall_C.bin",
      "byteLength" : 11988
    }
  ],
  "bufferViews" : [
    {
      "buffer" : 0,
      "byteOffset" : 0,
      "byteLength" : 996
    },
    {
      "buffer" : 0,
      "byteOffset" : 996,
      "byteLength" : 2748
    },
    {
      "buffer" : 0,
      "byteOffset" : 3744,
      "byteLength" : 2748
    },
    {
      "buffer" : 0,
      "byteOffset" : 6492,
      "byteLength" : 3664
    },
    {
      "buffer" : 0,
      "byteOffset" : 10156,
      "byteLength" : 1832
    }
  ],
  "accessors" : [
    {
      "bufferView" : 0,
      "componentType" : 5123,
      "count" : 498,
      "type" : "SCALAR"
    },
    {
      "bufferView" : 1,
      "min" : [ -0.375, -5, -2 ],
      "max" : [ 0.0625, 6, 2 ],
      "componentType" : 5126,
      "count" : 229,
      "type" : "VEC3"
    },
    {
      "bufferView" : 2,
      "componentType" : 5126,
      "count" : 229,
      "type" : "VEC3"
    },
    {
      "bufferView" : 3,
      "componentType" : 5126,
      "count" : 229,
      "type" : "VEC4"
    },
    {
      "bufferView" : 4,
      "componentType" : 5126,
      "count" : 229,
      "type" : "VEC2"
    }
  ]
}
