{
  "asset" : {
    "generator" : "UE Viewer (umodel) build 1590",
    "version" : "2.0"
  },
  "scene" : 0,
  "scenes" : [
    {
      "nodes" : [ 0 ]
    }
  ],
  "nodes" : [
    {
      "name" : "ObjMD_Daiseido_Main",
      "mesh" : 0
    }
  ],
  "materials" : [
    {
      "name" : "ObjMI_Daiseido_Room_B",
      "pbrMetallicRoughness" : {
        "baseColorFactor" : [ 0.3, 0.3, 0.3, 1.0 ],
        "metallicFactor" : 0.1,
        "roughnessFactor" : 0.5
      }
    }
  ],
  "meshes" : [
    {
      "primitives" : [
        {
          "attributes" : {
            "POSITION" : 1,
            "NORMAL" : 2,
            "TANGENT" : 3,
            "TEXCOORD_0" : 4
          },
          "indices" : 0,
          "material" : 0
        }
      ],
      "name" : "ObjMD_Daiseido_Main"
    }
  ],
  "buffers" : [
    {
      "uri" : "ObjMD_Daiseido_Main.bin",
      "byteLength" : 210816
    }
  ],
  "bufferViews" : [
    {
      "buffer" : 0,
      "byteOffset" : 0,
      "byteLength" : 13440
    },
    {
      "buffer" : 0,
      "byteOffset" : 13440,
      "byteLength" : 49344
    },
    {
      "buffer" : 0,
      "byteOffset" : 62784,
      "byteLength" : 49344
    },
    {
      "buffer" : 0,
      "byteOffset" : 112128,
      "byteLength" : 65792
    },
    {
      "buffer" : 0,
      "byteOffset" : 177920,
      "byteLength" : 32896
    }
  ],
  "accessors" : [
    {
      "bufferView" : 0,
      "componentType" : 5123,
      "count" : 6720,
      "type" : "SCALAR"
    },
    {
      "bufferView" : 1,
      "min" : [ -15, -7, -13 ],
      "max" : [ 12, -3, 13 ],
      "componentType" : 5126,
      "count" : 4112,
      "type" : "VEC3"
    },
    {
      "bufferView" : 2,
      "componentType" : 5126,
      "count" : 4112,
      "type" : "VEC3"
    },
    {
      "bufferView" : 3,
      "componentType" : 5126,
      "count" : 4112,
      "type" : "VEC4"
    },
    {
      "bufferView" : 4,
      "componentType" : 5126,
      "count" : 4112,
      "type" : "VEC2"
    }
  ]
}
