{
  "asset" : {
    "generator" : "UE Viewer (umodel) build 1590",
    "version" : "2.0"
  },
  "scene" : 0,
  "scenes" : [
    {
      "nodes" : [ 0 ]
    }
  ],
  "nodes" : [
    {
      "name" : "ObjMD_Daiseido_Remain_Wall_D",
      "mesh" : 0
    }
  ],
  "materials" : [
    {
      "name" : "ObjMI_Daiseido_Remain_A",
      "pbrMetallicRoughness" : {
        "baseColorFactor" : [ 0.3, 0.3, 0.3, 1.0 ],
        "metallicFactor" : 0.1,
        "roughnessFactor" : 0.5
      }
    }
  ],
  "meshes" : [
    {
      "primitives" : [
        {
          "attributes" : {
            "POSITION" : 1,
            "NORMAL" : 2,
            "TANGENT" : 3,
            "TEXCOORD_0" : 4,
            "TEXCOORD_1" : 5
          },
          "indices" : 0,
          "material" : 0
        }
      ],
      "name" : "ObjMD_Daiseido_Remain_Wall_D"
    }
  ],
  "buffers" : [
    {
      "uri" : "ObjMD_Daiseido_Remain_Wall_D.bin",
      "byteLength" : 64284
    }
  ],
  "bufferViews" : [
    {
      "buffer" : 0,
      "byteOffset" : 0,
      "byteLength" : 4644
    },
    {
      "buffer" : 0,
      "byteOffset" : 4644,
      "byteLength" : 12780
    },
    {
      "buffer" : 0,
      "byteOffset" : 17424,
      "byteLength" : 12780
    },
    {
      "buffer" : 0,
      "byteOffset" : 30204,
      "byteLength" : 17040
    },
    {
      "buffer" : 0,
      "byteOffset" : 47244,
      "byteLength" : 8520
    },
    {
      "buffer" : 0,
      "byteOffset" : 55764,
      "byteLength" : 8520
    }
  ],
  "accessors" : [
    {
      "bufferView" : 0,
      "componentType" : 5123,
      "count" : 2322,
      "type" : "SCALAR"
    },
    {
      "bufferView" : 1,
      "min" : [ -0.687502, -1.49556e-16, -2.44244 ],
      "max" : [ 0.687502, 10, 2.44244 ],
      "componentType" : 5126,
      "count" : 1065,
      "type" : "VEC3"
    },
    {
      "bufferView" : 2,
      "componentType" : 5126,
      "count" : 1065,
      "type" : "VEC3"
    },
    {
      "bufferView" : 3,
      "componentType" : 5126,
      "count" : 1065,
      "type" : "VEC4"
    },
    {
      "bufferView" : 4,
      "componentType" : 5126,
      "count" : 1065,
      "type" : "VEC2"
    },
    {
      "bufferView" : 5,
      "componentType" : 5126,
      "count" : 1065,
      "type" : "VEC2"
    }
  ]
}
