{
  "asset" : {
    "generator" : "UE Viewer (umodel) build 1590",
    "version" : "2.0"
  },
  "scene" : 0,
  "scenes" : [
    {
      "nodes" : [ 0 ]
    }
  ],
  "nodes" : [
    {
      "name" : "ObjMD_Daiseido_Remain_Wall_A",
      "mesh" : 0
    }
  ],
  "materials" : [
    {
      "name" : "ObjMI_Daiseido_Remain_A",
      "pbrMetallicRoughness" : {
        "baseColorFactor" : [ 0.3, 0.3, 0.3, 1.0 ],
        "metallicFactor" : 0.1,
        "roughnessFactor" : 0.5
      }
    }
  ],
  "meshes" : [
    {
      "primitives" : [
        {
          "attributes" : {
            "POSITION" : 1,
            "NORMAL" : 2,
            "TANGENT" : 3,
            "TEXCOORD_0" : 4,
            "TEXCOORD_1" : 5
          },
          "indices" : 0,
          "material" : 0
        }
      ],
      "name" : "ObjMD_Daiseido_Remain_Wall_A"
    }
  ],
  "buffers" : [
    {
      "uri" : "ObjMD_Daiseido_Remain_Wall_A.bin",
      "byteLength" : 8008
    }
  ],
  "bufferViews" : [
    {
      "buffer" : 0,
      "byteOffset" : 0,
      "byteLength" : 504
    },
    {
      "buffer" : 0,
      "byteOffset" : 504,
      "byteLength" : 1608
    },
    {
      "buffer" : 0,
      "byteOffset" : 2112,
      "byteLength" : 1608
    },
    {
      "buffer" : 0,
      "byteOffset" : 3720,
      "byteLength" : 2144
    },
    {
      "buffer" : 0,
      "byteOffset" : 5864,
      "byteLength" : 1072
    },
    {
      "buffer" : 0,
      "byteOffset" : 6936,
      "byteLength" : 1072
    }
  ],
  "accessors" : [
    {
      "bufferView" : 0,
      "componentType" : 5123,
      "count" : 252,
      "type" : "SCALAR"
    },
    {
      "bufferView" : 1,
      "min" : [ -0.375, -1.4734e-16, -2.40625 ],
      "max" : [ 0.375, 1.5, 2.40625 ],
      "componentType" : 5126,
      "count" : 134,
      "type" : "VEC3"
    },
    {
      "bufferView" : 2,
      "componentType" : 5126,
      "count" : 134,
      "type" : "VEC3"
    },
    {
      "bufferView" : 3,
      "componentType" : 5126,
      "count" : 134,
      "type" : "VEC4"
    },
    {
      "bufferView" : 4,
      "componentType" : 5126,
      "count" : 134,
      "type" : "VEC2"
    },
    {
      "bufferView" : 5,
      "componentType" : 5126,
      "count" : 134,
      "type" : "VEC2"
    }
  ]
}
