{
  "asset" : {
    "generator" : "UE Viewer (umodel) build 1590",
    "version" : "2.0"
  },
  "scene" : 0,
  "scenes" : [
    {
      "nodes" : [ 0 ]
    }
  ],
  "nodes" : [
    {
      "name" : "ObjMD_Daiseido_Carpet_A",
      "mesh" : 0
    }
  ],
  "materials" : [
    {
      "name" : "ObjMI_Daiseido_Carpet_A",
      "pbrMetallicRoughness" : {
        "baseColorFactor" : [ 0.3, 0.3, 0.3, 1.0 ],
        "metallicFactor" : 0.1,
        "roughnessFactor" : 0.5
      }
    }
  ],
  "meshes" : [
    {
      "primitives" : [
        {
          "attributes" : {
            "POSITION" : 1,
            "NORMAL" : 2,
            "TANGENT" : 3,
            "TEXCOORD_0" : 4
          },
          "indices" : 0,
          "material" : 0
        }
      ],
      "name" : "ObjMD_Daiseido_Carpet_A"
    }
  ],
  "buffers" : [
    {
      "uri" : "ObjMD_Daiseido_Carpet_A.bin",
      "byteLength" : 14904
    }
  ],
  "bufferViews" : [
    {
      "buffer" : 0,
      "byteOffset" : 0,
      "byteLength" : 888
    },
    {
      "buffer" : 0,
      "byteOffset" : 888,
      "byteLength" : 3504
    },
    {
      "buffer" : 0,
      "byteOffset" : 4392,
      "byteLength" : 3504
    },
    {
      "buffer" : 0,
      "byteOffset" : 7896,
      "byteLength" : 4672
    },
    {
      "buffer" : 0,
      "byteOffset" : 12568,
      "byteLength" : 2336
    }
  ],
  "accessors" : [
    {
      "bufferView" : 0,
      "componentType" : 5123,
      "count" : 444,
      "type" : "SCALAR"
    },
    {
      "bufferView" : 1,
      "min" : [ -34.5, -6.5098e-17, -1.5 ],
      "max" : [ 31.8125, 2.03125, 1.5 ],
      "componentType" : 5126,
      "count" : 292,
      "type" : "VEC3"
    },
    {
      "bufferView" : 2,
      "componentType" : 5126,
      "count" : 292,
      "type" : "VEC3"
    },
    {
      "bufferView" : 3,
      "componentType" : 5126,
      "count" : 292,
      "type" : "VEC4"
    },
    {
      "bufferView" : 4,
      "componentType" : 5126,
      "count" : 292,
      "type" : "VEC2"
    }
  ]
}
