{
  "asset" : {
    "generator" : "UE Viewer (umodel) build 1590",
    "version" : "2.0"
  },
  "scene" : 0,
  "scenes" : [
    {
      "nodes" : [ 0 ]
    }
  ],
  "nodes" : [
    {
      "name" : "ObjMD_Daiseido_Floor_A",
      "mesh" : 0
    }
  ],
  "materials" : [
    {
      "name" : "ObjMI_Daiseido_Room_B",
      "pbrMetallicRoughness" : {
        "baseColorFactor" : [ 0.3, 0.3, 0.3, 1.0 ],
        "metallicFactor" : 0.1,
        "roughnessFactor" : 0.5
      }
    }
  ],
  "meshes" : [
    {
      "primitives" : [
        {
          "attributes" : {
            "POSITION" : 1,
            "NORMAL" : 2,
            "TANGENT" : 3,
            "TEXCOORD_0" : 4
          },
          "indices" : 0,
          "material" : 0
        }
      ],
      "name" : "ObjMD_Daiseido_Floor_A"
    }
  ],
  "buffers" : [
    {
      "uri" : "ObjMD_Daiseido_Floor_A.bin",
      "byteLength" : 22536
    }
  ],
  "bufferViews" : [
    {
      "buffer" : 0,
      "byteOffset" : 0,
      "byteLength" : 1944
    },
    {
      "buffer" : 0,
      "byteOffset" : 1944,
      "byteLength" : 5148
    },
    {
      "buffer" : 0,
      "byteOffset" : 7092,
      "byteLength" : 5148
    },
    {
      "buffer" : 0,
      "byteOffset" : 12240,
      "byteLength" : 6864
    },
    {
      "buffer" : 0,
      "byteOffset" : 19104,
      "byteLength" : 3432
    }
  ],
  "accessors" : [
    {
      "bufferView" : 0,
      "componentType" : 5123,
      "count" : 972,
      "type" : "SCALAR"
    },
    {
      "bufferView" : 1,
      "min" : [ -3.625, -4.89859e-16, -9 ],
      "max" : [ 3.625, 0.0625, 9 ],
      "componentType" : 5126,
      "count" : 429,
      "type" : "VEC3"
    },
    {
      "bufferView" : 2,
      "componentType" : 5126,
      "count" : 429,
      "type" : "VEC3"
    },
    {
      "bufferView" : 3,
      "componentType" : 5126,
      "count" : 429,
      "type" : "VEC4"
    },
    {
      "bufferView" : 4,
      "componentType" : 5126,
      "count" : 429,
      "type" : "VEC2"
    }
  ]
}
