{
  "asset" : {
    "generator" : "UE Viewer (umodel) build 1590",
    "version" : "2.0"
  },
  "scene" : 0,
  "scenes" : [
    {
      "nodes" : [ 0 ]
    }
  ],
  "nodes" : [
    {
      "name" : "ObjMD_Chair_F_Sofa",
      "mesh" : 0
    }
  ],
  "materials" : [
    {
      "name" : "ObjMI_Chair_F",
      "pbrMetallicRoughness" : {
        "baseColorFactor" : [ 0.3, 0.3, 0.3, 1.0 ],
        "metallicFactor" : 0.1,
        "roughnessFactor" : 0.5
      }
    }
  ],
  "meshes" : [
    {
      "primitives" : [
        {
          "attributes" : {
            "POSITION" : 1,
            "NORMAL" : 2,
            "TANGENT" : 3,
            "TEXCOORD_0" : 4,
            "TEXCOORD_1" : 5
          },
          "indices" : 0,
          "material" : 0
        }
      ],
      "name" : "ObjMD_Chair_F_Sofa"
    }
  ],
  "buffers" : [
    {
      "uri" : "ObjMD_Chair_F_Sofa.bin",
      "byteLength" : 36452
    }
  ],
  "bufferViews" : [
    {
      "buffer" : 0,
      "byteOffset" : 0,
      "byteLength" : 3300
    },
    {
      "buffer" : 0,
      "byteOffset" : 3300,
      "byteLength" : 7104
    },
    {
      "buffer" : 0,
      "byteOffset" : 10404,
      "byteLength" : 7104
    },
    {
      "buffer" : 0,
      "byteOffset" : 17508,
      "byteLength" : 9472
    },
    {
      "buffer" : 0,
      "byteOffset" : 26980,
      "byteLength" : 4736
    },
    {
      "buffer" : 0,
      "byteOffset" : 31716,
      "byteLength" : 4736
    }
  ],
  "accessors" : [
    {
      "bufferView" : 0,
      "componentType" : 5123,
      "count" : 1650,
      "type" : "SCALAR"
    },
    {
      "bufferView" : 1,
      "min" : [ -0.45625, -4.64298e-17, -0.787504 ],
      "max" : [ 0.33125, 1.35, 0.787504 ],
      "componentType" : 5126,
      "count" : 592,
      "type" : "VEC3"
    },
    {
      "bufferView" : 2,
      "componentType" : 5126,
      "count" : 592,
      "type" : "VEC3"
    },
    {
      "bufferView" : 3,
      "componentType" : 5126,
      "count" : 592,
      "type" : "VEC4"
    },
    {
      "bufferView" : 4,
      "componentType" : 5126,
      "count" : 592,
      "type" : "VEC2"
    },
    {
      "bufferView" : 5,
      "componentType" : 5126,
      "count" : 592,
      "type" : "VEC2"
    }
  ]
}
