{
  "asset" : {
    "generator" : "UE Viewer (umodel) build 1590",
    "version" : "2.0"
  },
  "scene" : 0,
  "scenes" : [
    {
      "nodes" : [ 0 ]
    }
  ],
  "nodes" : [
    {
      "name" : "ObjMD_Chair_C",
      "mesh" : 0
    }
  ],
  "materials" : [
    {
      "name" : "ObjMI_Chair_C",
      "pbrMetallicRoughness" : {
        "baseColorFactor" : [ 0.3, 0.3, 0.3, 1.0 ],
        "metallicFactor" : 0.1,
        "roughnessFactor" : 0.5
      }
    }
  ],
  "meshes" : [
    {
      "primitives" : [
        {
          "attributes" : {
            "POSITION" : 1,
            "NORMAL" : 2,
            "TANGENT" : 3,
            "TEXCOORD_0" : 4,
            "TEXCOORD_1" : 5
          },
          "indices" : 0,
          "material" : 0
        }
      ],
      "name" : "ObjMD_Chair_C"
    }
  ],
  "buffers" : [
    {
      "uri" : "ObjMD_Chair_C.bin",
      "byteLength" : 10420
    }
  ],
  "bufferViews" : [
    {
      "buffer" : 0,
      "byteOffset" : 0,
      "byteLength" : 564
    },
    {
      "buffer" : 0,
      "byteOffset" : 564,
      "byteLength" : 2112
    },
    {
      "buffer" : 0,
      "byteOffset" : 2676,
      "byteLength" : 2112
    },
    {
      "buffer" : 0,
      "byteOffset" : 4788,
      "byteLength" : 2816
    },
    {
      "buffer" : 0,
      "byteOffset" : 7604,
      "byteLength" : 1408
    },
    {
      "buffer" : 0,
      "byteOffset" : 9012,
      "byteLength" : 1408
    }
  ],
  "accessors" : [
    {
      "bufferView" : 0,
      "componentType" : 5123,
      "count" : 282,
      "type" : "SCALAR"
    },
    {
      "bufferView" : 1,
      "min" : [ -0.3125, -1.53081e-17, -0.25 ],
      "max" : [ 0.25, 1.0625, 0.25 ],
      "componentType" : 5126,
      "count" : 176,
      "type" : "VEC3"
    },
    {
      "bufferView" : 2,
      "componentType" : 5126,
      "count" : 176,
      "type" : "VEC3"
    },
    {
      "bufferView" : 3,
      "componentType" : 5126,
      "count" : 176,
      "type" : "VEC4"
    },
    {
      "bufferView" : 4,
      "componentType" : 5126,
      "count" : 176,
      "type" : "VEC2"
    },
    {
      "bufferView" : 5,
      "componentType" : 5126,
      "count" : 176,
      "type" : "VEC2"
    }
  ]
}
