{
  "asset" : {
    "generator" : "UE Viewer (umodel) build 1590",
    "version" : "2.0"
  },
  "scene" : 0,
  "scenes" : [
    {
      "nodes" : [ 0 ]
    }
  ],
  "nodes" : [
    {
      "name" : "ObjMD_Chair_I",
      "mesh" : 0
    }
  ],
  "materials" : [
    {
      "name" : "ObjMI_Chair_I",
      "pbrMetallicRoughness" : {
        "baseColorFactor" : [ 0.3, 0.3, 0.3, 1.0 ],
        "metallicFactor" : 0.1,
        "roughnessFactor" : 0.5
      }
    }
  ],
  "meshes" : [
    {
      "primitives" : [
        {
          "attributes" : {
            "POSITION" : 1,
            "NORMAL" : 2,
            "TANGENT" : 3,
            "TEXCOORD_0" : 4,
            "TEXCOORD_1" : 5
          },
          "indices" : 0,
          "material" : 0
        }
      ],
      "name" : "ObjMD_Chair_I"
    }
  ],
  "buffers" : [
    {
      "uri" : "ObjMD_Chair_I.bin",
      "byteLength" : 9832
    }
  ],
  "bufferViews" : [
    {
      "buffer" : 0,
      "byteOffset" : 0,
      "byteLength" : 648
    },
    {
      "buffer" : 0,
      "byteOffset" : 648,
      "byteLength" : 1968
    },
    {
      "buffer" : 0,
      "byteOffset" : 2616,
      "byteLength" : 1968
    },
    {
      "buffer" : 0,
      "byteOffset" : 4584,
      "byteLength" : 2624
    },
    {
      "buffer" : 0,
      "byteOffset" : 7208,
      "byteLength" : 1312
    },
    {
      "buffer" : 0,
      "byteOffset" : 8520,
      "byteLength" : 1312
    }
  ],
  "accessors" : [
    {
      "bufferView" : 0,
      "componentType" : 5123,
      "count" : 324,
      "type" : "SCALAR"
    },
    {
      "bufferView" : 1,
      "min" : [ -0.9375, -1.91351e-17, -0.375 ],
      "max" : [ 0.9375, 0.5, 0.375 ],
      "componentType" : 5126,
      "count" : 164,
      "type" : "VEC3"
    },
    {
      "bufferView" : 2,
      "componentType" : 5126,
      "count" : 164,
      "type" : "VEC3"
    },
    {
      "bufferView" : 3,
      "componentType" : 5126,
      "count" : 164,
      "type" : "VEC4"
    },
    {
      "bufferView" : 4,
      "componentType" : 5126,
      "count" : 164,
      "type" : "VEC2"
    },
    {
      "bufferView" : 5,
      "componentType" : 5126,
      "count" : 164,
      "type" : "VEC2"
    }
  ]
}
