{
  "asset" : {
    "generator" : "UE Viewer (umodel) build 1590",
    "version" : "2.0"
  },
  "scene" : 0,
  "scenes" : [
    {
      "nodes" : [ 0 ]
    }
  ],
  "nodes" : [
    {
      "name" : "ObjMD_Chair_H",
      "mesh" : 0
    }
  ],
  "materials" : [
    {
      "name" : "ObjMI_Chair_H",
      "pbrMetallicRoughness" : {
        "baseColorFactor" : [ 0.3, 0.3, 0.3, 1.0 ],
        "metallicFactor" : 0.1,
        "roughnessFactor" : 0.5
      }
    }
  ],
  "meshes" : [
    {
      "primitives" : [
        {
          "attributes" : {
            "POSITION" : 1,
            "NORMAL" : 2,
            "TANGENT" : 3,
            "TEXCOORD_0" : 4,
            "TEXCOORD_1" : 5
          },
          "indices" : 0,
          "material" : 0
        }
      ],
      "name" : "ObjMD_Chair_H"
    }
  ],
  "buffers" : [
    {
      "uri" : "ObjMD_Chair_H.bin",
      "byteLength" : 15896
    }
  ],
  "bufferViews" : [
    {
      "buffer" : 0,
      "byteOffset" : 0,
      "byteLength" : 888
    },
    {
      "buffer" : 0,
      "byteOffset" : 888,
      "byteLength" : 3216
    },
    {
      "buffer" : 0,
      "byteOffset" : 4104,
      "byteLength" : 3216
    },
    {
      "buffer" : 0,
      "byteOffset" : 7320,
      "byteLength" : 4288
    },
    {
      "buffer" : 0,
      "byteOffset" : 11608,
      "byteLength" : 2144
    },
    {
      "buffer" : 0,
      "byteOffset" : 13752,
      "byteLength" : 2144
    }
  ],
  "accessors" : [
    {
      "bufferView" : 0,
      "componentType" : 5123,
      "count" : 444,
      "type" : "SCALAR"
    },
    {
      "bufferView" : 1,
      "min" : [ -0.375, -1.91351e-17, -0.3125 ],
      "max" : [ 0.25, 1.05777, 0.3125 ],
      "componentType" : 5126,
      "count" : 268,
      "type" : "VEC3"
    },
    {
      "bufferView" : 2,
      "componentType" : 5126,
      "count" : 268,
      "type" : "VEC3"
    },
    {
      "bufferView" : 3,
      "componentType" : 5126,
      "count" : 268,
      "type" : "VEC4"
    },
    {
      "bufferView" : 4,
      "componentType" : 5126,
      "count" : 268,
      "type" : "VEC2"
    },
    {
      "bufferView" : 5,
      "componentType" : 5126,
      "count" : 268,
      "type" : "VEC2"
    }
  ]
}
