{
  "asset" : {
    "generator" : "UE Viewer (umodel) build 1590",
    "version" : "2.0"
  },
  "scene" : 0,
  "scenes" : [
    {
      "nodes" : [ 0 ]
    }
  ],
  "nodes" : [
    {
      "name" : "ObjMD_Chair_E",
      "mesh" : 0
    }
  ],
  "materials" : [
    {
      "name" : "ObjMI_Chair_E",
      "pbrMetallicRoughness" : {
        "baseColorFactor" : [ 0.3, 0.3, 0.3, 1.0 ],
        "metallicFactor" : 0.1,
        "roughnessFactor" : 0.5
      }
    }
  ],
  "meshes" : [
    {
      "primitives" : [
        {
          "attributes" : {
            "POSITION" : 1,
            "NORMAL" : 2,
            "TANGENT" : 3,
            "TEXCOORD_0" : 4,
            "TEXCOORD_1" : 5
          },
          "indices" : 0,
          "material" : 0
        }
      ],
      "name" : "ObjMD_Chair_E"
    }
  ],
  "buffers" : [
    {
      "uri" : "ObjMD_Chair_E.bin",
      "byteLength" : 48140
    }
  ],
  "bufferViews" : [
    {
      "buffer" : 0,
      "byteOffset" : 0,
      "byteLength" : 3900
    },
    {
      "buffer" : 0,
      "byteOffset" : 3900,
      "byteLength" : 9480
    },
    {
      "buffer" : 0,
      "byteOffset" : 13380,
      "byteLength" : 9480
    },
    {
      "buffer" : 0,
      "byteOffset" : 22860,
      "byteLength" : 12640
    },
    {
      "buffer" : 0,
      "byteOffset" : 35500,
      "byteLength" : 6320
    },
    {
      "buffer" : 0,
      "byteOffset" : 41820,
      "byteLength" : 6320
    }
  ],
  "accessors" : [
    {
      "bufferView" : 0,
      "componentType" : 5123,
      "count" : 1950,
      "type" : "SCALAR"
    },
    {
      "bufferView" : 1,
      "min" : [ -0.3125, -1.37773e-17, -0.265536 ],
      "max" : [ 0.25, 0.975, 0.265536 ],
      "componentType" : 5126,
      "count" : 790,
      "type" : "VEC3"
    },
    {
      "bufferView" : 2,
      "componentType" : 5126,
      "count" : 790,
      "type" : "VEC3"
    },
    {
      "bufferView" : 3,
      "componentType" : 5126,
      "count" : 790,
      "type" : "VEC4"
    },
    {
      "bufferView" : 4,
      "componentType" : 5126,
      "count" : 790,
      "type" : "VEC2"
    },
    {
      "bufferView" : 5,
      "componentType" : 5126,
      "count" : 790,
      "type" : "VEC2"
    }
  ]
}
