{
  "asset" : {
    "generator" : "UE Viewer (umodel) build 1590",
    "version" : "2.0"
  },
  "scene" : 0,
  "scenes" : [
    {
      "nodes" : [ 0 ]
    }
  ],
  "nodes" : [
    {
      "name" : "ObjMD_Chair_F",
      "mesh" : 0
    }
  ],
  "materials" : [
    {
      "name" : "ObjMI_Chair_F",
      "pbrMetallicRoughness" : {
        "baseColorFactor" : [ 0.3, 0.3, 0.3, 1.0 ],
        "metallicFactor" : 0.1,
        "roughnessFactor" : 0.5
      }
    }
  ],
  "meshes" : [
    {
      "primitives" : [
        {
          "attributes" : {
            "POSITION" : 1,
            "NORMAL" : 2,
            "TANGENT" : 3,
            "TEXCOORD_0" : 4,
            "TEXCOORD_1" : 5
          },
          "indices" : 0,
          "material" : 0
        }
      ],
      "name" : "ObjMD_Chair_F"
    }
  ],
  "buffers" : [
    {
      "uri" : "ObjMD_Chair_F.bin",
      "byteLength" : 34448
    }
  ],
  "bufferViews" : [
    {
      "buffer" : 0,
      "byteOffset" : 0,
      "byteLength" : 2976
    },
    {
      "buffer" : 0,
      "byteOffset" : 2976,
      "byteLength" : 6744
    },
    {
      "buffer" : 0,
      "byteOffset" : 9720,
      "byteLength" : 6744
    },
    {
      "buffer" : 0,
      "byteOffset" : 16464,
      "byteLength" : 8992
    },
    {
      "buffer" : 0,
      "byteOffset" : 25456,
      "byteLength" : 4496
    },
    {
      "buffer" : 0,
      "byteOffset" : 29952,
      "byteLength" : 4496
    }
  ],
  "accessors" : [
    {
      "bufferView" : 0,
      "componentType" : 5123,
      "count" : 1488,
      "type" : "SCALAR"
    },
    {
      "bufferView" : 1,
      "min" : [ -0.45625, -2.57639e-17, -0.450003 ],
      "max" : [ 0.33125, 1.51875, 0.450004 ],
      "componentType" : 5126,
      "count" : 562,
      "type" : "VEC3"
    },
    {
      "bufferView" : 2,
      "componentType" : 5126,
      "count" : 562,
      "type" : "VEC3"
    },
    {
      "bufferView" : 3,
      "componentType" : 5126,
      "count" : 562,
      "type" : "VEC4"
    },
    {
      "bufferView" : 4,
      "componentType" : 5126,
      "count" : 562,
      "type" : "VEC2"
    },
    {
      "bufferView" : 5,
      "componentType" : 5126,
      "count" : 562,
      "type" : "VEC2"
    }
  ]
}
