{
  "asset" : {
    "generator" : "UE Viewer (umodel) build 1590",
    "version" : "2.0"
  },
  "scene" : 0,
  "scenes" : [
    {
      "nodes" : [ 0 ]
    }
  ],
  "nodes" : [
    {
      "name" : "ObjMD_Chair_J",
      "mesh" : 0
    }
  ],
  "materials" : [
    {
      "name" : "ObjMI_Chair_J",
      "pbrMetallicRoughness" : {
        "baseColorFactor" : [ 0.3, 0.3, 0.3, 1.0 ],
        "metallicFactor" : 0.1,
        "roughnessFactor" : 0.5
      }
    }
  ],
  "meshes" : [
    {
      "primitives" : [
        {
          "attributes" : {
            "POSITION" : 1,
            "NORMAL" : 2,
            "TANGENT" : 3,
            "TEXCOORD_0" : 4,
            "TEXCOORD_1" : 5
          },
          "indices" : 0,
          "material" : 0
        }
      ],
      "name" : "ObjMD_Chair_J"
    }
  ],
  "buffers" : [
    {
      "uri" : "ObjMD_Chair_J.bin",
      "byteLength" : 24980
    }
  ],
  "bufferViews" : [
    {
      "buffer" : 0,
      "byteOffset" : 0,
      "byteLength" : 1908
    },
    {
      "buffer" : 0,
      "byteOffset" : 1908,
      "byteLength" : 4944
    },
    {
      "buffer" : 0,
      "byteOffset" : 6852,
      "byteLength" : 4944
    },
    {
      "buffer" : 0,
      "byteOffset" : 11796,
      "byteLength" : 6592
    },
    {
      "buffer" : 0,
      "byteOffset" : 18388,
      "byteLength" : 3296
    },
    {
      "buffer" : 0,
      "byteOffset" : 21684,
      "byteLength" : 3296
    }
  ],
  "accessors" : [
    {
      "bufferView" : 0,
      "componentType" : 5123,
      "count" : 954,
      "type" : "SCALAR"
    },
    {
      "bufferView" : 1,
      "min" : [ -0.381972, -1.89428e-17, -0.381972 ],
      "max" : [ 0.381972, 0.575, 0.381972 ],
      "componentType" : 5126,
      "count" : 412,
      "type" : "VEC3"
    },
    {
      "bufferView" : 2,
      "componentType" : 5126,
      "count" : 412,
      "type" : "VEC3"
    },
    {
      "bufferView" : 3,
      "componentType" : 5126,
      "count" : 412,
      "type" : "VEC4"
    },
    {
      "bufferView" : 4,
      "componentType" : 5126,
      "count" : 412,
      "type" : "VEC2"
    },
    {
      "bufferView" : 5,
      "componentType" : 5126,
      "count" : 412,
      "type" : "VEC2"
    }
  ]
}
